SplineFontDB: 3.0
FontName: Furfur
FullName: Furfur
FamilyName: Furfur
Weight: Regular
Copyright: Copyright (c) 2015, feufochmar
UComments: "2015-12-24: Created with FontForge (http://fontforge.org)"
Version: 001.000
ItalicAngle: 0
UnderlinePosition: -100
UnderlineWidth: 50
Ascent: 800
Descent: 200
InvalidEm: 0
LayerCount: 2
Layer: 0 0 "Arri+AOgA-re" 1
Layer: 1 0 "Avant" 0
XUID: [1021 1021 1028596125 13997935]
StyleMap: 0x0000
FSType: 0
OS2Version: 0
OS2_WeightWidthSlopeOnly: 0
OS2_UseTypoMetrics: 1
CreationTime: 1450995000
ModificationTime: 1451775739
OS2TypoAscent: 0
OS2TypoAOffset: 1
OS2TypoDescent: 0
OS2TypoDOffset: 1
OS2TypoLinegap: 90
OS2WinAscent: 0
OS2WinAOffset: 1
OS2WinDescent: 0
OS2WinDOffset: 1
HheadAscent: 0
HheadAOffset: 1
HheadDescent: 0
HheadDOffset: 1
Lookup: 4 0 1 "'liga' - ligatures" { "'liga' - ligatures-1"  } ['liga' ('DFLT' <'dflt' > 'latn' <'dflt' > ) ]
Lookup: 1 0 0 "'aalt' - low.cut" { "'aalt' - low-cut"  } ['aalt' ('DFLT' <'dflt' > 'latn' <'dflt' > ) ]
Lookup: 1 0 0 "'aalt' - none.cut" { "'aalt' - none-cut"  } ['aalt' ('DFLT' <'dflt' > 'latn' <'dflt' > ) ]
Lookup: 1 0 0 "'aalt' - none.low" { "'aalt' - none.low-1"  } ['aalt' ('DFLT' <'dflt' > 'latn' <'dflt' > ) ]
Lookup: 1 0 0 "'aalt' - low.none" { "'aalt' - low.none-1"  } ['aalt' ('DFLT' <'dflt' > 'latn' <'dflt' > ) ]
Lookup: 1 0 0 "'aalt' - low.low" { "'aalt' - low.low-1"  } ['aalt' ('DFLT' <'dflt' > 'latn' <'dflt' > ) ]
Lookup: 6 0 0 "'calt' - chaining substitutions" { "'calt' - low.cut"  "'calt' - none.cut"  "'calt' - low.low"  "'calt' - low.none"  "'calt' - none.low"  } ['calt' ('DFLT' <'dflt' > 'latn' <'dflt' > ) ]
Lookup: 258 0 0 "'kern' - kerning" { "'kern' - kerning normal" [50,15,0] "'kern' - normal kerning" [50,15,1] } ['kern' ('DFLT' <'dflt' > 'latn' <'dflt' > ) ]
MarkAttachClasses: 1
DEI: 91125
KernClass2: 109 95 "'kern' - normal kerning"
 17 quotesingle acute
 5 grave
 1 A
 1 B
 1 C
 5 D Eth
 1 E
 1 F
 1 G
 3 H U
 1 I
 1 J
 1 K
 1 L
 1 O
 3 M N
 1 P
 1 Q
 1 R
 1 S
 1 T
 3 V W

StartChar: F
Encoding: 1 70 1
Width: 500
VWidth: 0
Flags: W
HStem: -200 50<66.0785 133.922> 150 50<75.9035 150 200 300> 450 50<200 393.208> 780 20G<150 200>
VStem: 0 50<-136.368 124.06> 150 50<-135.627 150 200 450 500 800> 400 50<505.701 600>
LayerCount: 2
Fore
SplineSet
350 450 m 2
 200 450 l 1
 200 200 l 1
 300 200 l 1
 300 150 l 1
 200 150 l 1
 200 0 l 2
 200 -75 200 -200 100 -200 c 0
 0 -200 0 -75 0 0 c 0
 0 100 0 200 150 200 c 1
 150 800 l 1
 200 800 l 1
 200 500 l 1
 350 500 l 2
 400 500 400 525 400 600 c 1
 450 600 l 1
 450 500 450 450 350 450 c 2
50 0 m 0
 50 -75 50 -150 100 -150 c 0
 150 -150 150 -75 150 0 c 2
 150 150 l 1
 50 150 50 100 50 0 c 0
EndSplineSet
EndChar

StartChar: I
Encoding: 2 73 2
Width: 750
VWidth: 0
Flags: W
HStem: -200 50<109.302 200> 0 50<59.7546 250 300 551.776> 250 50<462.178 550> 400 50<472.013 611.525> 600 50<50 250 300 437.822> 750 50<300 431.905>
VStem: 0 50<-101.474 -9.96881> 250 50<50 600> 400 50<314.882 378.294> 450 50<665.562 730.395> 650 50<147.94 358.161>
LayerCount: 2
Fore
SplineSet
200 -150 m 1xff60
 200 -200 l 1
 100 -200 0 -150 0 -50 c 0
 0 25 55 50 125 50 c 2
 250 50 l 1
 250 600 l 1
 50 600 l 1
 50 650 l 1
 350 650 l 2
 375 650 450 650 450 700 c 0
 450 750 350 750 300 750 c 1
 300 800 l 1
 375 800 500 800 500 700 c 0
 500 600 400 600 350 600 c 2
 300 600 l 1
 300 50 l 1
 450 50 l 2xff60
 575 50 650 125 650 250 c 0
 650 375 600 400 550 400 c 0
 500 400 450 375 450 350 c 0
 450 300 525 300 550 300 c 1
 550 250 l 1
 500 250 400 275 400 350 c 0xffa0
 400 400 475 450 550 450 c 0
 625 450 700 400 700 250 c 0
 700 100 600 0 450 0 c 2
 125 0 l 2
 100 0 50 0 50 -50 c 0
 50 -125 150 -150 200 -150 c 1xff60
EndSplineSet
EndChar

StartChar: M
Encoding: 3 77 3
Width: 700
VWidth: 0
Flags: W
HStem: 0 21G<450 500> 550 50<363.315 431.608> 600 50<513.505 581.512> 700 50<142.033 253.077>
VStem: 0 50<450 573.047> 300 50<-150 539.844> 450 50<0 532.985> 600 50<-150 577.484>
LayerCount: 2
Fore
SplineSet
550 650 m 0xbf
 625 650 650 525 650 450 c 2
 650 -150 l 1
 600 -150 l 1
 600 450 l 2
 600 500 600 600 550 600 c 0xbf
 500 600 500 550 500 400 c 2
 500 0 l 1
 450 0 l 5
 450 400 l 6
 450 450 450 550 400 550 c 0
 350 550 350 500 350 350 c 2
 350 -150 l 1
 300 -150 l 1
 300 450 l 2
 300 550 300 700 200 700 c 0
 100 700 50 550 50 450 c 1
 0 450 l 1
 0 575 50 750 200 750 c 0
 301.716946627 750 334.458311713 669.528488202 344.997332233 578.745320069 c 1
 359.222298687 593.145358967 377.326268999 600 400 600 c 0xdf
 426.967880856 600 447.471169731 583.838520047 462.672108934 559.651256304 c 1
 476.826182035 621.804605105 504.014626053 650 550 650 c 0xbf
EndSplineSet
EndChar

StartChar: N
Encoding: 4 78 4
Width: 650
VWidth: 0
Flags: W
HStem: 600 50<429.981 531.512> 700 50<142.033 253.07>
VStem: 0 50<450 573.047> 300 50<-150 495.02> 550 50<-150 577.484>
LayerCount: 2
Fore
SplineSet
500 650 m 0
 575 650 600 525 600 450 c 2
 600 -150 l 1
 550 -150 l 1
 550 450 l 2
 550 500 550 600 500 600 c 0
 400 600 350 500 350 350 c 2
 350 -150 l 1
 300 -150 l 1
 300 450 l 2
 300 550 300 700 200 700 c 0
 100 700 50 550 50 450 c 1
 0 450 l 1
 0 575 50 750 200 750 c 0
 310.158686965 750 339.417798504 655.617162003 347.189274651 555.969396059 c 1
 381.628197794 614.943429621 433.802784821 650 500 650 c 0
EndSplineSet
EndChar

StartChar: a
Encoding: 5 97 5
Width: 450
VWidth: 0
Flags: W
HStem: 0 50<94.9219 215.84> 250 50<113.622 234.535> 450 50<138.271 251.474>
VStem: 0 50<93.6684 196.263 300 360.069 423.995 500> 300 50<230.016 386.216> 350 50<0 72.489>
LayerCount: 2
Fore
SplineSet
0 500 m 1xf8
 50 500 l 1
 50 423.995155788 l 1
 88.4250603337 468.877582096 144.212530167 500 200 500 c 0
 300 500 350 400 350 250 c 0xf8
 350 217.072562479 346.611824557 188.21093549 340.616421218 162.968863291 c 1
 376.378680755 95.8444072276 400 24.3008843691 400 0 c 1
 350 0 l 1xf4
 350 18.4965289841 336.315136622 57.5203530356 316.539084029 99.3528991062 c 1
 274.194321567 22.8318777946 200.681221886 -3.19744231092e-14 150 0 c 0
 75 0 0 75 0 150 c 0
 0 225 100 300 200 300 c 0
 234.479106287 300 268.958212574 270.279780741 299.338412466 229.284421001 c 1
 299.774102518 235.967295388 300 242.870698953 300 250 c 0
 300 350 275 450 200 450 c 0
 125 450 50 350 50 300 c 1
 0 300 l 1
 0 500 l 1xf8
284.979162323 159.085182773 m 1
 255.704493627 208.778431607 222.699550765 250 200 250 c 0
 125 250 50 200 50 150 c 0
 50 100 100 50 150 50 c 0
 188.078776895 50 255.157418786 78.9998649964 284.979162323 159.085182773 c 1
EndSplineSet
Substitution2: "'aalt' - none.low-1" a.n.l
EndChar

StartChar: l
Encoding: 6 108 6
Width: 300
VWidth: 0
Flags: W
HStem: 0 21G<200 250> 500 21G<0 50> 750 50<92.7335 184.438>
VStem: 0 50<500 703.125> 200 50<0 737.822>
LayerCount: 2
Fore
SplineSet
200 0 m 1
 200 650 l 2
 200 675 200 750 150 750 c 0
 75 750 50 675 50 600 c 2
 50 500 l 1
 0 500 l 1
 0 600 l 2
 0 700 25 800 150 800 c 0
 250 800 250 700 250 650 c 2
 250 0 l 1
 200 0 l 1
EndSplineSet
Substitution2: "'aalt' - none.low-1" l.n.l
EndChar

StartChar: asciitilde
Encoding: 7 126 7
Width: 450
VWidth: 0
Flags: W
HStem: 150 50<0 59.5473 203.526 309.938> 200 50<90.0624 196.474 340.453 400>
LayerCount: 2
Fore
SplineSet
250 150 m 0x80
 200 150 200 200 150 200 c 0x40
 100 200 75 150 0 150 c 1
 0 200 l 1x80
 50 200 75 250 150 250 c 0x40
 200 250 200 200 250 200 c 0x80
 300 200 325 250 400 250 c 1
 400 200 l 1x40
 350 200 325 150 250 150 c 0x80
EndSplineSet
EndChar

StartChar: a.n.l
Encoding: 8 57441 8
Width: 450
VWidth: 0
Flags: W
HStem: 0 50<93.6684 215.263 418.381 450> 250 50<113.588 240.905> 450 50<138.271 251.474>
VStem: 0 50<93.6684 196.263 300 360.069 423.995 500> 300 50<233.553 384.932>
LayerCount: 2
Fore
SplineSet
0 500 m 1
 50 500 l 1
 50 423.995155788 l 1
 88.4250603337 468.877582096 144.212530167 500 200 500 c 0
 300 500 350 400 350 250 c 0
 350 222.435537117 347.625626206 197.720322786 343.335016986 175.592563655 c 1
 387.262848901 112.89566799 424.92099125 50 450 50 c 1
 450 0 l 1
 403.205958965 0 361.886123621 54.7420569099 323.47889191 112.994129582 c 1
 282.665338472 25.5141645882 203.575586942 3.5527136788e-15 150 0 c 0
 75 0 0 75 0 150 c 0
 0 225 100 300 200 300 c 0
 233.840280227 300 267.680560455 271.370885853 299.583206192 233.489002467 c 1
 299.858404674 238.852849023 300 244.355626849 300 250 c 0
 300 350 275 450 200 450 c 0
 125 450 50 350 50 300 c 1
 0 300 l 1
 0 500 l 1
287.927832432 167.550794445 m 1
 257.671326377 213.04464571 228.835663189 250 200 250 c 0
 125 250 50 200 50 150 c 0
 50 100 100 50 150 50 c 0
 189.391502302 50 259.816813675 81.0338090718 287.927832432 167.550794445 c 1
EndSplineSet
EndChar

StartChar: c
Encoding: 9 99 9
Width: 400
VWidth: 0
Flags: W
HStem: 0 50<120.671 350> 450 50<131.402 258.504>
VStem: 0 50<120.126 342.785> 300 50<300 403.125>
LayerCount: 2
Fore
SplineSet
350 300 m 1
 300 300 l 1
 300 375 275 450 200 450 c 0
 75 450 50 300 50 200 c 0
 50 125 100 50 200 50 c 2
 350 50 l 1
 350 0 l 1
 200 0 l 2
 75 0 0 75 0 200 c 0
 0 350 50 500 200 500 c 0
 300 500 350 400 350 300 c 1
EndSplineSet
Substitution2: "'aalt' - low.low-1" c.l.l
Substitution2: "'aalt' - low.none-1" c.l.n
Substitution2: "'aalt' - none.low-1" c.n.l
EndChar

StartChar: d
Encoding: 10 100 10
Width: 450
VWidth: 0
Flags: W
HStem: 0 50<94.9219 215.84> 250 50<113.622 234.535> 600 50<96.875 258.255> 780 20G<300 350>
VStem: 0 50<93.6684 196.263 691.553 750> 300 50<230.434 646.04 696.875 800> 350 50<0 72.489>
LayerCount: 2
Fore
SplineSet
284.979162323 159.085182773 m 1xf8
 255.704493627 208.778431607 222.699550765 250 200 250 c 0
 125 250 50 200 50 150 c 0
 50 100 100 50 150 50 c 0
 188.078776895 50 255.157418786 78.9998649964 284.979162323 159.085182773 c 1xf8
299.338412466 229.284421001 m 1
 299.774102518 235.967295388 300 242.870698953 300 250 c 2
 300 646.039928216 l 1
 275.598306414 617.863279495 242.264973081 600 200 600 c 0
 100 600 0 650 0 750 c 1
 50 750 l 1
 50 675 125 650 200 650 c 0
 275 650 300 725 300 800 c 1
 350 800 l 1
 350 250 l 2xfc
 350 217.072562479 346.611824557 188.21093549 340.616421218 162.968863291 c 1
 376.378680755 95.8444072276 400 24.3008843691 400 0 c 1
 350 0 l 1xfa
 350 18.4965289841 336.315136622 57.5203530356 316.539084029 99.3528991062 c 1
 274.194321567 22.8318777946 200.681221886 -3.19744231092e-14 150 0 c 0
 75 0 0 75 0 150 c 0
 0 225 100 300 200 300 c 0
 234.479106287 300 268.958212574 270.279780741 299.338412466 229.284421001 c 1
EndSplineSet
Substitution2: "'aalt' - low.low-1" d.l.l
Substitution2: "'aalt' - low.none-1" d.l.n
Substitution2: "'aalt' - none.low-1" d.n.l
EndChar

StartChar: e
Encoding: 11 101 11
Width: 400
VWidth: 0
Flags: W
HStem: 0 50<128.977 271.894> 450 50<124.835 259.541>
VStem: 0 50<169.286 359.546> 300 50<76.7532 100 300.677 408.16>
LayerCount: 2
Fore
SplineSet
64.4510259553 151.675225619 m 1
 85.8557220651 97.5565904769 131.038713413 50 200 50 c 0
 225 50 300 75 300 100 c 1
 350 100 l 1
 350 50 250 0 200 0 c 0
 75 0 0 100 0 225 c 0
 0 375 50 500 200 500 c 0
 300 500 350 400 350 350 c 0
 350 235.838209407 204.031358369 163.381744995 64.4510259553 151.675225619 c 1
51.6025492224 201.080355933 m 1
 170.297838499 210.517656225 300 280.258828112 300 350 c 0
 300 375 275 450 200 450 c 0
 75 450 50 325 50 225 c 0
 50 217.247865078 50.5341830741 209.22863862 51.6025492224 201.080355933 c 1
EndSplineSet
Substitution2: "'aalt' - low.low-1" e.l.l
Substitution2: "'aalt' - low.none-1" e.l.n
Substitution2: "'aalt' - none.low-1" e.n.l
EndChar

StartChar: f
Encoding: 12 102 12
Width: 300
VWidth: 0
Flags: W
HStem: -200 21G<0 50> 0 50<50 225> 250 50<50 88.1508> 750 50<70.8696 151.474>
VStem: 0 50<-200 0 50 250 300 729.297> 200 50<459.03 686.216>
LayerCount: 2
Fore
SplineSet
50 50 m 1
 225 50 l 1
 225 0 l 1
 50 0 l 1
 50 -200 l 1
 0 -200 l 1
 0 550 l 2
 0 650 0 800 100 800 c 0
 200 800 250 700 250 550 c 0
 250 400 125 250 50 250 c 1
 50 50 l 1
50 300 m 1
 100 300 200 450 200 550 c 0
 200 650 175 750 100 750 c 0
 50 750 50 625 50 550 c 2
 50 300 l 1
EndSplineSet
Substitution2: "'aalt' - low.low-1" f.n.l
Substitution2: "'aalt' - none.low-1" f.n.l
EndChar

StartChar: g
Encoding: 13 103 13
Width: 400
VWidth: 0
Flags: W
HStem: -200 50<126.953 250> 0 21G<300 350> 50 50<107.07 291.694> 200 50<107.07 257.743> 450 50<136.45 300>
VStem: 0 50<-97.1985 1.47438 298.526 400.477> 300 50<0 39.534 79.8029 243.825 292.415 450>
LayerCount: 2
Fore
SplineSet
300 79.8029264154 m 1
 300 243.825334024 l 1
 272.255295577 217.40275913 236.127647788 200 200 200 c 0
 125 200 0 250 0 350 c 0
 0 475 200 500 300 500 c 2
 350 500 l 1
 350 333.333333333 350 166.666666667 350 0 c 1
 300 0 l 1
 300 50 250 50 200 50 c 0
 150 50 50 25 50 -50 c 0
 50 -125 175 -150 250 -150 c 1
 250 -200 l 1
 150 -200 0 -150 0 -50 c 0
 0 50 125 100 200 100 c 0
 236.127647788 100 272.255295577 94.1990802901 300 79.8029264154 c 1
300 350 m 2
 300 450 l 1
 225 450 50 450 50 350 c 0
 50 275 150 250 200 250 c 0
 250 250 300 300 300 350 c 2
EndSplineSet
EndChar

StartChar: h
Encoding: 14 104 14
Width: 300
VWidth: 0
Flags: W
HStem: 0 21G<0 50 200 250> 200 50<50 139.633> 300 50<50 88.1508> 750 50<66.0785 163.336>
VStem: 0 50<0 200 250 300 350 737.109> 200 50<0 133.258 509.03 710.481>
LayerCount: 2
Fore
SplineSet
50 0 m 1
 0 0 l 1
 0 600 l 2
 0 700 0 800 100 800 c 0
 200 800 250 750 250 600 c 0
 250 450 125 300 50 300 c 1
 50 250 l 1
 200 250 250 150 250 0 c 1
 200 0 l 1
 200 125 175 200 50 200 c 1
 50 0 l 1
50 350 m 1
 100 350 200 500 200 600 c 0
 200 700 175 750 100 750 c 0
 50 750 50 675 50 600 c 2
 50 350 l 1
EndSplineSet
Substitution2: "'aalt' - none.low-1" h.n.l
EndChar

StartChar: i
Encoding: 15 105 15
Width: 250
VWidth: 0
Flags: W
HStem: -200 50<50 100 150 200> 550 21G<189.434 212.5> 780 20G<98.4834 151.517>
VStem: 0 250<563.905 664.52> 100 50<-150 563.397>
LayerCount: 2
Fore
SplineSet
150 -150 m 1xe8
 200 -150 l 1
 200 -200 l 1
 50 -200 l 1
 50 -150 l 1
 100 -150 l 1
 100 563.397459622 l 1xe8
 87.7991532072 554.465819874 71.1324865405 550 50 550 c 0
 25 550 0 575 0 600 c 0
 0 650 71.966796875 746.966796875 125 800 c 1
 178.033203125 746.966796875 250 650 250 600 c 0xf0
 250 575 225 550 200 550 c 0
 178.867513459 550 162.200846793 554.465819874 150 563.397459622 c 1
 150 -150 l 1xe8
EndSplineSet
Substitution2: "'aalt' - none-cut" dotlessi
Substitution2: "'aalt' - low-cut" dotlessi.l.n
EndChar

StartChar: j
Encoding: 16 106 16
Width: 400
VWidth: 0
Flags: W
HStem: -200 50<126.953 250> -100 50<250 297.266> 50 50<107.89 200 250 291.089> 550 21G<289.434 312.5> 780 20G<198.483 251.517>
VStem: 0 50<-97.1985 1.47438> 100 250<563.905 664.52> 200 50<-50 47.9055 100 563.397> 300 50<-48.2422 38.8611>
LayerCount: 2
Fore
SplineSet
200 50 m 1xfd80
 150 50 50 25 50 -50 c 0
 50 -125 175 -150 250 -150 c 1
 250 -200 l 1
 150 -200 0 -150 0 -50 c 0
 0 50 125 100 200 100 c 1
 200 563.397459622 l 1xfd80
 187.799153207 554.465819874 171.132486541 550 150 550 c 0
 125 550 100 575 100 600 c 0
 100 650 171.966796875 746.966796875 225 800 c 1
 278.033203125 746.966796875 350 650 350 600 c 0xfe
 350 575 325 550 300 550 c 0
 278.867513459 550 262.200846793 554.465819874 250 563.397459622 c 1
 250 95.8779388275 l 1
 305.077857763 86.1408481072 350 58.0444714658 350 0 c 0
 350 -75 325 -100 250 -100 c 2
 200 -100 l 1
 200 50 l 1xfd80
250 47.9055466999 m 1
 250 -50 l 1
 300 -50 300 -50 300 0 c 0
 300 32.6351822333 278.698897612 43.9692620786 250 47.9055466999 c 1
EndSplineSet
EndChar

StartChar: k
Encoding: 17 107 17
Width: 450
VWidth: 0
Flags: W
HStem: 0 21G<0 50 350 400> 200 50<50 126.84> 300 50<50 88.1508> 480 20G<350 400> 750 50<66.0785 163.336>
VStem: 0 50<0 200 250 300 350 737.109> 200 50<509.03 710.481> 350 50<0 105.132 439.795 500>
LayerCount: 2
Fore
SplineSet
50 0 m 1
 0 0 l 1
 0 600 l 2
 0 700 0 800 100 800 c 0
 200 800 250 750 250 600 c 0
 250 450 125 300 50 300 c 1
 50 250 l 1
 150 250 350 400 350 500 c 1
 400 500 l 1
 400 423.431509524 315.576634234 328.1022711 221.426974508 265.725642184 c 1
 330.902861267 232.790752839 400.000000023 124.687033053 400 0 c 1
 350 0 l 1
 350 124.895682178 275.125129152 225.831405685 150.312848982 225.999789017 c 1
 114.168500648 209.635591899 79.331224067 200 50 200 c 1
 50 0 l 1
50 350 m 1
 100 350 200 500 200 600 c 0
 200 700 175 750 100 750 c 0
 50 750 50 675 50 600 c 2
 50 350 l 1
EndSplineSet
Substitution2: "'aalt' - none.low-1" k.n.l
EndChar

StartChar: m
Encoding: 18 109 18
Width: 700
VWidth: 0
Flags: W
HStem: 0 21G<200 250 400 450 600 650> 400 50<299.029 378.675> 450 50<498.852 588.033> 500 50<85.4896 161.422>
VStem: 0 50<350 457.227> 200 50<0 336.653> 400 50<0 378.596> 600 50<0 439.291>
LayerCount: 2
Fore
SplineSet
248.527802288 390.026438989 m 1xdf
 281.119824856 435.314620581 322.902602137 450 350 450 c 0xdf
 387.231780587 450 412.141734634 431.517260191 427.788285757 403.727051416 c 1
 461.122785581 477.782447418 516.670169081 500 550 500 c 0
 650 500 650 425 650 350 c 2
 650 0 l 1
 600 0 l 1
 600 350 l 2
 600 400 600 450 550 450 c 0xaf
 500 450 450 400 450 250 c 2
 450 0 l 1
 400 0 l 1
 400 100 400 200 400 300 c 0
 400 350 375 400 350 400 c 0
 300 400 250 350 250 200 c 2
 250 0 l 1
 200 0 l 1
 200 116.666666667 200 233.333333333 200 350 c 0
 200 400 175 500 125 500 c 0
 75 500 50 425 50 350 c 1
 0 350 l 1
 0 450 25 550 125 550 c 0
 211.577240846 550 241.937341948 475.043813676 248.527802288 390.026438989 c 1xdf
EndSplineSet
Substitution2: "'aalt' - none.low-1" m.n.l
EndChar

StartChar: n
Encoding: 19 110 19
Width: 500
VWidth: 0
Flags: W
HStem: 0 21G<200 250 400 450> 450 50<298.322 388.033> 500 50<85.4896 161.38>
VStem: 0 50<350 457.227> 200 50<0 386.653> 400 50<0 439.291>
CounterMasks: 1 1c
LayerCount: 2
Fore
SplineSet
350 500 m 0xdc
 450 500 450 425 450 350 c 2
 450 0 l 1
 400 0 l 1
 400 350 l 2
 400 400 400 450 350 450 c 0xdc
 300 450 250 400 250 250 c 2
 250 0 l 1
 200 0 l 1
 200 116.666666667 200 233.333333333 200 350 c 0
 200 400 175 500 125 500 c 0
 75 500 50 425 50 350 c 1
 0 350 l 1
 0 450 25 550 125 550 c 0xbc
 196.962359794 550 230.085360385 498.214187729 243.002148046 431.908855735 c 1
 276.266947361 483.577501768 321.344722797 500 350 500 c 0xdc
EndSplineSet
Substitution2: "'aalt' - none.low-1" n.n.l
EndChar

StartChar: o
Encoding: 20 111 20
Width: 500
VWidth: 0
Flags: W
HStem: 0 50<147.94 339.982> 100 50<210.898 278.294> 300 50<233.024 376.984> 450 50<189.844 400>
VStem: 0 50<147.94 334.391> 150 50<160.898 268.387> 300 50<172.622 250> 400 50<110.018 276.984>
LayerCount: 2
Fore
SplineSet
400 500 m 1
 400 450 l 1
 300 450 l 2
 175 450 50 375 50 250 c 0
 50 125 125 50 250 50 c 0
 350 50 400 100 400 200 c 0
 400 275 375 300 300 300 c 0
 225 300 200 250 200 200 c 0
 200 175 225 150 250 150 c 0
 275 150 300 200 300 250 c 1
 350 250 l 1
 350 175 300 100 250 100 c 0
 200 100 150 150 150 200 c 0
 150 275 200 350 300 350 c 0
 400 350 450 300 450 200 c 0
 450 75 375 0 250 0 c 0
 100 0 0 100 0 250 c 0
 0 400 150 500 300 500 c 2
 400 500 l 1
EndSplineSet
EndChar

StartChar: p
Encoding: 21 112 21
Width: 350
VWidth: 0
Flags: W
HStem: -200 21G<0 50> -150 50<-50 0 50 100> 50 50<50 131.25> 450 50<92.257 201.281>
VStem: 0 50<-200 -150 -100 50 100 407.585 456.175 500> 250 50<194.666 386.091>
LayerCount: 2
Fore
SplineSet
100 -100 m 1
 100 -150 l 1
 50 -150 l 1
 50 -200 l 1
 0 -200 l 1
 0 -150 l 1
 -50 -150 l 1
 -50 -100 l 1
 0 -100 l 1
 -0 100 0 300 0 500 c 1
 50 500 l 1
 50 456.174665976 l 1
 77.7447044233 482.59724087 113.872352212 500 150 500 c 0
 250 500 300 425 300 250 c 0
 300 150 150 50 50 50 c 1
 50 -100 l 1
 100 -100 l 1
50 350 m 2
 50 100 l 1
 125 100 250 175 250 250 c 0
 250 400 200 450 150 450 c 0
 100 450 50 400 50 350 c 2
EndSplineSet
Substitution2: "'aalt' - low.none-1" p.l.n
EndChar

StartChar: q
Encoding: 22 113 22
Width: 350
VWidth: 0
Flags: W
HStem: -200 21G<250 300> -150 50<200 250 300 350> 50 50<168.75 250> 450 50<98.7189 207.743>
VStem: 0 50<194.666 386.091> 250 50<-200 -150 -100 50 100 407.585 456.175 500>
LayerCount: 2
Fore
SplineSet
250 500 m 1
 300 500 l 1
 300 300 300 100 300 -100 c 1
 350 -100 l 1
 350 -150 l 1
 300 -150 l 1
 300 -200 l 1
 250 -200 l 1
 250 -150 l 1
 200 -150 l 1
 200 -100 l 1
 250 -100 l 1
 250 50 l 1
 150 50 0 150 0 250 c 0
 0 425 50 500 150 500 c 0
 186.127647788 500 222.255295577 482.59724087 250 456.174665976 c 1
 250 500 l 1
250 100 m 1
 250 350 l 2
 250 400 200 450 150 450 c 0
 100 450 50 400 50 250 c 0
 50 175 175 100 250 100 c 1
EndSplineSet
Substitution2: "'aalt' - none.low-1" q.n.l
EndChar

StartChar: r
Encoding: 23 114 23
Width: 400
VWidth: 0
Flags: W
HStem: 0 21G<0 50 300 350> 450 50<83.0242 236.412>
VStem: 0 50<0 418.024> 150 50<104.622 198.322> 300 50<0 17.7246 313.745 396.263>
CounterMasks: 1 38
LayerCount: 2
Fore
SplineSet
0 0 m 1
 0 350 l 2
 0 425 50 500 150 500 c 0
 250 500 350 425 350 350 c 0
 350 275 200 225 200 150 c 0
 200 75 350 50 350 0 c 1
 300 0 l 1
 300 25 150 50 150 150 c 0
 150 250 300 300 300 350 c 0
 300 400 225 450 150 450 c 0
 75 450 50 400 50 350 c 2
 50 0 l 1
 0 0 l 1
EndSplineSet
Substitution2: "'aalt' - low.low-1" r.l.l
Substitution2: "'aalt' - low.none-1" r.l.n
Substitution2: "'aalt' - none.low-1" r.n.l
EndChar

StartChar: s
Encoding: 24 115 24
Width: 350
VWidth: 0
Flags: W
HStem: 0 50<0 210.545> 450 50<106.787 250>
VStem: 0 50<317.467 406.892> 250 50<86.3541 182.533>
LayerCount: 2
Fore
SplineSet
250 450 m 1
 175 450 50 450 50 350 c 0
 50 275 300 275 300 150 c 0
 300 25 200 0 100 0 c 2
 0 0 l 1
 0 50 l 1
 100 50 l 2
 150 50 250 50 250 150 c 0
 250 225 0 225 0 350 c 0
 0 475 150 500 250 500 c 1
 250 450 l 1
EndSplineSet
Substitution2: "'aalt' - low.none-1" s.l.n
EndChar

StartChar: u
Encoding: 25 117 25
Width: 450
VWidth: 0
Flags: W
HStem: 0 50<174.158 327.292> 350 50<0 77.2916> 480 20G<100 150 350 400>
VStem: 100 50<74.1577 376.795 421.875 500> 350 50<0 26.7949 71.875 500>
LayerCount: 2
Fore
SplineSet
350 500 m 1
 400 500 l 1
 400 0 l 1
 350 0 l 1
 350 26.7949192431 l 1
 325.598306414 8.9316397477 292.264973081 -1.24344978758e-14 250 0 c 0
 150 0 100 50 100 150 c 2
 100 376.794919243 l 1
 75.5983064144 358.931639748 42.264973081 350 0 350 c 1
 0 400 l 1
 75 400 100 425 100 500 c 1
 150 500 l 1
 150 150 l 2
 150 75 175 50 250 50 c 0
 325 50 350 75 350 150 c 2
 350 500 l 1
EndSplineSet
Substitution2: "'aalt' - none.low-1" u.n.l
EndChar

StartChar: y
Encoding: 26 121 26
Width: 500
VWidth: 0
Flags: W
HStem: -200 50<226.953 350> 0 21G<400 450> 50 50<207.07 391.694> 200 50<250 400> 480 20G<400 450> 500 50<85.4896 160.168>
VStem: 0 50<350 457.227> 100 50<-97.1985 1.47438> 200 50<250 449.063> 400 50<0 39.534 79.8029 200 250 500>
LayerCount: 2
Fore
SplineSet
400 500 m 1xfbc0
 450 500 l 1xfbc0
 450 0 l 1
 400 0 l 1
 400 50 350 50 300 50 c 0
 250 50 150 25 150 -50 c 0
 150 -125 275 -150 350 -150 c 1
 350 -200 l 1
 250 -200 100 -150 100 -50 c 0
 100 50 225 100 300 100 c 0
 336.127647788 100 372.255295577 94.1990802901 400 79.8029264154 c 1
 400 200 l 1
 200 200 l 1
 200 350 l 2
 200 400 175 500 125 500 c 0
 75 500 50 425 50 350 c 1
 0 350 l 1
 0 450 25 550 125 550 c 0xf7c0
 225 550 250 450 250 350 c 2
 250 250 l 1
 400 250 l 1
 400 500 l 1xfbc0
EndSplineSet
EndChar

StartChar: z
Encoding: 27 122 27
Width: 400
VWidth: 0
Flags: W
HStem: -200 50<126.953 250> 0 21G<300 350> 50 50<107.07 241.278> 450 50<83.0242 287.305>
VStem: 0 50<-97.1985 1.47438 300 418.024> 150 50<196.639 291.214> 300 50<0 37.9836 371.772 434.601>
CounterMasks: 1 0e
LayerCount: 2
Fore
SplineSet
300 0 m 1
 300 49.8807212098 249.999953441 50 200 50 c 0
 150 50 50 25 50 -50 c 0
 50 -125 175 -150 250 -150 c 1
 250 -200 l 1
 150 -200 0 -150 0 -50 c 0
 0 50 125 100 200 100 c 0
 214.211281257 100 228.422562515 99.1023977112 242.12360061 97.1371120687 c 1
 199.888587863 142.973430241 150.000000019 192.329332809 150 250 c 0
 150 350 300 350 300 400 c 0
 300 450 225 450 150 450 c 0
 75 450 50 400 50 350 c 2
 50 300 l 1
 0 300 l 1
 0 350 l 2
 0 425 50 500 150 500 c 0
 250 500 350 475 350 400 c 0
 350 325 200 325 200 250 c 0
 200 180.455696013 328.97093912 110.911392026 347.734307946 21.4355459007 c 0
 349.218158964 14.7938503357 349.999997531 7.65753776461 350 0 c 1
 300 0 l 1
EndSplineSet
EndChar

StartChar: E
Encoding: 28 69 28
Width: 600
VWidth: 0
Flags: W
HStem: 0 50<261.156 470.523> 500 50<62.4239 111.848 171.801 390.807> 750 50<300.428 478.771>
VStem: 0 50<562.98 694.834> 100 50<184.312 498.67> 500 50<79.8304 200 611.376 727.987>
LayerCount: 2
Fore
SplineSet
171.800713235 550.038755805 m 1
 180.582365382 550 189.969209036 550 200 550 c 0
 325 550 500 575 500 650 c 0
 500 700 500 750 400 750 c 0
 278.569703689 750 205.287380806 677.778039859 171.800713235 550.038755805 c 1
161.181270848 500.096688382 m 1
 153.638061208 455.271323498 150 405.061035888 150 350 c 0
 150 175 200 50 350 50 c 0
 400 50 500 50 500 125 c 2
 500 200 l 1
 550 200 l 1
 550 125 l 2
 550 25 425 0 350 0 c 0
 175 0 100 125 100 350 c 0
 100 404.650749795 103.94936126 455.352138329 111.848083781 501.515523183 c 1
 29.6658013398 506.596978375 2.48689957516e-14 528.716237513 0 625 c 0
 0 725 100 800 100 800 c 1
 150 800 l 1
 150 800 50 700 50 625 c 0
 50 569.220218079 63.8283736494 554.925557107 122.338867607 551.262270423 c 1
 162.022068455 707.476607587 254.575779252 800 400 800 c 0
 550 800 550 725 550 650 c 0
 550 525 350 500 200 500 c 0
 186.230673881 500 173.303989282 500.096688382 161.181270848 500.096688382 c 1
EndSplineSet
EndChar

StartChar: C
Encoding: 29 67 29
Width: 450
VWidth: 0
Flags: W
HStem: 0 50<161.945 400> 500 21G<350 400> 750 50<129.467 269.991>
VStem: 0 50<184.312 565.486> 350 50<500 643.213>
LayerCount: 2
Fore
SplineSet
400 500 m 1
 350 500 l 1
 350 600 325 750 200 750 c 0
 50 750 50 550 50 350 c 0
 50 175 100 50 250 50 c 2
 400 50 l 1
 400 0 l 1
 250 0 l 2
 75 0 0 125 0 350 c 0
 0 625 25 800 200 800 c 0
 375 800 400 625 400 500 c 1
EndSplineSet
EndChar

StartChar: O
Encoding: 30 79 30
Width: 600
VWidth: 0
Flags: W
HStem: 0 50<147.958 358.193> 200 50<243.668 339.629> 500 50<260.018 429.874> 750 50<205.231 450>
VStem: 0 50<166.02 542.156> 150 50<293.668 439.982> 350 50<260.709 350> 500 50<210.13 430.808>
LayerCount: 2
Fore
SplineSet
450 800 m 1
 450 750 l 1
 300 750 l 2
 100 750 50 550 50 350 c 0
 50 175 75 50 250 50 c 0
 425 50 500 175 500 350 c 0
 500 450 425 500 350 500 c 0
 250 500 200 450 200 350 c 0
 200 300 250 250 300 250 c 0
 350 250 350 300 350 350 c 1
 400 350 l 1
 400 275 375 200 300 200 c 0
 225 200 150 275 150 350 c 0
 150 475 225 550 350 550 c 0
 475 550 550 475 550 350 c 0
 550 150 450 0 250 0 c 0
 50 0 0 150 0 350 c 0
 0 575 75 800 300 800 c 2
 450 800 l 1
EndSplineSet
EndChar

StartChar: R
Encoding: 31 82 31
Width: 400
VWidth: 0
Flags: W
HStem: 0 21G<0 50 300 350> 750 50<73.0164 236.412>
VStem: 0 50<0 725.842> 150 50<269.284 422.333> 300 50<0 77.2888 578.086 696.263>
CounterMasks: 1 38
LayerCount: 2
Fore
SplineSet
0 0 m 1
 0 650 l 2
 0 750 50 800 150 800 c 0
 250 800 350 725 350 650 c 0
 350 500 200 475 200 350 c 0
 200 225 350 150 350 0 c 1
 300 0 l 1
 300 125 150 175 150 350 c 0
 150 525 300 525 300 650 c 0
 300 700 225 750 150 750 c 0
 75 750 50 725 50 650 c 2
 50 0 l 1
 0 0 l 1
EndSplineSet
EndChar

StartChar: U
Encoding: 32 85 32
Width: 450
VWidth: 0
Flags: W
HStem: 0 50<134.375 285.4> 750 50<0 50>
VStem: 0 100<750 800> 50 50<86.4038 750> 350 50<0 56.9508 126.904 800>
LayerCount: 2
Fore
SplineSet
350 800 m 1xd8
 400 800 l 5
 400 0 l 5
 350 0 l 1
 350 56.95076244 l 1
 315.561517625 13.2801377221 264.420827674 -8.881784197e-15 200 0 c 0
 100 0 50 75 50 175 c 2
 50 750 l 1xd8
 0 750 l 1
 0 800 l 1
 100 800 l 1xe8
 100 175 l 2
 100 100 125 50 200 50 c 0
 300 50 350 100 350 275 c 2
 350 800 l 1xd8
EndSplineSet
EndChar

StartChar: Y
Encoding: 33 89 33
Width: 800
VWidth: 0
Flags: W
HStem: -200 50<417.366 550> 150 50<406.546 652.888> 300 50<110.018 263.646 550 700> 480 20G<300 350> 750 50<216.927 406.452>
VStem: 0 50<410.018 580.863> 250 50<-63.8008 68.5981> 300 50<391.521 500> 500 50<350 676.147> 700 50<50 108.561 153.316 300 350 750>
LayerCount: 2
Fore
SplineSet
700 750 m 1xfdc0
 750 750 l 1
 750 50 l 1
 700 50 l 1
 700 125 625 150 550 150 c 0
 450 150 300 125 300 0 c 0
 300 -125 475 -150 550 -150 c 1
 550 -200 l 1
 450 -200 250 -150 250 0 c 0xfec0
 250 150 425 200 550 200 c 0
 605.787469833 200 661.574939666 184.438791048 700 153.316373144 c 1
 700 300 l 1
 500 300 l 1
 500 625 l 2
 500 675 425 750 300 750 c 0
 175 750 50 600 50 500 c 0
 50 400 100 350 200 350 c 0
 300 350 300 450 300 500 c 1
 350 500 l 1
 350 425 325 300 200 300 c 0
 75 300 0 375 0 500 c 0
 0 625 125 800 300 800 c 0
 475 800 550 700 550 625 c 2
 550 350 l 1
 700 350 l 1
 700 750 l 1xfdc0
EndSplineSet
EndChar

StartChar: r.n.l
Encoding: 34 57458 34
Width: 400
VWidth: 0
Flags: W
HStem: 0 50<287.939 400> 450 50<83.0242 236.412>
VStem: 0 50<0 418.024> 150 50<105.985 198.322> 300 50<313.745 396.263>
CounterMasks: 1 38
LayerCount: 2
Fore
SplineSet
0 0 m 1
 0 350 l 2
 0 425 50 500 150 500 c 0
 250 500 350 425 350 350 c 0
 350 275 200 225 200 150 c 0
 200 75 350 50 400 50 c 1
 400 0 l 1
 325 0 150 50 150 150 c 0
 150 250 300 300 300 350 c 0
 300 400 225 450 150 450 c 0
 75 450 50 400 50 350 c 2
 50 0 l 1
 0 0 l 1
EndSplineSet
EndChar

StartChar: r.l.n
Encoding: 35 57714 35
Width: 450
VWidth: 0
Flags: W
HStem: 0 50<0 38.9067> 450 50<133.024 286.412>
VStem: 50 50<60.7018 418.024> 200 50<104.622 198.322> 350 50<0 17.7246 313.745 396.263>
CounterMasks: 1 38
LayerCount: 2
Fore
SplineSet
50 100 m 2
 50 350 l 2
 50 425 100 500 200 500 c 0
 300 500 400 425 400 350 c 0
 400 275 250 225 250 150 c 0
 250 75 400 50 400 0 c 1
 350 0 l 1
 350 25 200 50 200 150 c 0
 200 250 350 300 350 350 c 0
 350 400 275 450 200 450 c 0
 125 450 100 400 100 350 c 2
 100 100 l 2
 100 25 50 0 0 0 c 1
 0 50 l 1
 25 50 50 75 50 100 c 2
EndSplineSet
EndChar

StartChar: r.l.l
Encoding: 36 57970 36
Width: 450
VWidth: 0
Flags: W
HStem: 0 50<0 38.9067 337.939 450> 450 50<133.024 286.412>
VStem: 50 50<60.7018 418.024> 200 50<105.985 198.322> 350 50<313.745 396.263>
CounterMasks: 1 38
LayerCount: 2
Fore
SplineSet
50 100 m 2
 50 350 l 2
 50 425 100 500 200 500 c 0
 300 500 400 425 400 350 c 0
 400 275 250 225 250 150 c 0
 250 75 400 50 450 50 c 1
 450 0 l 1
 375 0 200 50 200 150 c 0
 200 250 350 300 350 350 c 0
 350 400 275 450 200 450 c 0
 125 450 100 400 100 350 c 2
 100 100 l 2
 100 25 50 0 0 0 c 1
 0 50 l 1
 25 50 50 75 50 100 c 2
EndSplineSet
EndChar

StartChar: l.n.l
Encoding: 37 57452 37
Width: 300
VWidth: 0
Flags: W
HStem: 0 50<261.093 300> 500 21G<0 50> 750 50<92.7335 184.438>
VStem: 0 50<500 703.125> 200 50<60.7018 737.822>
LayerCount: 2
Fore
SplineSet
200 100 m 2
 200 650 l 2
 200 675 200 750 150 750 c 0
 75 750 50 675 50 600 c 2
 50 500 l 1
 0 500 l 1
 0 600 l 2
 0 700 25 800 150 800 c 0
 250 800 250 700 250 650 c 2
 250 100 l 2
 250 75 275 50 300 50 c 1
 300 0 l 1
 250 0 200 25 200 100 c 2
EndSplineSet
EndChar

StartChar: c.n.l
Encoding: 38 57443 38
Width: 400
VWidth: 0
Flags: W
HStem: 0 50<120.671 400> 450 50<131.402 258.504>
VStem: 0 50<120.126 342.785> 300 50<300 403.125>
LayerCount: 2
Fore
SplineSet
350 300 m 1
 300 300 l 1
 300 375 275 450 200 450 c 0
 75 450 50 300 50 200 c 0
 50 125 100 50 200 50 c 2
 400 50 l 1
 400 0 l 1
 200 0 l 2
 75 0 0 75 0 200 c 0
 0 350 50 500 200 500 c 0
 300 500 350 400 350 300 c 1
EndSplineSet
EndChar

StartChar: s.l.n
Encoding: 39 57459 39
Width: 350
VWidth: 0
Flags: W
HStem: 0 50<0 169.025> 750 50<120.883 290.448>
VStem: 0 50<543.536 680.808> 250 50<126.449 256.464>
LayerCount: 2
Fore
SplineSet
0 50 m 1
 100 50 l 2
 150 50 250 100 250 200 c 0
 250 300 0 475 0 600 c 0
 0 725 100 800 200 800 c 0
 250 800 300 775 300 775 c 1
 300 725 l 1
 300 725 225 750 200 750 c 0
 125 750 50 700 50 600 c 0
 50 500 300 325 300 200 c 0
 300 75 200 0 100 0 c 2
 0 0 l 1
 0 50 l 1
EndSplineSet
EndChar

StartChar: h.n.l
Encoding: 40 57448 40
Width: 300
VWidth: 0
Flags: W
HStem: 0 50<269.564 300> 200 50<50 113.37> 300 50<50 88.1508> 750 50<66.0785 163.336>
VStem: 0 50<0 200 250 300 350 737.109> 200 50<509.03 710.481>
LayerCount: 2
Fore
SplineSet
50 0 m 1
 0 0 l 1
 0 600 l 2
 0 700 0 800 100 800 c 0
 200 800 250 750 250 600 c 0
 250 450 125 300 50 300 c 1
 50 250 l 1
 200 250 250 50 300 50 c 1
 300 0 l 1
 225 0 175 200 50 200 c 1
 50 0 l 1
50 350 m 1
 100 350 200 500 200 600 c 0
 200 700 175 750 100 750 c 0
 50 750 50 675 50 600 c 2
 50 350 l 1
EndSplineSet
EndChar

StartChar: exclam
Encoding: 41 33 41
Width: 300
VWidth: 0
Flags: W
HStem: 0 21G<98.4834 151.517> 780 20G<112.5 137.5>
VStem: 0 250<135.48 236.095> 50 150<401.871 730.543> 100 50<236.603 300>
LayerCount: 2
Fore
SplineSet
125 800 m 0xd0
 150 800 200 750 200 550 c 0xd0
 200 450 150 300 150 300 c 1
 150 236.602540378 l 1xc8
 162.200846793 245.534180126 178.867513459 250 200 250 c 0xd0
 225 250 250 225 250 200 c 0
 250 150 178.033203125 53.033203125 125 0 c 1
 71.966796875 53.033203125 0 150 0 200 c 0xe0
 0 225 25 250 50 250 c 0xd0
 71.1324865405 250 87.7991532072 245.534180126 100 236.602540378 c 1
 100 300 l 1xc8
 100 300 50 450 50 550 c 0
 50 750 100 800 125 800 c 0xd0
EndSplineSet
EndChar

StartChar: quotedbl
Encoding: 42 34 42
Width: 250
VWidth: 0
Flags: W
HStem: 780 20G<37.5 75 175 212.5>
VStem: 0 125<341.513 399.371 725.629 783.487> 125 125<341.513 399.371 725.629 783.487>
LayerCount: 2
Fore
SplineSet
125 400 m 1xa0
 125 350 100 325 50 325 c 0
 25 325 0 350 0 375 c 0
 0 421.28822314 61.6784121206 507.828862386 112.913318624 562.5 c 1
 61.6784121206 617.171137614 -7.1054273576e-15 703.71177686 0 750 c 0xc0
 0 775 25 800 50 800 c 0
 100 800 125 775 125 725 c 1
 125 775 150 800 200 800 c 0
 225 800 250 775 250 750 c 0
 250 703.71177686 188.321587879 617.171137614 137.086681376 562.5 c 1
 188.321587879 507.828862386 250 421.28822314 250 375 c 0
 250 350 225 325 200 325 c 0
 150 325 125 350 125 400 c 1xa0
EndSplineSet
EndChar

StartChar: quotesingle
Encoding: 43 39 43
Width: 250
VWidth: 0
Flags: W
LayerCount: 2
Fore
SplineSet
125 675 m 1
 142.5 692.5 161.75 701.25 181 701.25 c 0
 200.25 701.25 219.5 692.5 237 675 c 0
 246 666 250.5 651.75 250.5 637.5 c 0
 250.5 623.25 246 609 237 600 c 0
 202 565 75 550 0 550 c 1
 0 625 15 752 50 787 c 0
 59 796 73.25 800.5 87.5 800.5 c 0
 101.75 800.5 116 796 125 787 c 0
 142.5 769.5 151.25 750.25 151.25 731 c 0
 151.25 711.75 142.5 692.5 125 675 c 1
EndSplineSet
EndChar

StartChar: comma
Encoding: 44 44 44
Width: 300
VWidth: 0
Flags: W
HStem: 50 125<176.373 233.487> 175 125<176.373 233.487>
VStem: 0 250
LayerCount: 2
Fore
SplineSet
175 175 m 1x60
 225 175 250 150 250 100 c 0
 250 75 225 50 200 50 c 0xa0
 150 50 53.033203125 121.966796875 0 175 c 1
 53.033203125 228.033203125 150 300 200 300 c 0
 225 300 250 275 250 250 c 0
 250 200 225 175 175 175 c 1x60
EndSplineSet
EndChar

StartChar: period
Encoding: 45 46 45
Width: 300
VWidth: 0
Flags: W
HStem: 0 250
VStem: 0 125<176.373 233.487> 125 125<176.373 233.487>
LayerCount: 2
Fore
SplineSet
125 175 m 1xa0
 125 225 150 250 200 250 c 0
 225 250 250 225 250 200 c 0
 250 150 178.033203125 53.033203125 125 0 c 1xa0
 71.966796875 53.033203125 0 150 0 200 c 0xc0
 0 225 25 250 50 250 c 0
 100 250 125 225 125 175 c 1xa0
EndSplineSet
EndChar

StartChar: f.n.l
Encoding: 46 57446 46
Width: 300
VWidth: 0
Flags: W
HStem: -200 21G<0 50> 0 50<50 300> 250 50<50 88.1508> 750 50<70.8696 151.474>
VStem: 0 50<-200 0 50 250 300 729.297> 200 50<459.03 686.216>
LayerCount: 2
Fore
SplineSet
50 50 m 1
 300 50 l 1
 300 0 l 1
 50 0 l 1
 50 -200 l 1
 0 -200 l 1
 0 550 l 2
 0 650 0 800 100 800 c 0
 200 800 250 700 250 550 c 0
 250 400 125 250 50 250 c 1
 50 50 l 1
50 300 m 1
 100 300 200 450 200 550 c 0
 200 650 175 750 100 750 c 0
 50 750 50 625 50 550 c 2
 50 300 l 1
EndSplineSet
EndChar

StartChar: c.l.n
Encoding: 47 57699 47
Width: 450
VWidth: 0
Flags: W
HStem: 0 50<0 31.4346 168.404 400> 450 50<181.402 308.504>
VStem: 50 50<119.58 342.357> 350 50<300 403.125>
LayerCount: 2
Fore
SplineSet
400 300 m 1
 350 300 l 1
 350 375 325 450 250 450 c 0
 125 450 100 300 100 200 c 0
 100 125 150 50 250 50 c 2
 400 50 l 1
 400 0 l 1
 250 0 l 2
 172.576046454 0 114.334392373 28.773449197 81.2157156064 80.3796697403 c 1
 65.8783938061 35.6945466493 40.0781062329 -2.13162820728e-14 0 0 c 1
 0 50 l 1
 50 50 50 150 50 200 c 0
 50 350 100 500 250 500 c 0
 350 500 400 400 400 300 c 1
EndSplineSet
EndChar

StartChar: c.l.l
Encoding: 48 57955 48
Width: 450
VWidth: 0
Flags: W
HStem: 0 50<0 31.4346 168.404 450> 450 50<181.402 308.504>
VStem: 50 50<119.58 342.357> 350 50<300 403.125>
LayerCount: 2
Fore
SplineSet
400 300 m 1
 350 300 l 1
 350 375 325 450 250 450 c 0
 125 450 100 300 100 200 c 0
 100 125 150 50 250 50 c 2
 450 50 l 1
 450 0 l 1
 250 0 l 2
 172.576046454 0 114.334392373 28.773449197 81.2157156064 80.3796697403 c 1
 65.8783938061 35.6945466493 40.0781062329 -2.13162820728e-14 0 0 c 1
 0 50 l 1
 50 50 50 150 50 200 c 0
 50 350 100 500 250 500 c 0
 350 500 400 400 400 300 c 1
EndSplineSet
EndChar

StartChar: dotlessi.l.n
Encoding: 49 58673 49
Width: 150
VWidth: 0
Flags: W
HStem: 0 50<0 29.7635>
VStem: 50 50<70.9947 300>
LayerCount: 2
Fore
SplineSet
50 125 m 2
 50 300 l 1
 100 300 l 1
 100 125 l 2
 100 50 50 0 0 0 c 1
 0 50 l 1
 25 50 50 100 50 125 c 2
EndSplineSet
EndChar

StartChar: k.n.l
Encoding: 50 57451 50
Width: 450
VWidth: 0
Flags: W
HStem: 0 50<417.059 450> 200 50<50 126.84> 300 50<50 88.1508> 480 20G<350 400> 750 50<66.0785 163.336>
VStem: 0 50<0 200 250 300 350 737.109> 200 50<509.03 710.481> 350 50<439.795 500>
LayerCount: 2
Fore
SplineSet
50 0 m 1
 0 0 l 1
 0 600 l 2
 0 700 0 800 100 800 c 0
 200 800 250 750 250 600 c 0
 250 450 125 300 50 300 c 1
 50 250 l 1
 150 250 350 400 350 500 c 1
 400 500 l 1
 400 421.784721189 311.906130312 323.993026892 215.339480295 261.747209743 c 1
 329.429929499 212.133647379 407.650102734 49.9999999998 450 50 c 1
 450 0 l 1
 375.062465756 0 275.166558007 225.623696483 150.312276754 225.999529944 c 1
 114.168132958 209.6354902 79.3310692788 200 50 200 c 1
 50 0 l 1
50 350 m 1
 100 350 200 500 200 600 c 0
 200 700 175 750 100 750 c 0
 50 750 50 675 50 600 c 2
 50 350 l 1
EndSplineSet
EndChar

StartChar: e.n.l
Encoding: 51 57445 51
Width: 400
VWidth: 0
Flags: W
HStem: 0 50<130.227 400> 450 50<124.835 259.541>
VStem: 0 50<169.286 359.546> 300 50<300.677 408.16>
LayerCount: 2
Fore
SplineSet
64.4510259553 151.675225619 m 1
 85.8557220651 97.5565904769 131.038713413 50 200 50 c 2
 400 50 l 1
 400 0 l 1
 200 0 l 2
 75 0 0 100 0 225 c 0
 0 375 50 500 200 500 c 0
 300 500 350 400 350 350 c 0
 350 235.838209407 204.031358369 163.381744995 64.4510259553 151.675225619 c 1
51.6025492224 201.080355933 m 1
 170.297838499 210.517656225 300 280.258828112 300 350 c 0
 300 375 275 450 200 450 c 0
 75 450 50 325 50 225 c 0
 50 217.247865078 50.5341830741 209.22863862 51.6025492224 201.080355933 c 1
EndSplineSet
EndChar

StartChar: u.n.l
Encoding: 52 57461 52
Width: 450
VWidth: 0
Flags: W
HStem: 0 50<173.016 327.487 425.964 450> 350 50<0 77.2916> 480 20G<100 150 350 400>
VStem: 100 50<74.1577 376.795 421.875 500> 350 50<78.7529 500>
LayerCount: 2
Fore
SplineSet
350 500 m 1
 400 500 l 1
 400 150 l 2
 400 125 425 50 450 50 c 1
 450 0 l 1
 422.775206591 0 395.550413182 22.2356812849 376.39711083 54.5998072689 c 1
 352.46467631 18.1999357563 310.332306033 3.5527136788e-15 250 0 c 0
 150 0 100 50 100 150 c 2
 100 376.794919243 l 1
 75.5983064144 358.931639748 42.264973081 350 0 350 c 1
 0 400 l 1
 75 400 100 425 100 500 c 1
 150 500 l 1
 150 150 l 2
 150 75 175 50 250 50 c 0
 325 50 350 75 350 150 c 2
 350 500 l 1
EndSplineSet
EndChar

StartChar: p.l.n
Encoding: 53 57456 53
Width: 350
VWidth: 0
Flags: W
HStem: -200 21G<0 50> -150 50<-50 0 50 100> 6.40942 51.0933<50 106.683> 450 50<92.257 201.281> 530 20G<0 50>
VStem: 0 50<-200 -150 -100 11.7433 57.5027 407.585 456.175 550> 250 50<176.468 386.091>
LayerCount: 2
Fore
SplineSet
100 -100 m 1
 100 -150 l 1
 50 -150 l 1
 50 -200 l 1
 0 -200 l 1
 0 -150 l 1
 -50 -150 l 1
 -50 -100 l 1
 0 -100 l 1
 -0 116.666666667 0 333.333333333 0 550 c 1
 50 550 l 1
 50 456.174665976 l 1
 77.7447044233 482.59724087 113.872352212 500 150 500 c 0
 250 500 300 425 300 250 c 0
 300 122.200543612 154.820435083 30.6959784526 50 6.40942031448 c 1
 50 -100 l 1
 100 -100 l 1
50 350 m 2
 50 57.5027106394 l 1
 133.620315017 79.3784045901 250 148.063533012 250 250 c 0
 250 400 200 450 150 450 c 0
 100 450 50 400 50 350 c 2
EndSplineSet
EndChar

StartChar: m.n.l
Encoding: 54 57453 54
Width: 700
VWidth: 0
Flags: W
HStem: 0 50<661.093 700> 400 50<299.029 378.675> 450 50<498.852 588.033> 500 50<85.4896 161.422>
VStem: 0 50<350 457.227> 200 50<0 336.653> 400 50<0 378.596> 600 50<60.7018 439.291>
LayerCount: 2
Fore
SplineSet
248.527802288 390.026438989 m 1xdf
 281.119824856 435.314620581 322.902602137 450 350 450 c 0xdf
 387.231780587 450 412.141734634 431.517260191 427.788285757 403.727051416 c 1
 461.122785581 477.782447418 516.670169081 500 550 500 c 0
 650 500 650 425 650 350 c 2
 650 100 l 2
 650 75 675 50 700 50 c 1
 700 0 l 1
 650 0 600 25 600 100 c 2
 600 350 l 2
 600 400 600 450 550 450 c 0xaf
 500 450 450 400 450 250 c 2
 450 0 l 1
 400 0 l 5
 400 300 l 6
 400 350 375 400 350 400 c 0
 300 400 250 350 250 200 c 2
 250 0 l 1
 200 0 l 1
 200 350 l 2
 200 400 175 500 125 500 c 0
 75 500 50 425 50 350 c 1
 0 350 l 1
 0 450 25 550 125 550 c 0
 211.577240846 550 241.937341948 475.043813676 248.527802288 390.026438989 c 1xdf
EndSplineSet
EndChar

StartChar: n.n.l
Encoding: 55 57454 55
Width: 500
VWidth: 0
Flags: W
HStem: 0 50<461.093 500> 450 50<298.322 388.033> 500 50<85.4896 161.38>
VStem: 0 50<350 457.227> 200 50<0 386.653> 400 50<60.7018 439.291>
CounterMasks: 1 1c
LayerCount: 2
Fore
SplineSet
350 500 m 0xdc
 450 500 450 425 450 350 c 2
 450 100 l 2
 450 75 475 50 500 50 c 1
 500 0 l 1
 450 0 400 25 400 100 c 2
 400 350 l 2
 400 400 400 450 350 450 c 0xdc
 300 450 250 400 250 250 c 2
 250 0 l 1
 200 0 l 1
 200 350 l 2
 200 400 175 500 125 500 c 0
 75 500 50 425 50 350 c 1
 0 350 l 1
 0 450 25 550 125 550 c 0xbc
 196.962359794 550 230.085360385 498.214187729 243.002148046 431.908855735 c 1
 276.266947361 483.577501768 321.344722797 500 350 500 c 0xdc
EndSplineSet
EndChar

StartChar: d.l.n
Encoding: 56 57700 56
Width: 350
VWidth: 0
Flags: W
HStem: 0 50<50 177.378> 450 50<60.8975 168.524>
VStem: 0 50<50 439.298> 250 50<134.993 354.179>
LayerCount: 2
Fore
SplineSet
50 50 m 1
 100 50 l 2
 175 50 250 100 250 250 c 0
 250 375 175 450 100 450 c 0
 75 450 50 425 50 400 c 2
 50 50 l 1
0 0 m 1
 0 400 l 2
 0 475 50 500 100 500 c 0
 200 500 300 400 300 250 c 0
 300 75 200 0 100 0 c 2
 0 0 l 1
EndSplineSet
EndChar

StartChar: q.n.l
Encoding: 57 57457 57
Width: 350
VWidth: 0
Flags: W
HStem: -200 21G<250 300> -150 50<200 250 300 350> 5.79881 50.7077<300 350> 450 50<98.7189 207.743> 530 20G<250 300>
VStem: 0 50<186.074 385.529> 250 50<-200 -150 -100 5.79881 70.272 407.585 456.175 550>
LayerCount: 2
Fore
SplineSet
250 550 m 1
 300 550 l 1
 300 385.502167304 300 221.004334608 300 56.5065019127 c 1
 319.823273573 52.2110147222 337.122651509 50 350 50 c 1
 350 0 l 1
 335.931060896 0 318.893096078 1.97935047526 300 5.79881461926 c 1
 300 -100 l 1
 350 -100 l 1
 350 -150 l 1
 300 -150 l 1
 300 -200 l 1
 250 -200 l 1
 250 -150 l 1
 200 -150 l 1
 200 -100 l 1
 250 -100 l 1
 250 18.9556890441 l 1
 138.038725233 54.686366341 -2.84217094304e-14 138.539310647 0 250 c 0
 0 425 50 500 150 500 c 0
 186.127647788 500 222.255295577 482.59724087 250 456.174665976 c 1
 250 550 l 1
250 70.2719741924 m 1
 250 350 l 2
 250 400 200 450 150 450 c 0
 100 450 50 400 50 250 c 0
 50 163.173584737 158.55909998 100.471413913 250 70.2719741924 c 1
EndSplineSet
EndChar

StartChar: d.n.l
Encoding: 58 57444 58
Width: 450
VWidth: 0
Flags: W
HStem: 0 50<93.6684 215.263 418.381 450> 250 50<113.588 240.905> 600 50<96.875 258.255> 780 20G<300 350>
VStem: 0 50<93.6684 196.263 691.553 750> 300 50<233.553 646.04 696.875 800>
LayerCount: 2
Fore
SplineSet
287.927832432 167.550794445 m 1
 257.671326377 213.04464571 228.835663189 250 200 250 c 0
 125 250 50 200 50 150 c 0
 50 100 100 50 150 50 c 0
 189.391502302 50 259.816813675 81.0338090718 287.927832432 167.550794445 c 1
299.583206192 233.489002467 m 1
 299.858404674 238.852849023 300 244.355626849 300 250 c 2
 300 646.039928216 l 1
 275.598306414 617.863279495 242.264973081 600 200 600 c 0
 100 600 0 650 0 750 c 1
 50 750 l 1
 50 675 125 650 200 650 c 0
 275 650 300 725 300 800 c 1
 350 800 l 1
 350 250 l 2
 350 222.435537117 347.625626206 197.720322786 343.335016986 175.592563655 c 1
 387.262848901 112.89566799 424.92099125 50 450 50 c 1
 450 0 l 1
 403.205958965 0 361.886123621 54.7420569099 323.47889191 112.994129582 c 1
 282.665338472 25.5141645882 203.575586942 3.5527136788e-15 150 0 c 0
 75 0 0 75 0 150 c 0
 0 225 100 300 200 300 c 0
 233.840280227 300 267.680560455 271.370885853 299.583206192 233.489002467 c 1
EndSplineSet
EndChar

StartChar: d.l.l
Encoding: 59 57956 59
Width: 350
VWidth: 0
Flags: W
HStem: 0 50<50 177.378 228.22 350> 450 50<60.8975 168.524>
VStem: 0 50<50 439.298> 250 50<132.799 354.179>
LayerCount: 2
Fore
SplineSet
50 50 m 1
 66.6666666667 50 83.3333333333 50 100 50 c 0
 175 50 250 100 250 250 c 0
 250 375 175 450 100 450 c 0
 75 450 50 425 50 400 c 2
 50 50 l 1
0 0 m 1
 0 400 l 2
 0 475 50 500 100 500 c 0
 200 500 300 400 300 250 c 0
 300 155.465914108 270.818960341 90.1128678741 228.220326221 50 c 1
 350 50 l 1
 350 0 l 1
 0 0 l 1
EndSplineSet
EndChar

StartChar: e.l.n
Encoding: 60 57701 60
Width: 400
VWidth: 0
Flags: W
HStem: -100 50<127.401 271.894> -20 20G<300 350> 350 50<124.835 259.541>
VStem: 0 50<59.6488 258.044> 300 50<-23.2468 0 197.631 308.16>
LayerCount: 2
Fore
SplineSet
28.9212808629 1.4608971697 m 1
 19.1237222239 0.497425335633 9.46237604484 -8.21565038223e-15 0 0 c 1
 0 50 l 1
 3.19966928727 50 6.4320998019 50.0819030684 9.69351784142 50.2427741028 c 1
 3.30837835781 73.595822148 -8.90324258762e-10 98.7465146807 0 125 c 0
 0 275 50 400 200 400 c 0
 300 400 350 300 350 250 c 0
 350 147.860021914 216.463038419 45.7200438272 85.7837385537 11.7773773887 c 1
 110.770338776 -23.8290261477 148.842425925 -50 200 -50 c 0
 225 -50 300 -25 300 0 c 1
 350 0 l 1
 350 -50 250 -100 200 -100 c 0
 120.755559106 -100 61.6060987317 -59.8100389589 28.9212808629 1.4608971697 c 1
61.8517596775 58.6049913489 m 1
 175.745648583 88.1042969387 300 186.8027701 300 250 c 0
 300 275 275 350 200 350 c 0
 75 350 50 225 50 125 c 0
 50 103.918230911 53.9505865592 80.8611685432 61.8517596775 58.6049913489 c 1
EndSplineSet
EndChar

StartChar: e.l.l
Encoding: 61 57957 61
Width: 400
VWidth: 0
Flags: W
HStem: 0 50<0 99.7198 252.317 400> 450 50<120.883 247.292>
VStem: 0 50<217.585 380.867> 300 50<222.529 386.412>
LayerCount: 2
Fore
SplineSet
174.623722461 54.1563628499 m 1
 118.030315339 20.5960789548 55.5824778435 1.06581410364e-14 0 0 c 1
 0 50 l 1
 40.0433245466 50 85.2177461836 62.827742726 128.126482212 84.3739044564 c 1
 56.2507733297 137.498968898 7.1054273576e-15 212.499398523 0 300 c 0
 0 450 100 500 200 500 c 0
 300 500 350 400 350 300 c 0
 350 221.051799085 294.597169532 142.103598171 220.241123521 85.0251662112 c 1
 267.160927552 62.4030745127 314.782001033 50 350 50 c 2
 400 50 l 1
 400 0 l 1
 350 0 l 2
 300.496275646 0 235.308591453 19.6049497993 174.623722461 54.1563628499 c 1
173.731244396 111.17349161 m 1
 244.524114905 159.241994525 300 229.620997262 300 300 c 0
 300 375 250 450 200 450 c 0
 125 450 50 400 50 300 c 0
 50 220.557023956 106.099435047 155.138906673 173.731244396 111.17349161 c 1
EndSplineSet
EndChar

StartChar: t
Encoding: 62 116 62
Width: 300
VWidth: 0
Flags: W
HStem: 0 50<56.9736 177.987> 450 50<50 250> 780 20G<0 50>
VStem: 0 50<55.7007 450 500 800> 200 50<72.2046 100>
LayerCount: 2
Fore
SplineSet
0 800 m 1
 50 800 l 1
 50 500 l 1
 250 500 l 1
 250 450 l 1
 50 450 l 1
 50 150 l 2
 50 75 50 50 100 50 c 0
 150 50 200 75 200 100 c 1
 250 100 l 1
 250 50 175 0 100 0 c 0
 25 0 0 50 0 150 c 2
 0 800 l 1
EndSplineSet
Substitution2: "'aalt' - low.low-1" t.l.l
Substitution2: "'aalt' - low.none-1" t.l.n
Substitution2: "'aalt' - none.low-1" t.n.l
EndChar

StartChar: t.n.l
Encoding: 63 57460 63
Width: 300
VWidth: 0
Flags: W
HStem: 0 50<57.6973 300> 450 50<50 250> 780 20G<0 50>
VStem: 0 50<55.7007 450 500 800>
LayerCount: 2
Fore
SplineSet
300 50 m 1
 300 0 l 1
 100 0 l 2
 25 0 0 50 0 150 c 2
 0 800 l 1
 50 800 l 1
 50 500 l 1
 250 500 l 1
 250 450 l 1
 50 450 l 1
 50 150 l 2
 50 75 50 50 100 50 c 2
 300 50 l 1
EndSplineSet
EndChar

StartChar: t.l.n
Encoding: 64 57716 64
Width: 350
VWidth: 0
Flags: W
HStem: 0 50<0 24.7658 106.639 227.987> 450 50<100 300> 780 20G<50 100>
VStem: 50 50<78.7529 450 500 800> 250 50<72.2046 100>
LayerCount: 2
Fore
SplineSet
50 800 m 1
 100 800 l 1
 100 500 l 1
 300 500 l 1
 300 450 l 1
 100 450 l 1
 100 150 l 2
 100 75 100 50 150 50 c 0
 200 50 250 75 250 100 c 1
 300 100 l 1
 300 50 225 0 150 0 c 0
 108.854462248 0 82.757415846 15.0484913504 67.5810056681 45.1454740511 c 1
 48.9679459738 17.9839479967 24.4839729869 0 0 0 c 1
 0 50 l 1
 25 50 50 125 50 150 c 2
 50 800 l 1
EndSplineSet
EndChar

StartChar: t.l.l
Encoding: 65 58228 65
Width: 350
VWidth: 0
Flags: W
HStem: 0 50<0 24.7658 107.028 350> 450 50<100 300> 780 20G<50 100>
VStem: 50 50<78.7529 450 500 800>
LayerCount: 2
Fore
SplineSet
350 50 m 1
 350 0 l 1
 150 0 l 2
 108.854462248 0 82.757415846 15.0484913504 67.5810056681 45.1454740511 c 1
 48.9679459738 17.9839479967 24.4839729869 0 0 0 c 1
 0 50 l 1
 25 50 50 125 50 150 c 2
 50 800 l 1
 100 800 l 1
 100 500 l 1
 300 500 l 1
 300 450 l 1
 100 450 l 1
 100 150 l 2
 100 75 100 50 150 50 c 2
 350 50 l 1
EndSplineSet
EndChar

StartChar: b
Encoding: 66 98 66
Width: 350
VWidth: 0
Flags: W
HStem: 0 50<60.466 149.651> 200 50<250.162 300> 300 50<50 88.1508> 750 50<66.0785 163.336>
VStem: 0 50<60.7095 300 350 737.109> 200 50<251.676 275 509.03 710.481>
LayerCount: 2
Fore
SplineSet
50 350 m 1
 100 350 200 500 200 600 c 0
 200 700 175 750 100 750 c 0
 50 750 50 675 50 600 c 2
 50 350 l 1
50 300 m 1
 50 150 l 2
 50 100 50 50 100 50 c 0
 175 50 200 150 200 275 c 1
 250 275 l 1
 250 250 275 250 300 250 c 1
 300 200 l 1
 281.10423749 200 262.208474979 204.048037398 246.011404068 204.048037398 c 1
 232.363831475 87.5572385754 183.693363453 -4.26325641456e-14 100 0 c 0
 25 0 0 75 0 150 c 2
 0 600 l 2
 0 700 0 800 100 800 c 0
 200 800 250 750 250 600 c 0
 250 450 125 300 50 300 c 1
EndSplineSet
EndChar

StartChar: x
Encoding: 67 120 67
Width: 600
VWidth: 0
Flags: W
HStem: 0 50<73.0164 208.064 341.936 476.984> 450 50<91.4957 212.804 337.196 458.504>
VStem: 0 50<74.1577 150 300 403.125> 250 50<100.156 407.193> 500 50<74.1577 150 300 403.125>
CounterMasks: 1 38
LayerCount: 2
Fore
SplineSet
275 85.1757951059 m 1
 253.639699198 34.4098804438 215.583801777 0 150 0 c 0
 50 0 0 50 0 150 c 1
 50 150 l 1
 50 75 75 50 150 50 c 0
 250 50 250 175 250 250 c 0
 250 350 250 450 150 450 c 0
 75 450 50 375 50 300 c 1
 0 300 l 1
 0 400 50 500 150 500 c 0
 215.583801777 500 253.639699198 472.472095645 275 424.637825425 c 1
 296.360300802 472.472095645 334.416198223 500 400 500 c 0
 500 500 550 400 550 300 c 1
 500 300 l 1
 500 375 475 450 400 450 c 0
 300 450 300 350 300 250 c 0
 300 175 300 50 400 50 c 0
 475 50 500 75 500 150 c 1
 550 150 l 1
 550 50 500 0 400 0 c 0
 334.416198223 0 296.360300802 34.4098804438 275 85.1757951059 c 1
EndSplineSet
Substitution2: "'aalt' - low.low-1" x.l.l
Substitution2: "'aalt' - low.none-1" x.l.n
Substitution2: "'aalt' - none.low-1" x.n.l
EndChar

StartChar: x.l.n
Encoding: 68 57720 68
Width: 600
VWidth: 0
Flags: W
HStem: 0 50<0 207.812 341.936 476.984> 450 50<91.4957 212.804 337.196 458.504>
VStem: 0 50<300 403.125> 250 50<100.156 407.193> 500 50<74.1577 150 300 403.125>
CounterMasks: 1 38
LayerCount: 2
Fore
SplineSet
275 424.637825425 m 1
 296.360300802 472.472095645 334.416198223 500 400 500 c 0
 500 500 550 400 550 300 c 1
 500 300 l 1
 500 375 475 450 400 450 c 0
 300 450 300 350 300 250 c 0
 300 175 300 50 400 50 c 0
 475 50 500 75 500 150 c 1
 550 150 l 1
 550 50 500 0 400 0 c 0
 334.416198223 0 296.360300802 34.4098804438 275 85.1757951059 c 1
 253.639699198 34.4098804438 215.583801777 0 150 0 c 2
 0 0 l 1
 0 50 l 1
 150 50 l 2
 250 50 250 175 250 250 c 0
 250 350 250 450 150 450 c 0
 75 450 50 375 50 300 c 1
 0 300 l 1
 0 400 50 500 150 500 c 0
 215.583801777 500 253.639699198 472.472095645 275 424.637825425 c 1
EndSplineSet
EndChar

StartChar: x.n.l
Encoding: 69 57464 69
Width: 600
VWidth: 0
Flags: W
HStem: 0 50<83.9412 208.064 342.188 600> 450 50<91.4957 212.804 337.196 458.504>
VStem: 0 50<86.4038 175 300 403.125> 250 50<100.156 407.193> 500 50<300 403.125>
CounterMasks: 1 38
LayerCount: 2
Fore
SplineSet
275 424.637825425 m 1
 296.360300802 472.472095645 334.416198223 500 400 500 c 0
 500 500 550 400 550 300 c 1
 500 300 l 1
 500 375 475 450 400 450 c 0
 300 450 300 350 300 250 c 0
 300 175 300 50 400 50 c 2
 600 50 l 1
 600 0 l 1
 400 0 l 2
 334.416198223 0 296.360300802 34.4098804438 275 85.1757951059 c 1
 253.639699198 34.4098804438 215.583801777 0 150 0 c 0
 50 0 0 75 0 175 c 1
 50 175 l 1
 50 100 75 50 150 50 c 0
 250 50 250 175 250 250 c 0
 250 350 250 450 150 450 c 0
 75 450 50 375 50 300 c 1
 0 300 l 1
 0 400 50 500 150 500 c 0
 215.583801777 500 253.639699198 472.472095645 275 424.637825425 c 1
EndSplineSet
EndChar

StartChar: x.l.l
Encoding: 70 57976 70
Width: 600
VWidth: 0
Flags: W
HStem: 0 50<0 207.812 342.188 600> 450 50<91.4957 212.804 337.196 458.504>
VStem: 0 50<300 403.125> 250 50<100.156 407.193> 500 50<300 403.125>
CounterMasks: 1 38
LayerCount: 2
Fore
SplineSet
275 424.637825425 m 1
 296.360300802 472.472095645 334.416198223 500 400 500 c 0
 500 500 550 400 550 300 c 1
 500 300 l 1
 500 375 475 450 400 450 c 0
 300 450 300 350 300 250 c 0
 300 175 300 50 400 50 c 2
 600 50 l 1
 600 0 l 1
 400 0 l 2
 334.416198223 0 296.360300802 34.4098804438 275 85.1757951059 c 1
 253.639699198 34.4098804438 215.583801777 0 150 0 c 2
 0 0 l 1
 0 50 l 1
 150 50 l 2
 250 50 250 175 250 250 c 0
 250 350 250 450 150 450 c 0
 75 450 50 375 50 300 c 1
 0 300 l 1
 0 400 50 500 150 500 c 0
 215.583801777 500 253.639699198 472.472095645 275 424.637825425 c 1
EndSplineSet
EndChar

StartChar: dotlessi
Encoding: 71 305 71
Width: 100
VWidth: 0
Flags: W
HStem: 0 300<0 50>
VStem: 0 50<0 300>
LayerCount: 2
Fore
SplineSet
0 0 m 1
 0 300 l 1
 50 300 l 1
 50 0 l 1
 0 0 l 1
EndSplineSet
Substitution2: "'aalt' - low.none-1" dotlessi.l.n
EndChar

StartChar: v
Encoding: 72 118 72
Width: 500
VWidth: 0
Flags: W
HStem: 0 50<183.024 284.615> 350 50<0 77.2916> 400 50<410.702 450> 480 20G<100 150 350 400>
VStem: 100 50<81.9763 376.795 421.875 500> 350 47.873<286.464 411.112 462.262 500>
LayerCount: 2
Fore
SplineSet
100 150 m 2xbc
 100 376.794919243 l 1
 75.5983064144 358.931639748 42.264973081 350 0 350 c 1
 0 400 l 1xdc
 75 400 100 425 100 500 c 1
 150 500 l 1
 150 150 l 2
 150 100 175 50 250 50 c 0
 325 50 350 275 350 500 c 1
 400 500 l 1
 400 475 425 450 450 450 c 1
 450 400 l 1
 431.823656484 400 413.647312969 403.303794636 397.873005702 411.112402032 c 1
 387.383037343 194.005167711 338.092035443 0 250 0 c 0
 150 0 100 75 100 150 c 2xbc
EndSplineSet
EndChar

StartChar: w
Encoding: 73 119 73
Width: 550
VWidth: 0
Flags: W
HStem: 0 50<160.371 239.148 311.238 371.604> 344 50<0 74.5067> 400 50<460.702 500> 480 20G<100 150 400 450>
VStem: 100 50<60.7095 373.104 418.875 500> 250 50<58.5938 350> 400 49.8257<286.464 410.174 460.702 500>
LayerCount: 2
Fore
SplineSet
100 150 m 2
 100 373.10432032 l 1
 75.5983064144 354.003436517 42.264973081 344 0 344 c 1
 0 394 l 1
 75 394 100 425 100 500 c 1
 150 500 l 1
 150 150 l 2
 150 100 150 50 200 50 c 0
 250 50 250 100 250 150 c 2
 250 350 l 1
 300 350 l 1
 300 150 l 2
 300 100 300 50 350 50 c 0
 400 50 400 275 400 500 c 1
 450 500 l 1
 450 475 475 450 500 450 c 1
 500 400 l 1
 482.56907492 400 465.13814984 403.038371491 449.825689793 410.174346991 c 1
 448.551622137 193.446658974 437.965142863 -2.84217094304e-14 350 0 c 0
 314.906666468 0 290.760373455 16.4205607787 275 41.5783194534 c 1
 259.239626545 16.4205607787 235.093333532 0 200 0 c 0
 125 0 100 75 100 150 c 2
EndSplineSet
EndChar

StartChar: D
Encoding: 74 68 74
Width: 525
VWidth: 0
Flags: W
HStem: 0 50<150 199.854> 650 50<56.7921 100 150 400.842> 780 20G<0 50>
VStem: 0 50<705.701 800> 100 50<50 650> 425 50<417.396 626.984>
LayerCount: 2
Fore
SplineSet
150 650 m 1
 150 50 l 1
 250 50 425 350 425 550 c 0
 425 625 400 650 325 650 c 2
 150 650 l 1
100 700 m 2
 325 700 l 2
 425 700 475 650 475 550 c 0
 475 325 275 0 150 0 c 2
 100 0 l 1
 100 650 l 1
 0 650 0 700 0 800 c 1
 50 800 l 1
 50 725 50 700 100 700 c 2
EndSplineSet
EndChar

StartChar: B
Encoding: 75 66 75
Width: 450
VWidth: 0
Flags: W
HStem: 0 50<150 184.538> 400 50<150 236.378> 650 50<56.7921 100 150 275.842> 780 20G<0 50>
VStem: 0 50<705.701 800> 100 50<50 400 450 650> 300 50<502.664 626.984> 350 50<232.258 368.208>
LayerCount: 2
Fore
SplineSet
100 0 m 1xfd
 100 650 l 1
 0 650 0 700 0 800 c 1
 50 800 l 1
 50 725 50 700 100 700 c 2
 200 700 l 2
 300 700 350 650 350 550 c 0xfe
 350 512.116706613 324.486330349 474.233413226 286.346215467 446.01553819 c 1
 347.455044389 432.373662538 400.000000018 383.701816467 400 300 c 0
 400 175 200 0 150 0 c 2
 100 0 l 1xfd
150 450 m 1
 225 450 300 500 300 550 c 0
 300 625 275 650 200 650 c 2
 150 650 l 1
 150 450 l 1
150 400 m 1
 150 50 l 1
 175 50 350 200 350 300 c 0xfd
 350 375 300 400 250 400 c 2
 150 400 l 1
EndSplineSet
EndChar

StartChar: G
Encoding: 76 71 76
Width: 450
VWidth: 0
Flags: W
HStem: 0 50<120.352 290.52> 350 50<200 271.179 323.995 400> 500 21G<350 400> 750 50<129.467 269.991>
VStem: 0 50<145.944 565.486> 350 50<110.018 271.473 500 643.213>
LayerCount: 2
Fore
SplineSet
0 350 m 0
 0 625 25 800 200 800 c 0
 375 800 400 625 400 500 c 1
 350 500 l 1
 350 600 325 750 200 750 c 0
 50 750 50 550 50 350 c 0
 50 150 75 50 200 50 c 0
 300 50 350 100 350 200 c 0
 350 275 275 350 200 350 c 1
 200 400 l 1
 400 400 l 1
 400 350 l 1
 323.995155788 350 l 1
 368.877582096 311.574939666 400 255.787469833 400 200 c 0
 400 75 350 0 200 0 c 0
 50 0 0 75 0 350 c 0
EndSplineSet
EndChar

StartChar: J
Encoding: 77 74 77
Width: 550
VWidth: 0
Flags: W
HStem: -200 50<167.366 300> 150 50<156.546 402.888> 600 50<62.178 450> 750 50<68.0945 200>
VStem: 0 50<-63.8008 68.5981 665.562 730.395> 450 50<50 108.561 153.316 600>
LayerCount: 2
Fore
SplineSet
450 153.316373144 m 1
 450 600 l 1
 150 600 l 2
 100 600 0 600 0 700 c 0
 0 800 125 800 200 800 c 1
 200 750 l 1
 150 750 50 750 50 700 c 0
 50 650 125 650 150 650 c 0
 266.666666667 650 383.333333333 650 500 650 c 1
 500 450 500 250 500 50 c 1
 450 50 l 1
 450 125 375 150 300 150 c 0
 200 150 50 125 50 0 c 0
 50 -125 225 -150 300 -150 c 1
 300 -200 l 1
 200 -200 0 -150 0 0 c 0
 0 150 175 200 300 200 c 0
 355.787469833 200 411.574939666 184.438791048 450 153.316373144 c 1
EndSplineSet
EndChar

StartChar: P
Encoding: 78 80 78
Width: 400
VWidth: 0
Flags: W
HStem: 0 21G<100 150> 400 50<150 236.378> 650 50<56.7921 100 150 275.842> 780 20G<0 50>
VStem: 0 50<705.701 800> 100 50<0 400 450 650> 300 50<503.737 626.984>
LayerCount: 2
Fore
SplineSet
150 0 m 1
 100 0 l 1
 100 650 l 1
 0 650 0 700 0 800 c 1
 50 800 l 1
 50 725 50 700 100 700 c 2
 200 700 l 2
 300 700 350 650 350 550 c 0
 350 475 250 400 150 400 c 1
 150 0 l 1
150 450 m 1
 225 450 300 500 300 550 c 0
 300 625 275 650 200 650 c 2
 150 650 l 1
 150 450 l 1
EndSplineSet
EndChar

StartChar: S
Encoding: 79 83 79
Width: 400
VWidth: 0
Flags: W
HStem: -200 50<119.192 261.565> 350 50<256.874 350> 750 50<97.309 219.996>
VStem: 0 50<-77.8133 114.363 525.729 697.286> 300 50<-105.394 145.629 600 672.51 725.739 800>
LayerCount: 2
Fore
SplineSet
350 400 m 1
 350 350 l 1
 309.331534319 350 268.663068639 337.136145883 230.984049871 314.896125712 c 1
 294.348513731 234.541039612 350 146.908143662 350 50 c 0
 350 -75 325 -200 200 -200 c 0
 75 -200 0 -100 0 0 c 0
 0 123.520435311 66.7506784854 247.040870623 159.026671137 323.446603855 c 1
 81.1418565511 417.975483084 1.42108547152e-14 508.987741542 0 600 c 0
 0 725 75 800 150 800 c 0
 194.585076541 800 256.839744639 773.495612664 300 725.738838607 c 1
 300 800 l 1
 350 800 l 1
 350 600 l 1
 300 600 l 1
 300 700 200 750 150 750 c 0
 100 750 50 700 50 600 c 0
 50 525.006329878 124.987340777 443.763714692 199.981010365 353.147945609 c 1
 247.015254332 382.68431373 298.507627166 400 350 400 c 1
189.569889342 285.738827007 m 1
 108.792485023 219.120658015 50 109.560329007 50 0 c 0
 50 -75 100 -150 200 -150 c 0
 300 -150 300 -50 300 50 c 0
 300 132.226220323 249.291365185 210.226721078 189.569889342 285.738827007 c 1
EndSplineSet
EndChar

StartChar: T
Encoding: 80 84 80
Width: 400
VWidth: 0
Flags: W
HStem: 0 21G<150 200> 750 50<0 150 200 350>
VStem: 150 50<0 750>
LayerCount: 2
Fore
SplineSet
150 0 m 1
 150 750 l 1
 0 750 l 1
 0 800 l 1
 350 800 l 1
 350 750 l 1
 200 750 l 1
 200 0 l 1
 150 0 l 1
EndSplineSet
EndChar

StartChar: A
Encoding: 81 65 81
Width: 350
VWidth: 0
Flags: W
HStem: 0 21G<0 50 250 300> 350 50<86.6365 213.363> 750 50<141.65 158.35>
VStem: 0 50<0 203.813> 250 50<0 203.813>
LayerCount: 2
Fore
SplineSet
0 0 m 1
 0 150 75 800 150 800 c 0
 225 800 300 150 300 0 c 1
 250 0 l 1
 250 63.0951615324 236.730001971 205.810311241 219.49303557 350 c 1
 80.5069644302 350 l 1
 63.2699980293 205.810311241 50 63.0951615324 50 0 c 1
 0 0 l 1
213.36347598 400 m 1
 190.615570512 581.024107577 163.267123072 750 150 750 c 0
 136.732876928 750 109.384429488 581.024107577 86.6365240198 400 c 1
 213.36347598 400 l 1
EndSplineSet
EndChar

StartChar: V
Encoding: 82 86 82
Width: 350
VWidth: 0
Flags: W
HStem: 0 50<141.569 158.431> 780 20G<0 50 250 300>
VStem: 0 50<596.187 800> 250 50<596.187 800>
LayerCount: 2
Fore
SplineSet
300 800 m 1
 300 650 225 0 150 0 c 0
 75 0 0 650 0 800 c 1
 50 800 l 1
 50 650 125 50 150 50 c 0
 175 50 250 650 250 800 c 1
 300 800 l 1
EndSplineSet
EndChar

StartChar: W
Encoding: 83 87 83
Width: 550
VWidth: 0
Flags: W
HStem: 0 50<141.569 165.306 335.063 357.029> 650 50<210.898 289.102> 780 20G<0 50 450 500>
VStem: 0 50<596.187 800> 150 50<445.217 639.102> 300 50<445.217 639.102> 450 50<596.187 800>
LayerCount: 2
Fore
SplineSet
500 800 m 1
 500 650 425 0 350 0 c 0
 320.802684475 0 284.027740204 68.1986587109 250 160.346692648 c 1
 215.972259796 68.1986587109 179.197315525 1.42108547152e-14 150 0 c 0
 75 0 0 650 0 800 c 1
 50 800 l 1
 50 650 125 50 150 50 c 0
 161.308745649 50 193.079527805 131.848146024 224.486349498 235.38044683 c 1
 182.596913247 368.568917555 150 523.400754674 150 600 c 0
 150 650 200 700 250 700 c 0
 300 700 350 650 350 600 c 0
 350 523.400754674 317.403086753 368.568917555 275.513650502 235.38044683 c 1
 306.920472195 131.848146024 338.691254351 50 350 50 c 0
 375 50 450 650 450 800 c 1
 500 800 l 1
250 324.907441676 m 1
 277.670900631 428.546882018 300 536.602540378 300 600 c 0
 300 625 275 650 250 650 c 0
 225 650 200 625 200 600 c 0
 200 536.602540378 222.329099369 428.546882018 250 324.907441676 c 1
EndSplineSet
EndChar

StartChar: K
Encoding: 84 75 84
Width: 400
VWidth: 0
Flags: W
HStem: 0 21G<0 50 300 350> 780 20G<0 50 300 350>
VStem: 0 50<0 374.985 435.618 800> 300 50<0 96.5501 725.209 800>
LayerCount: 2
Fore
SplineSet
50 300 m 2
 50 0 l 1
 0 0 l 5
 0 800 l 5
 50 800 l 1
 50 435.61813313 l 1
 135.341945294 564.023199864 300 688.872352212 300 800 c 1
 350 800 l 1
 350 692.931495057 237.702875912 585.862990115 150.519886426 484.519954801 c 1
 161.716045891 317.50067148 350.000000573 194.053576996 350 0 c 1
 300 0 l 1
 300 154.256693513 144.603249022 269.664199281 107.763906935 431.833192264 c 1
 73.6937853047 386.284241872 50 342.154879882 50 300 c 2
EndSplineSet
EndChar

StartChar: H
Encoding: 85 72 85
Width: 350
VWidth: 0
Flags: W
HStem: 0 21G<50 100 250 300> 350 50<0 50 100 250> 780 20G<50 100 250 300>
VStem: 50 50<0 350 400 800> 250 50<0 350 400 800>
LayerCount: 2
Fore
SplineSet
250 800 m 1
 300 800 l 1
 300 0 l 1
 250 0 l 1
 250 350 l 1
 100 350 l 1
 100 0 l 1
 50 0 l 1
 50 350 l 1
 0 350 l 1
 0 400 l 1
 50 400 l 1
 50 800 l 1
 100 800 l 1
 100 400 l 1
 250 400 l 1
 250 800 l 1
EndSplineSet
EndChar

StartChar: L
Encoding: 86 76 86
Width: 500
VWidth: 0
Flags: W
HStem: 0 50<50 362.854> 200 50<254.651 300> 350 50<254.268 361.525> 550 21G<300 350> 750 50<118.573 261.565>
VStem: 0 50<50 672.876> 200 50<254.268 345.526> 300 50<550 703.595> 400 50<87.1124 308.161>
LayerCount: 2
Fore
SplineSet
300 550 m 1
 300 650 300 750 200 750 c 0
 75 750 50 650 50 550 c 2
 50 50 l 1
 250 50 l 2
 375 50 400 75 400 200 c 0
 400 325 350 350 300 350 c 0
 250 350 250 325 250 300 c 0
 250 250 275 250 300 250 c 1
 300 200 l 1
 250 200 200 225 200 300 c 0
 200 350 225 400 300 400 c 0
 375 400 450 350 450 200 c 0
 450 50 400 0 250 0 c 2
 0 0 l 1
 0 550 l 2
 0 675 50 800 200 800 c 0
 325 800 350 675 350 550 c 1
 300 550 l 1
EndSplineSet
EndChar

StartChar: Q
Encoding: 87 81 87
Width: 400
VWidth: 0
Flags: W
HStem: -200 50<326.468 430.128> -150 50<50 150 200 298.264> 1.52212 50.3956<103.638 150 200 246.362> 750 50<107.163 242.837>
VStem: 0 50<189.903 614.216> 150 50<-100 4.67292 51.9177 250> 300 50<189.903 614.216> 450 50<-129.102 -50>
LayerCount: 2
Fore
SplineSet
150 250 m 1x3f
 200 250 l 1
 200 51.9176702661 l 1
 300 68.4343925761 300 191.128502487 300 400 c 0
 300 625 300 750 175 750 c 0
 50 750 50 625 50 400 c 0
 50 191.128502487 50 68.4343925761 150 51.9176702661 c 9
 150 250 l 1x3f
150 1.5221157916 m 1
 22.1676869209 17.8450164318 2.48689957516e-14 164.587134374 0 400 c 0
 0 650 25 800 175 800 c 0
 325 800 350 650 350 400 c 0
 350 164.587134374 327.832313079 17.8450164318 200 1.5221157916 c 1
 200 -100 l 1
 250 -100 l 2x7f
 325 -100 325 -150 375 -150 c 0
 425 -150 450 -125 450 -50 c 1
 500 -50 l 1
 500 -150 450 -200 375 -200 c 0xbf
 300 -200 300 -150 250 -150 c 2
 50 -150 l 1
 50 -100 l 1
 150 -100 l 1x7f
 150 1.5221157916 l 1
EndSplineSet
EndChar

StartChar: X
Encoding: 88 88 88
Width: 550
VWidth: 0
Flags: W
HStem: 0 21G<100 150 350 400> 750 50<0 66.0457 433.954 500>
VStem: 100 50<0 110.685> 350 50<0 110.685>
LayerCount: 2
Fore
SplineSet
250 463.478452761 m 1
 327.320854814 641.797816344 412.999224892 800 450 800 c 2
 500 800 l 1
 500 750 l 1
 450 750 l 2
 436.71458505 750 352.828269939 580.557839615 277.129884045 399.2511776 c 1
 344.806874559 234.750559372 400 67.1997111036 400 0 c 1
 350 0 l 1
 350 60.5871484235 305.13463545 194.590347929 250 332.817411216 c 1
 194.86536455 194.590347929 150 60.5871484235 150 0 c 1
 100 0 l 1
 100 67.1997111036 155.193125441 234.750559372 222.870115955 399.2511776 c 1
 147.171730061 580.557839615 63.2854149503 750 50 750 c 2
 0 750 l 1
 0 800 l 1
 50 800 l 2
 87.0007751076 800 172.679145186 641.797816344 250 463.478452761 c 1
EndSplineSet
EndChar

StartChar: Z
Encoding: 89 90 89
Width: 550
VWidth: 0
Flags: W
HStem: 0 50<50 382.15> 150 50<258.389 325> 300 50<262.576 400.157> 425 50<183.54 344.905> 600 50<58.3893 450> 750 50<62.6246 175>
VStem: 0 50<50 220.725 659.865 733.922> 200 50<209.969 285.304> 450 50<111.809 250.916 556 600>
LayerCount: 2
Fore
SplineSet
0 50 m 2
 0 275 100 475 250 475 c 0
 350 475 450 550 450 600 c 1
 125 600 l 2
 75 600 0 600 0 700 c 0
 0 800 100 800 175 800 c 1
 175 750 l 1
 125 750 50 750 50 700 c 0
 50 650 100 650 125 650 c 2
 500 650 l 1
 500 600 l 2
 500 525 400 425 250 425 c 0
 125 425 50 250 50 50 c 1
 300 50 l 2
 375 50 450 100 450 175 c 0
 450 275 375 300 325 300 c 0
 275 300 250 275 250 250 c 0
 250 200 300 200 325 200 c 1
 325 150 l 1
 275 150 200 175 200 250 c 0
 200 300 250 350 325 350 c 0
 400 350 500 300 500 175 c 0
 500 75 400 0 300 0 c 2
 0 0 l 1
 0 50 l 2
EndSplineSet
EndChar

StartChar: zero
Encoding: 90 48 90
Width: 400
VWidth: 0
Flags: W
HStem: 0 50<107.163 242.837> 750 50<107.163 242.837>
VStem: 0 50<185.784 614.216> 300 50<185.784 614.216>
LayerCount: 2
Fore
SplineSet
175 0 m 0
 25 0 0 150 0 400 c 0
 0 650 25 800 175 800 c 0
 325 800 350 650 350 400 c 0
 350 150 325 0 175 0 c 0
50 400 m 0
 50 175 50 50 175 50 c 0
 300 50 300 175 300 400 c 0
 300 625 300 750 175 750 c 0
 50 750 50 625 50 400 c 0
EndSplineSet
EndChar

StartChar: colon
Encoding: 91 58 91
Width: 300
VWidth: 0
Flags: W
HStem: 0 21G<98.4834 151.517>
VStem: 0 125<176.373 233.487 526.373 583.487> 125 125<176.373 233.487 526.373 583.487>
LayerCount: 2
Fore
SplineSet
125 175 m 1xa0
 125 225 150 250 200 250 c 0
 225 250 250 225 250 200 c 0
 250 150 178.033203125 53.033203125 125 0 c 1xa0
 71.966796875 53.033203125 0 150 0 200 c 0xc0
 0 225 25 250 50 250 c 0
 100 250 125 225 125 175 c 1xa0
125 525 m 1
 125 575 150 600 200 600 c 0
 225 600 250 575 250 550 c 0
 250 500 178.033203125 403.033203125 125 350 c 1xa0
 71.966796875 403.033203125 0 500 0 550 c 0xc0
 0 575 25 600 50 600 c 0
 100 600 125 575 125 525 c 1
EndSplineSet
EndChar

StartChar: semicolon
Encoding: 92 59 92
Width: 300
VWidth: 0
Flags: W
HStem: 50 125<176.373 233.487> 175 125<176.373 233.487>
VStem: 0 125<526.373 583.487> 125 125<526.373 583.487>
LayerCount: 2
Fore
SplineSet
175 175 m 1x50
 225 175 250 150 250 100 c 0
 250 75 225 50 200 50 c 0x90
 150 50 53.033203125 121.966796875 0 175 c 1x60
 53.033203125 228.033203125 150 300 200 300 c 0
 225 300 250 275 250 250 c 0
 250 200 225 175 175 175 c 1x50
125 525 m 1
 125 575 150 600 200 600 c 0
 225 600 250 575 250 550 c 0
 250 500 178.033203125 403.033203125 125 350 c 1x10
 71.966796875 403.033203125 0 500 0 550 c 0x20
 0 575 25 600 50 600 c 0
 100 600 125 575 125 525 c 1
EndSplineSet
EndChar

StartChar: hyphen
Encoding: 93 45 93
Width: 250
VWidth: 0
Flags: W
HStem: 250 50<0 200>
VStem: 0 200<250 300>
LayerCount: 2
Fore
SplineSet
0 300 m 1
 200 300 l 1
 200 250 l 1
 0 250 l 1
 0 300 l 1
EndSplineSet
EndChar

StartChar: question
Encoding: 94 63 94
Width: 300
VWidth: 0
Flags: W
HStem: 0 21G<98.4834 151.517> 525 21G<12.5 37.5> 750 50<76.3855 167.896>
VStem: 0 250<135.48 236.095> 0 50<550 720.646> 100 50<236.603 345.435> 200 50<462.36 712.02>
LayerCount: 2
Fore
SplineSet
200 550 m 0xee
 200 700 175 750 125 750 c 0
 75 750 50 725 50 550 c 1
 50 550 50 525 25 525 c 0
 0 525 0 550 0 550 c 1
 0 750 25 800 125 800 c 0
 225 800 250 750 250 550 c 0
 250 450 150 325 150 300 c 2
 150 236.602540378 l 1
 162.200846793 245.534180126 178.867513459 250 200 250 c 0xee
 225 250 250 225 250 200 c 0
 250 150 178.033203125 53.033203125 125 0 c 1
 71.966796875 53.033203125 0 150 0 200 c 0xf0
 0 225 25 250 50 250 c 0
 71.1324865405 250 87.7991532072 245.534180126 100 236.602540378 c 1
 100 300 l 2
 100 350 200 450 200 550 c 0xee
EndSplineSet
EndChar

StartChar: grave
Encoding: 95 96 95
Width: 250
VWidth: 0
Flags: W
LayerCount: 2
Fore
SplineSet
125 675 m 1
 107.5 692.5 98.75 711.75 98.75 731 c 0
 98.75 750.25 107.5 769.5 125 787 c 0
 134 796 148.25 800.5 162.5 800.5 c 0
 176.75 800.5 191 796 200 787 c 0
 235 752 250 625 250 550 c 1
 175 550 48 565 13 600 c 0
 4 609 -0.5 623.25 -0.5 637.5 c 0
 -0.5 651.75 4 666 13 675 c 0
 30.5 692.5 49.75 701.25 69 701.25 c 0
 88.25 701.25 107.5 692.5 125 675 c 1
EndSplineSet
EndChar

StartChar: ad
Encoding: 96 58896 96
Width: 600
VWidth: 0
Flags: W
HStem: 0 50<131.476 239.422 310.578 418.524> 450 50<131.476 239.422 310.702 418.024>
VStem: 0 50<145.821 354.179> 250 50<60.7018 439.298> 500 50<145.821 354.179>
CounterMasks: 1 38
LayerCount: 2
Fore
SplineSet
550 250 m 0
 550 100 450 0 350 0 c 0
 322.106265083 0 294.212530167 7.78060447596 275 27.6824158028 c 1
 255.787469833 7.78060447596 227.893734917 0 200 0 c 0
 100 0 0 100 0 250 c 0
 0 400 100 500 200 500 c 0
 227.893734917 500 255.787469833 492.219395524 275 472.317584197 c 1
 294.212530167 492.219395524 322.106265083 500 350 500 c 0
 450 500 550 400 550 250 c 0
300 100 m 2
 300 75 325 50 350 50 c 0
 425 50 500 125 500 250 c 0
 500 375 425 450 350 450 c 0
 325 450 300 425 300 400 c 2
 300 100 l 2
250 100 m 2
 250 400 l 2
 250 425 225 450 200 450 c 0
 125 450 50 375 50 250 c 0
 50 125 125 50 200 50 c 0
 225 50 250 75 250 100 c 2
EndSplineSet
LCarets2: 1 0
Ligature2: "'liga' - ligatures-1" a d
Substitution2: "'aalt' - low.low-1" ad.l.l
Substitution2: "'aalt' - none.low-1" ad.n.l
Substitution2: "'aalt' - low.none-1" ad.l.n
EndChar

StartChar: ad.l.n
Encoding: 97 59408 97
Width: 600
VWidth: 0
Flags: W
HStem: 0 50<0 80.5541 131.976 239.298 310.578 418.524> 450 50<131.476 239.422 310.702 418.024>
VStem: 0 50<143.778 354.179> 250 50<60.7018 439.298> 500 50<145.821 354.179>
CounterMasks: 1 38
LayerCount: 2
Fore
SplineSet
550 250 m 0
 550 100 450 0 350 0 c 0
 322.106265083 0 294.212530167 7.78060447596 275 27.6824158028 c 1
 255.787469833 7.78060447596 227.893734917 0 200 0 c 2
 0 0 l 1
 0 50 l 1
 80.5541191735 50 l 1
 33.2392299129 93.6591948551 7.1054273576e-15 163.519789949 0 250 c 0
 0 400 100 500 200 500 c 0
 227.893734917 500 255.787469833 492.219395524 275 472.317584197 c 1
 294.212530167 492.219395524 322.106265083 500 350 500 c 0
 450 500 550 400 550 250 c 0
300 100 m 2
 300 75 325 50 350 50 c 0
 425 50 500 125 500 250 c 0
 500 375 425 450 350 450 c 0
 325 450 300 425 300 400 c 2
 300 100 l 2
250 100 m 2
 250 400 l 2
 250 425 225 450 200 450 c 0
 125 450 50 375 50 250 c 0
 50 125 125 50 200 50 c 0
 225 50 250 75 250 100 c 2
EndSplineSet
EndChar

StartChar: ad.n.l
Encoding: 98 59152 98
Width: 600
VWidth: 0
Flags: W
HStem: 0 50<131.476 239.422 310.702 418.024 469.446 600> 450 50<131.476 239.422 310.702 418.024>
VStem: 0 50<145.821 354.179> 250 50<60.7018 439.298> 500 50<143.778 354.179>
CounterMasks: 1 38
LayerCount: 2
Fore
SplineSet
0 250 m 0
 0 400 100 500 200 500 c 0
 227.893734917 500 255.787469833 492.219395524 275 472.317584197 c 1
 294.212530167 492.219395524 322.106265083 500 350 500 c 0
 450 500 550 400 550 250 c 0
 550 163.519789949 516.760770087 93.6591948551 469.445880826 50 c 1
 600 50 l 1
 600 0 l 1
 350 0 l 2
 322.106265083 0 294.212530167 7.78060447596 275 27.6824158028 c 1
 255.787469833 7.78060447596 227.893734917 0 200 0 c 0
 100 0 0 100 0 250 c 0
300 100 m 2
 300 75 325 50 350 50 c 0
 425 50 500 125 500 250 c 0
 500 375 425 450 350 450 c 0
 325 450 300 425 300 400 c 2
 300 100 l 2
250 100 m 2
 250 400 l 2
 250 425 225 450 200 450 c 0
 125 450 50 375 50 250 c 0
 50 125 125 50 200 50 c 0
 225 50 250 75 250 100 c 2
EndSplineSet
EndChar

StartChar: ad.l.l
Encoding: 99 59664 99
Width: 600
VWidth: 0
Flags: W
HStem: 0 50<0 80.5541 131.976 239.298 310.702 418.024 469.446 600> 450 50<131.476 239.422 310.702 418.024>
VStem: 0 50<143.778 354.179> 250 50<60.7018 439.298> 500 50<143.778 354.179>
CounterMasks: 1 38
LayerCount: 2
Fore
SplineSet
0 250 m 0
 0 400 100 500 200 500 c 0
 227.893734917 500 255.787469833 492.219395524 275 472.317584197 c 1
 294.212530167 492.219395524 322.106265083 500 350 500 c 0
 450 500 550 400 550 250 c 0
 550 163.519789949 516.760770087 93.6591948551 469.445880826 50 c 1
 600 50 l 1
 600 0 l 1
 350 0 l 2
 322.106265083 0 294.212530167 7.78060447596 275 27.6824158028 c 1
 255.787469833 7.78060447596 227.893734917 0 200 0 c 2
 0 0 l 1
 0 50 l 1
 80.5541191735 50 l 1
 33.2392299129 93.6591948551 7.1054273576e-15 163.519789949 0 250 c 0
300 100 m 2
 300 75 325 50 350 50 c 0
 425 50 500 125 500 250 c 0
 500 375 425 450 350 450 c 0
 325 450 300 425 300 400 c 2
 300 100 l 2
250 100 m 2
 250 400 l 2
 250 425 225 450 200 450 c 0
 125 450 50 375 50 250 c 0
 50 125 125 50 200 50 c 0
 225 50 250 75 250 100 c 2
EndSplineSet
EndChar

StartChar: and
Encoding: 100 58897 100
Width: 950
VWidth: 0
Flags: W
HStem: 0 50<94.9219 215.49 660.898 768.524> 250 50<113.588 240.123> 450 50<135.412 251.474 660.709 768.524> 500 50<498.849 588.881> 505 20G<0 50>
VStem: 0 50<93.6684 196.263 300 362.779 423.995 525> 299.923 50.0766<243.026 384.932> 400 50<0 55.5872 112.432 435.379> 600 50<60.7018 438.907> 850 50<145.821 354.179>
LayerCount: 2
Fore
SplineSet
900 250 m 0xe7c0
 900 100 800 0 700 0 c 0
 650 0 600 25 600 100 c 0
 600 200 600 300 600 400 c 0
 600 450 600 500 550 500 c 0xd7c0
 500 500 450 450 450 300 c 2
 450 0 l 1
 400 0 l 1
 400 22.7968856433 368.818120298 76.7756509889 330.149352417 128.763307903 c 1
 291.87751627 28.5435358285 206.666990221 -3.5527136788e-15 150 0 c 0
 75 0 0 75 0 150 c 0
 0 225 100 300 200 300 c 0
 230.542944557 300 265.750246425 276.678213445 299.923377334 242.856328941 c 1
 299.974252539 245.211942882 300 247.59309771 300 250 c 0
 300 350 275 450 200 450 c 0
 125 450 50 356.09765625 50 300 c 1
 0 300 l 1
 0 525 l 1
 50 525 l 1
 50 423.995155788 l 1
 88.4250603337 468.877582096 144.212530167 500 200 500 c 0xefc0
 300 500 350 400 350 250 c 0
 350 228.557325479 348.563161592 208.838857048 345.905152383 190.721356073 c 1
 365.806625615 165.374820191 384.294599846 138.251482515 400 112.431761968 c 1
 400 300 l 2
 400 500 500 550 550 550 c 0xd7c0
 609.339524165 550 633.467257049 523.591156539 643.277708048 486.444351664 c 1
 660.061654961 496.012321489 680.030827481 500 700 500 c 0
 800 500 900 400 900 250 c 0xe7c0
650 100 m 0
 650 75 675 50 700 50 c 0
 775 50 850 125 850 250 c 0
 850 375 775 450 700 450 c 0xe7c0
 675 450 650 425 650 400 c 0
 650 300 650 200 650 100 c 0
290.937000189 177.625561482 m 1
 255.292873358 218.626834715 219.803145358 250 200 250 c 0
 125 250 50 200 50 150 c 0
 50 100 100 50 150 50 c 0
 190.884059016 50 265.198243664 83.4301256322 290.937000189 177.625561482 c 1
EndSplineSet
LCarets2: 2 0 0
Ligature2: "'liga' - ligatures-1" a n d
EndChar

StartChar: Fur
Encoding: 101 58898 101
Width: 850
VWidth: 0
Flags: W
HStem: -200 50<66.0785 133.922> 0 21G<500 550 750 800> 150 50<75.9035 150 200 300> 250 50<407.697 493.49> 450 50<200 343.657> 550 50<583.024 708.504> 780 20G<150 200>
VStem: 0 50<-136.368 124.06> 150 50<-135.627 150 200 450 500 800> 350 50<305.701 456.384 505.078 600> 500 50<0 260.77 305.078 518.024> 600 50<191.286 295.603> 750 50<0 31.7933 392.9 506.189>
LayerCount: 2
Fore
SplineSet
300 450 m 2
 200 450 l 1
 200 200 l 1
 300 200 l 1
 300 150 l 1
 200 150 l 1
 200 0 l 2
 200 -75 200 -200 100 -200 c 0
 0 -200 0 -75 0 0 c 0
 0 100 0 200 150 200 c 1
 150 800 l 1
 200 800 l 1
 200 500 l 1
 300 500 l 2
 350 500 350 525 350 600 c 1
 400 600 l 1
 400 400 l 2
 400 325 400 300 450 300 c 0
 500 300 500 325 500 400 c 2
 500 450 l 2
 500 525 550 600 650 600 c 0
 750 600 800 500 800 425 c 0
 800 350 650 325 650 250 c 0
 650 175 800 50 800 0 c 1
 750 0 l 1
 750 25 600 150 600 250 c 0
 600 350 750 375 750 425 c 0
 750 475 725 550 650 550 c 0
 575 550 550 500 550 450 c 0
 550 300 550 150 550 0 c 1
 500 0 l 1
 500 260.769515459 l 1
 486.602540378 253.589838486 470.096189432 250 450 250 c 0
 375 250 350 300 350 400 c 2
 350 456.383920947 l 1
 337.003947505 452.127973649 320.629947402 450 300 450 c 2
50 0 m 0
 50 -75 50 -150 100 -150 c 0
 150 -150 150 -75 150 0 c 2
 150 150 l 1
 50 150 50 100 50 0 c 0
EndSplineSet
LCarets2: 2 0 0
Ligature2: "'liga' - ligatures-1" F u r
Ligature2: "'liga' - ligatures-1" f u r
Substitution2: "'aalt' - none.low-1" Fur.n.l
EndChar

StartChar: Fur.n.l
Encoding: 102 59154 102
Width: 850
VWidth: 0
Flags: W
HStem: -200 50<66.0785 133.922> 0 50<799.078 850> 150 50<75.9035 150 200 300> 250 50<407.697 493.49> 450 50<200 343.657> 550 50<583.024 708.504> 780 20G<150 200>
VStem: 0 50<-136.368 124.06> 150 50<-135.627 150 200 450 500 800> 350 50<305.701 456.384 505.078 600> 500 50<0 260.77 305.078 518.024> 600 50<193.15 297.517> 750 50<393.37 506.189>
LayerCount: 2
Fore
SplineSet
300 450 m 2
 200 450 l 1
 200 200 l 1
 300 200 l 1
 300 150 l 1
 200 150 l 1
 200 0 l 2
 200 -75 200 -200 100 -200 c 0
 0 -200 0 -75 0 0 c 0
 0 100 0 200 150 200 c 1
 150 800 l 1
 200 800 l 1
 200 500 l 1
 300 500 l 2
 350 500 350 525 350 600 c 1
 400 600 l 1
 400 400 l 2
 400 325 400 300 450 300 c 0
 500 300 500 325 500 400 c 2
 500 450 l 2
 500 525 550 600 650 600 c 0
 750 600 800 500 800 425 c 0
 800 350 650 330 650 250 c 0
 650 175 800 50 850 50 c 1
 850 0 l 1
 775 0 600 150 600 250 c 0
 600 355 750 375 750 425 c 0
 750 475 725 550 650 550 c 0
 575 550 550 500 550 450 c 0
 550 300 550 150 550 0 c 1
 500 0 l 1
 500 260.769515459 l 1
 486.602540378 253.589838486 470.096189432 250 450 250 c 0
 375 250 350 300 350 400 c 2
 350 456.383920947 l 1
 337.003947505 452.127973649 320.629947402 450 300 450 c 2
50 0 m 0
 50 -75 50 -150 100 -150 c 0
 150 -150 150 -75 150 0 c 2
 150 150 l 1
 50 150 50 100 50 0 c 0
EndSplineSet
EndChar

StartChar: parenleft
Encoding: 103 40 103
Width: 250
VWidth: 0
Flags: W
HStem: -200 50<158.091 200> 750 50<158.091 200>
VStem: 0 50<83.7298 516.27>
LayerCount: 2
Fore
SplineSet
200 -200 m 1
 100 -200 0 0 0 300 c 0
 0 600 100 800 200 800 c 1
 200 750 l 1
 125 750 50 575 50 300 c 0
 50 25 125 -150 200 -150 c 1
 200 -200 l 1
EndSplineSet
EndChar

StartChar: parenright
Encoding: 104 41 104
Width: 250
VWidth: 0
Flags: W
HStem: -200 50<0 41.9094> 750 50<0 41.9094>
VStem: 150 50<83.7298 516.27>
LayerCount: 2
Fore
SplineSet
0 -200 m 1
 0 -150 l 1
 75 -150 150 25 150 300 c 0
 150 575 75 750 0 750 c 1
 0 800 l 1
 100 800 200 600 200 300 c 0
 200 0 100 -200 0 -200 c 1
EndSplineSet
EndChar

StartChar: bracketleft
Encoding: 105 91 105
Width: 200
VWidth: 0
Flags: W
HStem: -200 50<50 150> 750 50<50 150>
VStem: 0 150<-200 -150 750 800> 0 50<-150 750>
LayerCount: 2
Fore
SplineSet
150 800 m 1xe0
 150 750 l 1xe0
 50 750 l 1
 50 -150 l 1xd0
 150 -150 l 1
 150 -200 l 1
 0 -200 l 1
 0 800 l 1
 150 800 l 1xe0
EndSplineSet
EndChar

StartChar: bracketright
Encoding: 106 93 106
Width: 200
VWidth: 0
Flags: W
HStem: -200 50<0 100> 750 50<0 100>
VStem: 0 150<-200 -150 750 800> 100 50<-150 750>
LayerCount: 2
Fore
SplineSet
0 -200 m 1xe0
 0 -150 l 1xe0
 100 -150 l 1
 100 750 l 1xd0
 0 750 l 1
 0 800 l 1
 150 800 l 1
 150 -200 l 1
 0 -200 l 1xe0
EndSplineSet
EndChar

StartChar: underscore
Encoding: 107 95 107
Width: 300
VWidth: 0
Flags: W
HStem: -150 50<0 300>
VStem: 0 300<-150 -100>
LayerCount: 2
Fore
SplineSet
0 -100 m 1
 300 -100 l 1
 300 -150 l 1
 0 -150 l 1
 0 -100 l 1
EndSplineSet
EndChar

StartChar: bar
Encoding: 108 124 108
Width: 100
VWidth: 0
Flags: W
HStem: -200 21G<0 50> 780 20G<0 50>
VStem: 0 50<-200 800>
LayerCount: 2
Fore
SplineSet
50 800 m 1
 50 -200 l 1
 0 -200 l 1
 0 800 l 1
 50 800 l 1
EndSplineSet
EndChar

StartChar: less
Encoding: 109 60 109
Width: 400
VWidth: 0
Flags: W
HStem: 100 50<271.484 350> 450 50<271.484 350>
VStem: 0 50<276.962 323.038>
LayerCount: 2
Fore
SplineSet
350 150 m 1
 350 100 l 1
 250 100 0 250 0 300 c 0
 0 350 250 500 350 500 c 1
 350 450 l 1
 275 450 50 325 50 300 c 0
 50 275 275 150 350 150 c 1
EndSplineSet
EndChar

StartChar: greater
Encoding: 110 62 110
Width: 400
VWidth: 0
Flags: W
HStem: 100 50<0 78.5156> 450 50<0 78.5156>
VStem: 300 50<276.962 323.038>
LayerCount: 2
Fore
SplineSet
0 450 m 1
 0 500 l 1
 100 500 350 350 350 300 c 0
 350 250 100 100 0 100 c 1
 0 150 l 1
 75 150 300 275 300 300 c 0
 300 325 75 450 0 450 c 1
EndSplineSet
EndChar

StartChar: two
Encoding: 111 50 111
Width: 700
VWidth: 0
Flags: W
HStem: 0 50<93.6684 207.319 410.25 560.545> 250 50<113.588 240.019> 750 50<188.271 296.686>
VStem: 0 50<93.6684 196.263> 50 50<600 660.069 723.995 800> 350 50<267.91 612.949> 600 50<87.1307 150>
LayerCount: 2
Fore
SplineSet
50 800 m 1xee
 100 800 l 1
 100 723.995155788 l 1xee
 138.425060334 768.877582096 194.212530167 800 250 800 c 0
 375 800 400 600 400 400 c 0
 400 315.702630682 377.793604769 231.405261364 342.740517807 162.083417646 c 1
 380.174844928 104.17280312 415.087422464 50 450 50 c 0
 500 50 600 50 600 150 c 1
 650 150 l 1
 650 25 550 0 450 0 c 0
 401.296712387 0 358.523450335 59.3002556071 318.79209644 120.138418735 c 1
 272.279238178 47.8470786858 211.139619089 7.1054273576e-15 150 0 c 0
 75 0 0 75 0 150 c 0xf6
 0 225 100 300 200 300 c 0
 239.703763218 300 275.466554402 260.590279658 308.853087757 213.065123073 c 1
 334.188647276 272.80384853 350 340.354762446 350 400 c 0
 350 550 350 750 250 750 c 0
 175 750 100 650 100 600 c 1
 50 600 l 1
 50 800 l 1xee
287.33307366 168.444243336 m 1
 257.293324316 213.527499875 228.646662158 250 200 250 c 0
 125 250 50 200 50 150 c 0xf6
 50 100 100 50 150 50 c 0
 199.925847155 50 249.85169431 99.8518042831 287.33307366 168.444243336 c 1
EndSplineSet
EndChar

StartChar: one
Encoding: 112 49 112
Width: 250
VWidth: 0
Flags: W
HStem: 0 21G<150 200> 550 50<0 66.8269> 780 20G<150 200>
VStem: 150 50<0 634.686 693.986 800>
LayerCount: 2
Fore
SplineSet
200 0 m 1
 150 0 l 1
 150 634.686048962 l 1
 111.574939666 581.122417904 55.7874698332 550 0 550 c 1
 0 600 l 1
 75 600 150 675 150 800 c 1
 200 800 l 1
 200 0 l 1
EndSplineSet
EndChar

StartChar: at
Encoding: 113 64 113
Width: 600
VWidth: 0
Flags: W
HStem: 0 50<147.958 389.529> 200 50<210.709 369.104> 400 50<296.638 437.355> 550 50<259.829 413.639> 750 50<203.946 413.346>
VStem: 0 50<166.02 542.156> 150 50<260.371 335.794 450 500.162 553.316 600> 500 50<135.294 303.194 650 693.213>
LayerCount: 2
Fore
SplineSet
150 600 m 1
 200 600 l 1
 200 553.316373144 l 1
 238.425060334 584.438791048 294.212530167 600 350 600 c 0
 450 600 500 550 500 400 c 0
 500 395.009020197 499.861611781 390.128750969 499.591281836 385.357350485 c 0
 533.197093928 332.743946376 549.999999974 257.970520157 550 200 c 0
 550 100 450 0 250 0 c 0
 50 0 0 150 0 350 c 0
 0 575 75 800 300 800 c 0
 375 800 550 750 550 650 c 1
 500 650 l 1
 500 725 350 750 300 750 c 0
 100 750 50 550 50 350 c 0
 50 175 75 50 250 50 c 0
 425 50 500 125 500 200 c 0
 500 230.411181644 491.779200276 269.043163012 478.67099061 304.229079866 c 1
 439.721146121 227.824254247 355.948445937 200 300 200 c 0
 225 200 150 225 150 300 c 0
 150 375 300 450 400 450 c 0
 417.799023876 450 434.014021497 445.247921236 448.644992864 436.871528553 c 1
 442.5566629 512.290509518 415.133076691 550 350 550 c 0
 275 550 200 506.09765625 200 450 c 1
 150 450 l 1
 150 600 l 1
446.258871305 367.476339754 m 1
 431.923721933 387.260949724 415.961860967 400 400 400 c 0
 325 400 200 350 200 300 c 0
 200 250 250 250 300 250 c 0
 344.248604452 250 427.655988821 289.158779918 446.258871305 367.476339754 c 1
EndSplineSet
EndChar

StartChar: plus
Encoding: 114 43 114
Width: 300
VWidth: 0
Flags: W
HStem: 250 50<0 100 150 250>
VStem: 100 50<100 250 300 450>
LayerCount: 2
Fore
SplineSet
100 450 m 1
 150 450 l 1
 150 300 l 1
 250 300 l 1
 250 250 l 1
 150 250 l 1
 150 100 l 1
 100 100 l 1
 100 250 l 1
 0 250 l 1
 0 300 l 1
 100 300 l 1
 100 450 l 1
EndSplineSet
EndChar

StartChar: asterisk
Encoding: 115 42 115
Width: 350
VWidth: 0
Flags: W
HStem: 500 50<217.902 300> 550 50<0 82.0976>
VStem: 100 50<400 482.098> 150 50<617.902 700>
LayerCount: 2
Fore
SplineSet
43.93359375 443.93359375 m 1xa0
 8.5791015625 479.2890625 l 1
 43.93359375 514.64453125 l 2
 55.4882768557 526.199214356 68.7212884273 536.075568995 82.718458076 544.822097402 c 1
 70.9493216177 548.009204601 59.9769619592 550 50 550 c 2
 0 550 l 1
 0 600 l 1
 50 600 l 2
 66.3406550364 600 82.6813100729 597.626515493 98.7634031656 593.913794254 c 1
 92.694922754 604.48960891 86.343926169 613.656073831 79.2890625 620.7109375 c 2
 43.93359375 656.06640625 l 1
 79.2890625 691.420898438 l 1
 114.64453125 656.06640625 l 2
 126.199214356 644.511723144 136.075568995 631.278711573 144.822097402 617.281541924 c 1
 148.009204601 629.050678382 150 640.023038041 150 650 c 2
 150 700 l 1
 200 700 l 1
 200 650 l 2x50
 200 633.659344964 197.626515493 617.318689927 193.913794254 601.236596834 c 1
 204.48960891 607.305077246 213.656073831 613.656073831 220.7109375 620.7109375 c 2
 256.06640625 656.06640625 l 1
 291.420898438 620.7109375 l 1
 256.06640625 585.35546875 l 2
 244.511723144 573.800785644 231.278711573 563.924431005 217.281541924 555.177902598 c 1
 229.050678382 551.990795399 240.023038041 550 250 550 c 2
 300 550 l 1
 300 500 l 1
 250 500 l 2
 233.659344964 500 217.318689927 502.373484507 201.236596834 506.086205746 c 1
 207.305077246 495.51039109 213.656073831 486.343926169 220.7109375 479.2890625 c 2
 256.06640625 443.93359375 l 1
 220.7109375 408.579101562 l 1
 185.35546875 443.93359375 l 2
 173.800785644 455.488276856 163.924431005 468.721288427 155.177902598 482.718458076 c 1
 151.990795399 470.949321618 150 459.976961959 150 450 c 2
 150 400 l 1
 100 400 l 1
 100 450 l 2
 100 466.340655036 102.373484507 482.681310073 106.086205746 498.763403166 c 1
 95.5103910902 492.694922754 86.343926169 486.343926169 79.2890625 479.2890625 c 2
 43.93359375 443.93359375 l 1xa0
EndSplineSet
EndChar

StartChar: asciicircum
Encoding: 116 94 116
Width: 350
VWidth: 0
Flags: W
HStem: 600 50<120.186 179.814>
VStem: 0 50<450 512.891> 250 50<450 512.891>
LayerCount: 2
Fore
SplineSet
150 600 m 0
 125 600 50 500 50 450 c 1
 0 450 l 1
 0 525 100 650 150 650 c 0
 200 650 300 525 300 450 c 1
 250 450 l 1
 250 500 175 600 150 600 c 0
EndSplineSet
EndChar

StartChar: braceleft
Encoding: 117 123 117
Width: 250
VWidth: 0
Flags: W
HStem: -200 50<128.54 200> 750 50<128.54 200>
VStem: 0 200
LayerCount: 2
Fore
SplineSet
200 -150 m 1
 200 -200 l 1
 150 -200 l 2
 25 -200 75 300 0 300 c 1
 75 300 25 800 150 800 c 2
 200 800 l 1
 200 750 l 1
 150 750 l 2
 75 750 125 300 50 300 c 1
 125 300 75 -150 150 -150 c 2
 200 -150 l 1
EndSplineSet
EndChar

StartChar: braceright
Encoding: 118 125 118
Width: 250
VWidth: 0
Flags: W
HStem: -200 50<0 71.46> 750 50<0 71.46>
VStem: 0 200
LayerCount: 2
Fore
SplineSet
0 750 m 1
 0 800 l 1
 50 800 l 2
 175 800 125 300 200 300 c 1
 125 300 175 -200 50 -200 c 2
 0 -200 l 1
 0 -150 l 1
 50 -150 l 2
 125 -150 75 300 150 300 c 1
 75 300 125 750 50 750 c 2
 0 750 l 1
EndSplineSet
EndChar

StartChar: numbersign
Encoding: 119 35 119
Width: 500
VWidth: 0
Flags: W
HStem: 100 50<0 53.256> 200 50<333.276 400> 300 50<50 116.724> 400 50<396.744 450> 480 20G<350 400>
VStem: 50 50<50 103.256> 150 50<383.276 450> 250 50<100 166.724> 350 50<446.744 500>
LayerCount: 2
Fore
SplineSet
100 50 m 1
 50 50 l 1
 50 68.4111506896 51.506535421 86.4456675239 54.1497789208 104.149778921 c 1
 36.4456675239 101.506535421 18.4111506896 100 0 100 c 1
 0 150 l 1
 21.819355622 150 43.6387112441 153.04693939 65.5910313743 158.077102105 c 1
 79.4936197016 209.678324396 100.287863818 258.697254982 117.757932243 306.410872798 c 1
 95.7061942283 302.382053474 73.1508537984 300 50 300 c 1
 50 350 l 1
 78.7523764459 350 107.504752892 355.290874568 136.561379772 363.438620228 c 1
 144.709125432 392.495247108 150 421.247623554 150 450 c 1
 200 450 l 1
 200 426.849146202 197.617946526 404.293805772 193.589127202 382.242067757 c 1
 241.302745018 399.712136182 290.321675604 420.506380298 341.922897895 434.408968626 c 1
 346.95306061 456.361288756 350 478.180644378 350 500 c 1
 400 500 l 1
 400 481.58884931 398.493464579 463.554332476 395.850221079 445.850221079 c 1
 413.554332476 448.493464579 431.58884931 450 450 450 c 1
 450 400 l 1
 428.180644378 400 406.361288756 396.95306061 384.408968626 391.922897895 c 1
 370.506380298 340.321675604 349.712136182 291.302745018 332.242067757 243.589127202 c 1
 354.293805772 247.617946526 376.849146202 250 400 250 c 1
 400 200 l 1
 371.247623554 200 342.495247108 194.709125432 313.438620228 186.561379772 c 1
 305.290874568 157.504752892 300 128.752376446 300 100 c 1
 250 100 l 1
 250 123.150853798 252.382053474 145.706194228 256.410872798 167.757932243 c 1
 208.697254982 150.287863818 159.678324396 129.493619702 108.077102105 115.591031374 c 1
 103.04693939 93.6387112441 100 71.819355622 100 50 c 1
324.074074074 374.074074074 m 1
 277.097458713 357.734381775 228.994498087 336.889308413 178.522913078 321.477086922 c 1
 163.110691587 271.005501913 142.265618225 222.902541287 125.925925926 175.925925926 c 1
 172.902541287 192.265618225 221.005501913 213.110691587 271.477086922 228.522913078 c 1
 286.889308413 278.994498087 307.734381775 327.097458713 324.074074074 374.074074074 c 1
EndSplineSet
EndChar

StartChar: slash
Encoding: 120 47 120
Width: 400
VWidth: 0
Flags: W
HStem: -200 50<0 77.5016> 750 50<272.498 350>
VStem: 150 50<86.8652 513.135>
LayerCount: 2
Fore
SplineSet
350 800 m 1
 350 750 l 1
 300 750 l 2
 225 750 200 425 200 300 c 0
 200 175 175 -200 50 -200 c 2
 0 -200 l 1
 0 -150 l 1
 50 -150 l 2
 125 -150 150 175 150 300 c 0
 150 425 175 800 300 800 c 2
 350 800 l 1
EndSplineSet
EndChar

StartChar: backslash
Encoding: 121 92 121
Width: 400
VWidth: 0
Flags: W
HStem: -200 50<272.498 350> 750 50<0 77.5016>
VStem: 150 50<86.8652 513.135>
LayerCount: 2
Fore
SplineSet
0 750 m 1
 0 800 l 1
 50 800 l 2
 175 800 200 425 200 300 c 0
 200 175 225 -150 300 -150 c 2
 350 -150 l 1
 350 -200 l 1
 300 -200 l 2
 175 -200 150 175 150 300 c 0
 150 425 125 750 50 750 c 2
 0 750 l 1
EndSplineSet
EndChar

StartChar: dollar
Encoding: 122 36 122
Width: 400
VWidth: 0
Flags: W
HStem: 0 50<16.4062 150 200 267.397> 450 50<210.501 289.102> 650 50<200 255.078> 780 20G<150 200>
VStem: 0 50<449.694 571.987> 150 50<-100 0 51.1554 275.871 317.596 332.404 374.129 465.998 510.702 638.437 700 800> 300 50<80.7675 200.306 510.898 606.332>
CounterMasks: 1 0e
LayerCount: 2
Fore
SplineSet
150 800 m 1
 200 800 l 1
 200 700 l 1
 275 700 350 625 350 550 c 0
 350 500 300 450 250 450 c 0
 232.635182233 450 215.270364467 456.030737921 200 465.997760464 c 1
 200 334.375 l 1
 275 275 350 212.5 350 150 c 0
 350 46.0318002226 280.819925984 11.2436744609 200 2.48045617963 c 1
 200 -100 l 1
 150 -100 l 1
 150 0 l 1
 100 0 0 25 0 25 c 1
 0 75 l 1
 0 75 125 50 150 50 c 1
 150 315.625 l 1
 75 375 0 437.5 0 500 c 0
 0 603.968199777 69.1800740157 673.346362547 150 693.749432797 c 1
 150 800 l 1
150 638.436715264 m 1
 102.179201384 618.380744201 50 572.235172446 50 500 c 0
 50 461.303685689 94.9221422366 418.863859526 150 374.129122622 c 1
 150 462.231653503 150 550.334184383 150 638.436715264 c 1
200 650 m 1
 200 550 l 2
 200 525 225 500 250 500 c 0
 275 500 300 525 300 550 c 0
 300 600 250 650 200 650 c 1
200 51.1554474701 m 1
 255.077857763 55.1109324066 300 72.6073713789 300 150 c 0
 300 188.696314311 255.077857763 231.136140474 200 275.870877378 c 1
 200 51.1554474701 l 1
EndSplineSet
EndChar

StartChar: percent
Encoding: 123 37 123
Width: 500
VWidth: 0
Flags: W
HStem: -50 50<260.898 368.387> 0 21G<0 50> 100 50<272.622 350> 200 50<208.351 375.842> 500 50<74.1577 241.649> 600 50<100 177.378> 750 50<81.6132 189.102>
VStem: 0 50<0 64.5782 573.016 716.976> 200 50<10.8975 78.294 671.706 739.102> 400 50<33.0242 176.984 685.422 750>
CounterMasks: 1 01c0
LayerCount: 2
Fore
SplineSet
322.562148002 560.382638513 m 1x7fc0
 267.880327407 523.530644227 204.234034879 499.999999962 150 500 c 0
 50 500 0 550 0 650 c 0
 0 750 75 800 150 800 c 0
 200 800 250 750 250 700 c 0
 250 650 175 600 100 600 c 1
 100 650 l 1
 150 650 200 675 200 700 c 0
 200 725 175 750 150 750 c 0
 100 750 50 725 50 650 c 0
 50 575 75 550 150 550 c 0
 250 550 400 650 400 750 c 1
 450 750 l 1
 450 570.474102242 243.730893019 365.164566112 127.437851998 189.617361487 c 1
 182.119672593 226.469355773 245.765965121 250.000000038 300 250 c 0
 400 250 450 200 450 100 c 0
 450 0 375 -50 300 -50 c 0
 250 -50 200 0 200 50 c 0
 200 100 275 150 350 150 c 1
 350 100 l 1
 300 100 250 75 250 50 c 0
 250 25 275 0 300 0 c 0xbfc0
 350 0 400 25 400 100 c 0
 400 175 375 200 300 200 c 0
 200 200 50 100 50 0 c 1
 0 0 l 1
 0 179.525897758 206.269106981 384.835433888 322.562148002 560.382638513 c 1x7fc0
EndSplineSet
EndChar

StartChar: ampersand
Encoding: 124 38 124
Width: 650
VWidth: 0
Flags: W
HStem: 0 50<227.191 370.102> 350 50<250 408.561 453.316 600> 500 50<63.4364 104.108 159.695 366.841> 750 50<260.483 428.771>
VStem: 0 50<563.774 694.834> 100 50<190.771 500.171> 450 50<129.898 302.888 602.862 727.987>
LayerCount: 2
Fore
SplineSet
159.694599997 550.124346047 m 1
 171.811816673 550 185.205501325 550 200 550 c 0
 325 550 450 575 450 650 c 0
 450 700 450 750 350 750 c 0
 226.530823087 750 177.729259142 662.887784871 159.694599997 550.124346047 c 1
153.701124247 500.170675726 m 1
 150.933207146 467.621853105 150 433.810926552 150 400 c 0
 150 225 150 50 300 50 c 0
 375 50 450 125 450 200 c 0
 450 275 425 350 350 350 c 2
 250 350 l 1
 250 400 l 1
 366.666666667 400 483.333333333 400 600 400 c 1
 600 350 l 1
 453.316373144 350 l 1
 484.438791048 311.574939666 500 255.787469833 500 200 c 0
 500 100 400 0 300 0 c 0
 125 0 100 175 100 400 c 0
 100 435.421228154 101.239173732 469.603282575 104.10768169 502.058462647 c 1
 27.794779173 508.090934117 2.48689957516e-14 531.801993092 0 625 c 0
 0 725 100 800 100 800 c 1
 150 800 l 1
 150 800 50 700 50 625 c 0
 50 573.330887283 61.8653209288 557.257737352 110.118786966 552.257726028 c 1
 132.825369565 699.20620437 198.215343798 800 350 800 c 0
 500 800 500 725 500 650 c 0
 500 525 350 500 200 500 c 0
 183.359034996 500 167.948833175 500.170675726 153.701124247 500.170675726 c 1
EndSplineSet
EndChar

StartChar: equal
Encoding: 125 61 125
Width: 450
VWidth: 0
Flags: W
HStem: 200 50<0 400> 350 50<0 400>
LayerCount: 2
Fore
SplineSet
0 400 m 1
 400 400 l 1
 400 350 l 1
 0 350 l 1
 0 400 l 1
0 250 m 1
 400 250 l 1
 400 200 l 1
 0 200 l 1
 0 250 l 1
EndSplineSet
EndChar

StartChar: three
Encoding: 126 51 126
Width: 500
VWidth: 0
Flags: W
HStem: 0 50<104.925 350.977> 300 50<159.652 316.11> 450 50<159.652 316.11> 750 50<174.308 351.474>
VStem: 0 50<108.192 150 600 653.827 715.67 800> 100 50<360.371 439.629> 400 50<113.784 351.061 448.939 686.216>
LayerCount: 2
Fore
SplineSet
0 800 m 1
 50 800 l 1
 50 715.670348965 l 1
 98.3163247594 764.982991426 181.649658093 800 300 800 c 0
 400 800 450 700 450 550 c 0
 450 485.530139761 437.011366002 436.646640319 416.895725937 400 c 1
 437.011366002 363.353359681 450 314.469860239 450 250 c 0
 450 100 400 0 300 0 c 2
 150 0 l 2
 75 0 0 106.455078125 0 150 c 1
 50 150 l 1
 50 132.41015625 100 50 150 50 c 2
 300 50 l 2
 375 50 400 150 400 250 c 0
 400 291.272762911 392.429151296 324.974677119 380.412152325 352.147308768 c 1
 339.389398724 312.975680679 288.206859023 300 250 300 c 0
 175 300 100 325 100 400 c 0
 100 475 175 500 250 500 c 0
 288.206859023 500 339.389398724 487.024319321 380.412152325 447.852691232 c 1
 392.429151296 475.025322881 400 508.727237089 400 550 c 0
 400 650 375 750 300 750 c 0
 125 750 50 650 50 600 c 1
 0 600 l 1
 0 800 l 1
150 400 m 0
 150 350 200 350 250 350 c 0
 276.604444312 350 317.364817767 364.155929143 349.68448265 400 c 1
 317.364817767 435.844070857 276.604444312 450 250 450 c 0
 200 450 150 450 150 400 c 0
EndSplineSet
EndChar

StartChar: four
Encoding: 127 52 127
Width: 400
VWidth: 0
Flags: W
HStem: 0 21G<150 200> 200 50<56.7921 150 200 290.592> 450 50<206.521 293.479> 750 50<196.191 250>
VStem: 0 50<255.389 504.045> 150 50<0 200 250 444.922> 300 50<257.649 444.949>
CounterMasks: 1 0e
LayerCount: 2
Fore
SplineSet
300 350 m 0
 300 425 300 450 250 450 c 0
 200 450 200 425 200 350 c 2
 200 250 l 1
 300 250 300 250 300 350 c 0
100 250 m 2
 150 250 l 1
 150 350 l 2
 150 425 150 500 250 500 c 0
 350 500 350 425 350 350 c 0
 350 250 350 200 200 200 c 1
 200 0 l 1
 150 0 l 1
 150 200 l 1
 100 200 l 2
 0 200 0 250 0 350 c 0
 0 550 100 800 250 800 c 1
 250 750 l 1
 150 750 50 525 50 350 c 0
 50 275 50 250 100 250 c 2
EndSplineSet
EndChar

StartChar: five
Encoding: 128 53 128
Width: 550
VWidth: 0
Flags: W
HStem: 0 50<69.5289 332.732> 150 50<68.0945 200> 350 50<97.1116 343.454> 750 50<50 500>
VStem: 0 50<70.8696 130.395 250 308.561 353.316 750> 450 50<136.199 268.598>
LayerCount: 2
Fore
SplineSet
0 250 m 1
 -0 433.333333333 0 616.666666667 0 800 c 1
 166.666666667 800 333.333333333 800 500 800 c 1
 500 750 l 1
 50 750 l 1
 50 353.316373144 l 1
 88.4250603337 384.438791048 144.212530167 400 200 400 c 0
 325 400 500 350 500 200 c 0
 500 50 300 0 200 0 c 0
 150 0 0 0 0 100 c 0
 0 200 125 200 200 200 c 1
 200 150 l 1
 150 150 50 150 50 100 c 0
 50 50 175 50 200 50 c 0
 275 50 450 75 450 200 c 0
 450 325 300 350 200 350 c 0
 125 350 50 325 50 250 c 1
 0 250 l 1
EndSplineSet
EndChar

StartChar: six
Encoding: 129 54 129
Width: 550
VWidth: 0
Flags: W
HStem: 0 50<147.958 368.639> 350 50<260.018 414.511> 750 50<205.231 450>
VStem: 0 50<166.02 542.156> 150 50<200 288.557> 450 50<120.785 311.333>
LayerCount: 2
Fore
SplineSet
150 200 m 1
 150 325 225 400 350 400 c 0
 475 400 500 325 500 200 c 0
 500 75 400 0 250 0 c 0
 50 0 0 150 0 350 c 0
 0 575 75 800 300 800 c 2
 450 800 l 1
 450 750 l 1
 300 750 l 2
 100 750 50 550 50 350 c 0
 50 175 75 50 250 50 c 0
 375 50 450 100 450 200 c 0
 450 300 425 350 350 350 c 0
 250 350 200 300 200 200 c 1
 150 200 l 1
EndSplineSet
EndChar

StartChar: seven
Encoding: 130 55 130
Width: 500
VWidth: 0
Flags: W
HStem: 0 21G<150 200> 600 50<72.6216 150> 750 50<61.0933 400>
VStem: 0 50<671.706 739.102> 150 50<0 118.732> 400 50<631.268 750>
LayerCount: 2
Fore
SplineSet
400 750 m 1
 100 750 l 2
 75 750 50 725 50 700 c 0
 50 675 100 650 150 650 c 1
 150 600 l 1
 75 600 0 650 0 700 c 0
 0 750 50 800 100 800 c 2
 450 800 l 1
 450 750 l 2
 450 500 200 225 200 0 c 1
 150 0 l 1
 150 250 400 525 400 750 c 1
EndSplineSet
EndChar

StartChar: eight
Encoding: 131 56 131
Width: 350
VWidth: 0
Flags: W
HStem: 0 50<93.1079 206.892> 750 50<148.231 200>
VStem: 0 50<106.787 340.25> 50 50<524.299 697.119> 200 50<533.166 750> 250 50<105.195 336.794>
LayerCount: 2
Fore
SplineSet
144.837517761 429.520743247 m 1xe4
 96.6162564556 384.012530854 50 334.487361598 50 250 c 0
 50 175 50 50 150 50 c 0
 250 50 250 175 250 250 c 0
 250 340.512638402 196.497712911 384.210775601 144.837517761 429.520743247 c 1xe4
109.685688081 462.109705695 m 1
 76.2268055586 496.204940613 50 536.628242875 50 600 c 0
 50 725 125 800 200 800 c 2xd8
 250 800 l 1xc4
 250 600 l 2xc8
 250 539.73953787 217.721570701 499.653094051 179.099552988 461.910465436 c 1
 234.990811925 413.042013325 300 364.0256007 300 250 c 0
 300 150 275 0 150 0 c 0
 25 0 0 150 0 250 c 0
 0 356.466137228 56.6751918812 413.34148156 109.685688081 462.109705695 c 1
144.550995487 494.589540663 m 1
 175.960878202 525.346464947 200 556.663452024 200 600 c 2
 200 750 l 1
 150 750 100 700 100 600 c 0
 100 554.199864747 118.645799015 522.384078756 144.550995487 494.589540663 c 1
EndSplineSet
EndChar

StartChar: nine
Encoding: 132 57 132
Width: 550
VWidth: 0
Flags: W
HStem: 0 50<50 294.769> 400 50<85.4889 239.982> 750 50<131.361 352.042>
VStem: 0 50<488.667 679.215> 300 50<511.443 600> 450 50<257.844 633.98>
LayerCount: 2
Fore
SplineSet
350 600 m 1
 350 475 275 400 150 400 c 0
 25 400 0 475 0 600 c 0
 0 725 100 800 250 800 c 0
 450 800 500 650 500 450 c 0
 500 225 425 0 200 0 c 2
 50 0 l 1
 50 50 l 1
 200 50 l 2
 400 50 450 250 450 450 c 0
 450 625 425 750 250 750 c 0
 125 750 50 700 50 600 c 0
 50 500 75 450 150 450 c 0
 250 450 300 500 300 600 c 1
 350 600 l 1
EndSplineSet
EndChar

StartChar: ut
Encoding: 133 58899 133
Width: 600
VWidth: 0
Flags: W
HStem: 0 50<174.158 327.308 406.234 495.732> 350 50<0 77.2916 400 550> 480 20G<100 150 350 400>
VStem: 100 50<74.1577 376.795 421.875 500> 350 50<71.875 350 400 500> 500 50<54.6509 100>
LayerCount: 2
Fore
SplineSet
350 500 m 1
 400 500 l 1
 400 400 l 1
 550 400 l 1
 550 350 l 1
 400 350 l 1
 400 150 l 2
 400 75 400 50 450 50 c 0
 500 50 500 75 500 100 c 1
 550 100 l 1
 550 50 525 0 450 0 c 0
 409.48539176 0 383.56130335 14.5905198294 368.28687347 43.7715594882 c 1
 343.448435476 14.5905198294 304.019477653 -5.3290705182e-15 250 0 c 0
 150 0 100 50 100 150 c 2
 100 376.794919243 l 1
 75.5983064144 358.931639748 42.264973081 350 0 350 c 1
 0 400 l 1
 75 400 100 425 100 500 c 1
 150 500 l 1
 150 150 l 2
 150 75 175 50 250 50 c 0
 325 50 350 75 350 150 c 0
 350 266.666666667 350 383.333333333 350 500 c 1
EndSplineSet
LCarets2: 1 0
Substitution2: "'aalt' - none.low-1" ut.n.l
Ligature2: "'liga' - ligatures-1" u t
EndChar

StartChar: ut.n.l
Encoding: 134 59155 134
Width: 600
VWidth: 0
Flags: W
HStem: 0 50<174.158 327.308 406.25 600> 350 50<0 77.2916 400 550> 480 20G<100 150 350 400>
VStem: 100 50<74.1577 376.795 421.875 500> 350 50<71.875 350 400 500>
LayerCount: 2
Fore
SplineSet
350 500 m 1
 400 500 l 1
 400 400 l 1
 550 400 l 1
 550 350 l 1
 400 350 l 1
 400 150 l 2
 400 75 400 50 450 50 c 2
 600 50 l 1
 600 0 l 1
 450 0 l 2
 409.48539176 0 383.56130335 14.5905198294 368.28687347 43.7715594882 c 1
 343.448435476 14.5905198294 304.019477653 -5.3290705182e-15 250 0 c 0
 150 0 100 50 100 150 c 2
 100 376.794919243 l 1
 75.5983064144 358.931639748 42.264973081 350 0 350 c 1
 0 400 l 1
 75 400 100 425 100 500 c 1
 150 500 l 1
 150 150 l 2
 150 75 175 50 250 50 c 0
 325 50 350 75 350 150 c 0
 350 266.666666667 350 383.333333333 350 500 c 1
EndSplineSet
EndChar

StartChar: ate
Encoding: 135 58900 135
Width: 900
VWidth: 0
Flags: W
HStem: -200 21G<400 450> 0 50<93.6684 214.604 628.858 771.894> 250 50<113.622 297.758 350 400 450 500.486 555.597 752.965> 450 50<138.271 251.579 624.358 758.447> 780 20G<400 450>
VStem: 0 50<93.6684 196.263 300 360.069 423.995 500> 300 50<146.056 250 300 385.953> 400 50<-200 250 300 800> 500 50<137.109 250.118 300.745 360.252> 800 50<76.7532 100 327.965 408.16>
LayerCount: 2
Fore
SplineSet
0 500 m 1
 50 500 l 1
 50 423.995155788 l 1
 88.4250603337 468.877582096 144.212530167 500 200 500 c 0
 288.425060334 500 337.755164192 421.81008705 347.990311576 300 c 1
 400 300 l 1
 400 800 l 1
 450 800 l 1
 450 300 l 1
 466.720819291 300 485.230987689 300.119677532 504.752601232 300.119677532 c 1
 520.303318144 414.524875941 575.961609448 500 700 500 c 0
 800 500 850 400 850 350 c 0
 850 270.26171584 691.045150979 254.105371288 550.582469816 250.831818664 c 1
 550.179009052 242.102793603 550 233.461892276 550 225 c 0
 550 150 600 50 700 50 c 0
 725 50 800 75 800 100 c 1
 850 100 l 1
 850 50 750 0 700 0 c 0
 575 0 500 100 500 225 c 0
 500 233.458123682 500.158977458 241.836758636 500.485896715 250.11797618 c 1
 482.816031538 250 465.849760424 250 450 250 c 1
 450 -200 l 1
 400 -200 l 1
 400 250 l 1
 350 250 l 1
 350 50 225 0 150 0 c 0
 75 0 0 75 0 150 c 0
 0 225 100 300 200 300 c 2
 297.757704088 300 l 1
 290.171802725 380.819925984 262.380919866 450 200 450 c 0
 125 450 50 350 50 300 c 1
 0 300 l 1
 0 500 l 1
555.596559719 300.744934633 m 1
 672.105865634 303.027392835 800 312.303237044 800 350 c 0
 800 375 775 450 700 450 c 0
 605.604409801 450 568.236195275 378.715780407 555.596559719 300.744934633 c 1
300 250 m 1
 200 250 l 2
 125 250 50 200 50 150 c 0
 50 100 100 50 150 50 c 0
 200 50 300 100 300 250 c 1
EndSplineSet
Substitution2: "'aalt' - none.low-1" ate.n.l
Ligature2: "'liga' - ligatures-1" a t e
EndChar

StartChar: ate.n.l
Encoding: 136 59156 136
Width: 900
VWidth: 0
Flags: W
HStem: -200 21G<400 450> 0 50<93.6684 214.604 630.227 900> 250 50<113.622 297.758 350 400 450 500.486 555.597 752.965> 450 50<138.271 251.579 624.358 758.447> 780 20G<400 450>
VStem: 0 50<93.6684 196.263 300 360.069 423.995 500> 300 50<146.056 250 300 385.953> 400 50<-200 250 300 800> 500 50<137.109 250.118 300.745 360.252> 800 50<327.965 408.16>
LayerCount: 2
Fore
SplineSet
0 500 m 1
 50 500 l 1
 50 423.995155788 l 1
 88.4250603337 468.877582096 144.212530167 500 200 500 c 0
 288.425060334 500 337.755164192 421.81008705 347.990311576 300 c 1
 400 300 l 1
 400 800 l 1
 450 800 l 1
 450 300 l 1
 466.720819291 300 485.230987689 300.119677532 504.752601232 300.119677532 c 1
 520.303318144 414.524875941 575.961609448 500 700 500 c 0
 800 500 850 400 850 350 c 0
 850 270.26171584 691.045150979 254.105371288 550.582469816 250.831818664 c 1
 550.179009052 242.102793603 550 233.461892276 550 225 c 0
 550 150 600 50 700 50 c 2
 900 50 l 1
 900 0 l 1
 700 0 l 2
 575 0 500 100 500 225 c 0
 500 233.458123682 500.158977458 241.836758636 500.485896715 250.11797618 c 1
 482.816031538 250 465.849760424 250 450 250 c 1
 450 -200 l 1
 400 -200 l 1
 400 250 l 1
 350 250 l 1
 350 50 225 0 150 0 c 0
 75 0 0 75 0 150 c 0
 0 225 100 300 200 300 c 2
 297.757704088 300 l 1
 290.171802725 380.819925984 262.380919866 450 200 450 c 0
 125 450 50 350 50 300 c 1
 0 300 l 1
 0 500 l 1
555.596559719 300.744934633 m 1
 672.105865634 303.027392835 800 312.303237044 800 350 c 0
 800 375 775 450 700 450 c 0
 605.604409801 450 568.236195275 378.715780407 555.596559719 300.744934633 c 1
300 250 m 1
 200 250 l 2
 125 250 50 200 50 150 c 0
 50 100 100 50 150 50 c 0
 200 50 300 100 300 250 c 1
EndSplineSet
EndChar

StartChar: ae
Encoding: 137 230 137
Width: 700
VWidth: 0
Flags: W
HStem: 0 50<94.9219 213.902 434.188 571.894> 250 50<113.622 297.71 352.664 531.601> 450 50<138.387 250.657 415.987 558.447>
VStem: 0 50<93.6684 196.263 300 360.069 423.995 500> 300 50<155.469 250.712> 600 50<76.7532 100 329.821 408.16>
CounterMasks: 1 1c
LayerCount: 2
Fore
SplineSet
0 500 m 1
 50 500 l 1
 50 423.995155788 l 1
 88.4250603337 468.877582096 144.212530167 500 200 500 c 0
 260.457396527 500 302.63930908 463.449032051 326.545737659 401.395977968 c 1
 355.178778366 463.449032051 409.313905209 500 500 500 c 0
 600 500 650 400 650 350 c 0
 650 277.765472971 493.465193147 257.709214893 350.00384549 252.140499977 c 0
 350.00384549 251.427024202 350 250.713512101 350 250 c 0
 350 175 400 50 500 50 c 0
 525 50 600 75 600 100 c 1
 650 100 l 1
 650 50 550 0 500 0 c 0
 419.552965077 0 359.815451523 51.7738034233 327.451537694 122.001018493 c 1
 287.99598419 27.2532361143 205.371374038 -3.22586402035e-12 150 0 c 0
 75 0 0 75 0 150 c 0
 0 225 100 300 200 300 c 0
 226.999498869 300 260.997137955 300.503856744 297.710134937 300.503856744 c 1
 290.056113834 381.10724029 262.251246844 450 200 450 c 0
 125 450 50 350 50 300 c 1
 0 300 l 1
 0 500 l 1
299.999577716 250.711574448 m 1
 263.251809107 250 228.851254863 250 200 250 c 0
 125 250 50 200 50 150 c 0
 50 100 100 50 150 50 c 0
 200 50 300 100 300 250 c 0
 300 250.237191927 299.999577716 250.474383855 299.999577716 250.711574448 c 1
352.663534763 301.653153727 m 1
 473.197912723 305.150690983 600 316.047883012 600 350 c 0
 600 375 575 450 500 450 c 0
 396.741387745 450 361.721757921 381.761017569 352.663534763 301.653153727 c 1
EndSplineSet
Substitution2: "'aalt' - none.low-1" ae.n.l
Ligature2: "'liga' - ligatures-1" a e
EndChar

StartChar: AE
Encoding: 138 198 138
Width: 400
VWidth: 0
Flags: W
HStem: 0 50<250 350> 350 50<91.805 200 250 350> 750 50<177.155 200 250 350>
VStem: 0 50<0 203.813> 200 50<50 350 400 750>
LayerCount: 2
Fore
SplineSet
0 0 m 1
 0 150 75 800 200 800 c 2
 350 800 l 1
 350 750 l 1
 250 750 l 1
 250 400 l 1
 350 400 l 1
 350 350 l 1
 250 350 l 1
 250 50 l 1
 350 50 l 1
 350 0 l 1
 200 0 l 1
 200 350 l 1
 84.2281762933 350 l 1
 63.2699980293 205.810311241 50 63.0951615324 50 0 c 1
 0 0 l 1
200 400 m 1
 200 750 l 1
 160.198630784 750 120.397261568 581.024107577 91.8050121571 400 c 1
 200 400 l 1
EndSplineSet
Ligature2: "'liga' - ligatures-1" A E
EndChar

StartChar: ae.n.l
Encoding: 139 57830 139
Width: 700
VWidth: 0
Flags: W
HStem: 0 50<94.9219 213.902 434.375 700> 250 50<113.622 297.71 352.664 531.601> 450 50<138.387 250.657 415.987 558.447>
VStem: 0 50<93.6684 196.263 300 360.069 423.995 500> 300 50<155.469 250.712> 600 50<329.821 408.16>
CounterMasks: 1 1c
LayerCount: 2
Fore
SplineSet
0 500 m 1
 50 500 l 1
 50 423.995155788 l 1
 88.4250603337 468.877582096 144.212530167 500 200 500 c 0
 260.457396527 500 302.63930908 463.449032051 326.545737659 401.395977968 c 1
 355.178778366 463.449032051 409.313905209 500 500 500 c 0
 600 500 650 400 650 350 c 0
 650 277.765472971 493.465193147 257.709214893 350.00384549 252.140499977 c 0
 350.00384549 251.427024202 350 250.713512101 350 250 c 0
 350 175 400 50 500 50 c 2
 700 50 l 1
 700 0 l 1
 500 0 l 2
 419.552965077 0 359.815451523 51.7738034233 327.451537694 122.001018493 c 1
 287.99598419 27.2532361143 205.371374038 -3.22586402035e-12 150 0 c 0
 75 0 0 75 0 150 c 0
 0 225 100 300 200 300 c 0
 226.999498869 300 260.997137955 300.503856744 297.710134937 300.503856744 c 1
 290.056113834 381.10724029 262.251246844 450 200 450 c 0
 125 450 50 350 50 300 c 1
 0 300 l 1
 0 500 l 1
299.999577716 250.711574448 m 1
 263.251809107 250 228.851254863 250 200 250 c 0
 125 250 50 200 50 150 c 0
 50 100 100 50 150 50 c 0
 200 50 300 100 300 250 c 0
 300 250.237191927 299.999577716 250.474383855 299.999577716 250.711574448 c 1
352.663534763 301.653153727 m 1
 473.197912723 305.150690983 600 316.047883012 600 350 c 0
 600 375 575 450 500 450 c 0
 396.741387745 450 361.721757921 381.761017569 352.663534763 301.653153727 c 1
EndSplineSet
EndChar

StartChar: exclamdown
Encoding: 140 161 140
Width: 300
VWidth: 0
Flags: W
HStem: -200 21G<112.5 137.5>
VStem: 0 250<363.905 464.52> 50 150<-130.543 198.129> 100 50<300 363.397>
LayerCount: 2
Fore
SplineSet
125 -200 m 0xa0
 100 -200 50 -150 50 50 c 0xa0
 50 150 100 300 100 300 c 1
 100 363.397459622 l 1x90
 87.7991532072 354.465819874 71.1324865405 350 50 350 c 0xa0
 25 350 0 375 0 400 c 0
 0 450 71.966796875 546.966796875 125 600 c 1
 178.033203125 546.966796875 250 450 250 400 c 0xc0
 250 375 225 350 200 350 c 0xa0
 178.867513459 350 162.200846793 354.465819874 150 363.397459622 c 1
 150 300 l 1x90
 150 300 200 150 200 50 c 0
 200 -150 150 -200 125 -200 c 0xa0
EndSplineSet
EndChar

StartChar: questiondown
Encoding: 141 191 141
Width: 300
VWidth: 0
Flags: W
HStem: -200 50<82.1037 173.615>
VStem: 0 250<363.905 464.52> 0 50<-112.02 137.64> 100 50<254.565 363.397> 200 50<-120.646 50>
LayerCount: 2
Fore
SplineSet
50 50 m 0xb8
 50 -100 75 -150 125 -150 c 0
 175 -150 200 -125 200 50 c 1
 200 50 200 75 225 75 c 0
 250 75 250 50 250 50 c 1
 250 -150 225 -200 125 -200 c 0
 25 -200 0 -150 0 50 c 0
 0 150 100 275 100 300 c 2
 100 363.397459622 l 1
 87.7991532072 354.465819874 71.1324865405 350 50 350 c 0xb8
 25 350 0 375 0 400 c 0
 0 450 71.966796875 546.966796875 125 600 c 1
 178.033203125 546.966796875 250 450 250 400 c 0xc0
 250 375 225 350 200 350 c 0
 178.867513459 350 162.200846793 354.465819874 150 363.397459622 c 1
 150 300 l 2
 150 250 50 150 50 50 c 0xb8
EndSplineSet
EndChar

StartChar: acute
Encoding: 142 180 142
Width: 250
VWidth: 0
Flags: W
LayerCount: 2
Fore
SplineSet
125 675 m 1
 142.5 692.5 161.75 701.25 181 701.25 c 0
 200.25 701.25 219.5 692.5 237 675 c 0
 246 666 250.5 651.75 250.5 637.5 c 0
 250.5 623.25 246 609 237 600 c 0
 202 565 75 550 0 550 c 1
 0 625 15 752 50 787 c 0
 59 796 73.25 800.5 87.5 800.5 c 0
 101.75 800.5 116 796 125 787 c 0
 142.5 769.5 151.25 750.25 151.25 731 c 0
 151.25 711.75 142.5 692.5 125 675 c 1
EndSplineSet
EndChar

StartChar: guillemotleft
Encoding: 143 171 143
Width: 600
VWidth: 0
Flags: W
HStem: 50 50<287.175 350> 100 50<421.484 500> 450 50<421.484 500> 500 50<287.175 350>
VStem: 0 50<273.581 326.419> 150 50<276.962 323.038>
LayerCount: 2
Fore
SplineSet
350 100 m 1x9c
 350 50 l 1
 250 50 0 250 0 300 c 0
 0 350 250 550 350 550 c 1
 350 500 l 1
 275 500 50 325 50 300 c 0
 50 275 275 100 350 100 c 1x9c
500 150 m 1x6c
 500 100 l 1
 400 100 150 250 150 300 c 0
 150 350 400 500 500 500 c 1
 500 450 l 1
 425 450 200 325 200 300 c 0
 200 275 425 150 500 150 c 1x6c
EndSplineSet
EndChar

StartChar: guillemotright
Encoding: 144 187 144
Width: 400
VWidth: 0
Flags: W
HStem: 50 50<150 212.825> 100 50<0 78.5156> 450 50<0 78.5156> 500 50<150 212.825>
VStem: 300 50<276.962 323.038> 450 50<273.581 326.419>
LayerCount: 2
Fore
SplineSet
0 450 m 1x6c
 0 500 l 1
 100 500 350 350 350 300 c 0
 350 250 100 100 0 100 c 1
 0 150 l 1
 75 150 300 275 300 300 c 0
 300 325 75 450 0 450 c 1x6c
150 500 m 1x9c
 150 550 l 1
 250 550 500 350 500 300 c 0
 500 250 250 50 150 50 c 1
 150 100 l 1
 225 100 450 275 450 300 c 0
 450 325 225 500 150 500 c 1x9c
EndSplineSet
EndChar

StartChar: periodcentered
Encoding: 145 183 145
Width: 300
VWidth: 0
Flags: W
HStem: 200 250
VStem: 0 125<376.373 433.487> 125 125<376.373 433.487>
LayerCount: 2
Fore
SplineSet
125 375 m 1xa0
 125 425 150 450 200 450 c 0
 225 450 250 425 250 400 c 0
 250 350 178.033203125 253.033203125 125 200 c 1xa0
 71.966796875 253.033203125 0 350 0 400 c 0xc0
 0 425 25 450 50 450 c 0
 100 450 125 425 125 375 c 1xa0
EndSplineSet
EndChar

StartChar: uni00AD
Encoding: 146 173 146
Width: 250
VWidth: 0
Flags: W
HStem: 250 50<0 200>
VStem: 0 200<250 300>
LayerCount: 2
Fore
SplineSet
0 300 m 1
 200 300 l 1
 200 250 l 1
 0 250 l 1
 0 300 l 1
EndSplineSet
EndChar

StartChar: brokenbar
Encoding: 147 166 147
Width: 100
VWidth: 0
Flags: W
HStem: -200 21G<0 50> 780 20G<0 50>
VStem: 0 50<-200 250 350 800>
LayerCount: 2
Fore
SplineSet
50 800 m 1
 50 350 l 1
 0 350 l 1
 0 800 l 1
 50 800 l 1
50 250 m 1
 50 -200 l 1
 0 -200 l 1
 0 250 l 1
 50 250 l 1
EndSplineSet
EndChar

StartChar: sterling
Encoding: 148 163 148
Width: 650
VWidth: 0
Flags: W
HStem: 0 50<0 150 200 512.854> 200 50<54.6509 150 200 350> 350 50<55.1835 150 200 511.438> 550 21G<450 500> 750 50<268.573 411.565>
VStem: 0 50<254.268 345.526> 150 50<50 200 250 350 400 672.876> 450 50<550 703.595> 550 50<87.1124 308.161>
LayerCount: 2
Fore
SplineSet
450 550 m 1
 450 650 450 750 350 750 c 0
 225 750 200 650 200 550 c 2
 200 400 l 1
 450 400 l 2
 525 400 600 350 600 200 c 0
 600 50 550 0 400 0 c 2
 0 0 l 1
 0 50 l 1
 150 50 l 1
 150 200 l 1
 100 200 l 2
 50 200 0 225 0 300 c 0
 0 350 25 400 100 400 c 2
 150 400 l 1
 150 550 l 2
 150 675 200 800 350 800 c 0
 475 800 500 675 500 550 c 1
 450 550 l 1
350 250 m 1
 350 200 l 1
 200 200 l 1
 200 50 l 1
 400 50 l 2
 525 50 550 75 550 200 c 0
 550 325 500 350 450 350 c 2
 200 350 l 1
 200 250 l 1
 350 250 l 1
150 350 m 1
 100 350 l 2
 50 350 50 325 50 300 c 0
 50 250 75 250 100 250 c 2
 150 250 l 1
 150 350 l 1
EndSplineSet
EndChar

StartChar: cent
Encoding: 149 162 149
Width: 400
VWidth: 0
Flags: W
HStem: 0 50<200 350> 4.43637 52.6767<108.618 150> 450 50<200 258.447>
VStem: 0 50<118.555 343.017> 150 50<-150 0 57.1131 440.446 500 650> 300 50<300 403.125>
CounterMasks: 1 1c
LayerCount: 2
Fore
SplineSet
350 300 m 1x7c
 300 300 l 1
 300 375 275 450 200 450 c 1
 200 50 l 1
 350 50 l 1
 350 0 l 1
 200 0 l 1xbc
 200 -150 l 1
 150 -150 l 1
 150 4.43636884496 l 1
 55.2721307088 22.2318973398 -3.5527136788e-14 92.6919051003 0 200 c 0
 0 331.907786236 38.6659201547 463.815572472 150 493.7166401 c 1
 150 650 l 1
 200 650 l 1
 200 500 l 1
 300 500 350 400 350 300 c 1x7c
150 440.446248216 m 1
 68.0263176803 405.882280266 50 284.914822452 50 200 c 0
 50 138.76275643 83.3333333333 77.5255128608 150 57.1130983376 c 1x7c
 150 440.446248216 l 1
EndSplineSet
EndChar

StartChar: ordfeminine
Encoding: 150 170 150
Width: 450
VWidth: 0
Flags: W
HStem: 300 50<0 400> 400 50<60.7095 219.104> 600 50<147.705 287.336> 750 50<109.829 263.639>
VStem: 0 50<460.371 535.794 650 700.162 753.316 800> 350 50<400 502.577>
LayerCount: 2
Fore
SplineSet
0 800 m 1
 50 800 l 1
 50 753.316373144 l 1
 88.4250603337 784.438791048 144.212530167 800 200 800 c 0
 300 800 350 750 350 600 c 0
 350 595.009020197 349.861611781 590.128750969 349.591281836 585.357350485 c 0
 383.197093928 532.743946376 399.999999974 457.970520157 400 400 c 1
 350 400 l 1
 350 430.411181644 341.779200276 469.043163012 328.67099061 504.229079866 c 1
 289.721146121 427.824254247 205.948445937 400 150 400 c 0
 75 400 0 425 0 500 c 0
 0 575 150 650 250 650 c 0
 267.799023876 650 284.014021497 645.247921236 298.644992864 636.871528553 c 1
 292.5566629 712.290509518 265.133076691 750 200 750 c 0
 125 750 50 706.09765625 50 650 c 1
 0 650 l 1
 0 800 l 1
0 350 m 1
 400 350 l 1
 400 300 l 1
 0 300 l 1
 0 350 l 1
296.258871305 567.476339754 m 1
 281.923721933 587.260949724 265.961860967 600 250 600 c 0
 175 600 50 550 50 500 c 0
 50 450 100 450 150 450 c 0
 194.248604452 450 277.655988821 489.158779918 296.258871305 567.476339754 c 1
EndSplineSet
EndChar

StartChar: ordmasculine
Encoding: 151 186 151
Width: 450
VWidth: 0
Flags: W
HStem: 300 50<0 400> 400 50<110.094 303.148> 500 50<160.898 245.526> 650 50<172.195 339.629> 750 50<86.0229 350>
VStem: 0 50<515.905 715.964> 100 50<560.898 631.512> 250 50<555.184 600> 350 50<491.496 640.348>
LayerCount: 2
Fore
SplineSet
0 350 m 1
 400 350 l 1
 400 300 l 1
 0 300 l 1
 0 350 l 1
350 800 m 1
 350 750 l 1
 250 750 l 2
 125 750 50 750 50 650 c 0
 50 525 75 450 200 450 c 0
 275 450 350 475 350 550 c 0
 350 600 350 650 300 650 c 0
 250 650 150 650 150 600 c 0
 150 575 175 550 200 550 c 0
 225 550 250 550 250 600 c 1
 300 600 l 1
 300 525 250 500 200 500 c 0
 150 500 100 550 100 600 c 0
 100 675 225 700 300 700 c 0
 375 700 400 625 400 550 c 0
 400 450 300 400 200 400 c 0
 50 400 0 500 0 650 c 0
 0 775 100 800 250 800 c 2
 350 800 l 1
EndSplineSet
EndChar

StartChar: Eth
Encoding: 152 208 152
Width: 525
VWidth: 0
Flags: W
HStem: 0 50<150 199.854> 350 50<0 100 150 250> 650 50<56.7921 100 150 400.842> 780 20G<0 50>
VStem: 0 50<705.701 800> 100 50<50 350 400 650> 425 50<417.396 626.984>
LayerCount: 2
Fore
SplineSet
100 700 m 2
 325 700 l 2
 425 700 475 650 475 550 c 0
 475 325 275 0 150 0 c 2
 100 0 l 1
 100 350 l 1
 0 350 l 1
 0 400 l 1
 100 400 l 1
 100 650 l 1
 0 650 0 700 0 800 c 1
 50 800 l 1
 50 725 50 700 100 700 c 2
150 350 m 1
 150 50 l 1
 250 50 425 350 425 550 c 0
 425 625 400 650 325 650 c 2
 150 650 l 1
 150 400 l 1
 250 400 l 1
 250 350 l 1
 150 350 l 1
EndSplineSet
EndChar

StartChar: macron
Encoding: 154 175 154
Width: 300
VWidth: 0
Flags: W
HStem: 750 50<0 250>
VStem: 0 250<750 800>
LayerCount: 2
Fore
SplineSet
0 800 m 1
 250 800 l 1
 250 750 l 1
 0 750 l 1
 0 800 l 1
EndSplineSet
EndChar

StartChar: section
Encoding: 155 167 155
Width: 350
VWidth: 0
Flags: W
HStem: -200 50<0 135.254> 150 50<98.3421 207.861> 400 48.9398<103.777 203.841> 750 50<153.76 250>
VStem: 0 50<200 347.395 566.195 665.25> 250 50<-60.9839 33.6496 248.042 400>
LayerCount: 2
Fore
SplineSet
250 750 m 1
 175 750 50 700 50 600 c 0
 50 525 300 525 300 400 c 0
 300 200 250 150 100 150 c 2
 98.3421440237 150 l 1
 171.014960761 115.079916489 300 89.7862180541 300 0 c 0
 300 -125 150 -200 50 -200 c 2
 0 -200 l 1
 0 -150 l 1
 50 -150 l 2
 100 -150 250 -100 250 0 c 0
 250 75 0 75 0 200 c 0
 0 383.626482998 42.1483565726 440.807896277 203.840614527 448.939784789 c 1
 131.601504232 484.416143877 6.65195898364e-09 509.307695815 0 600 c 0
 0 725 150 800 250 800 c 1
 250 750 l 1
250 400 m 1
 75 400 50 375 50 200 c 1
 100 200 l 2
 225 200 250 225 250 400 c 1
EndSplineSet
EndChar

StartChar: plusminus
Encoding: 156 177 156
Width: 300
VWidth: 0
Flags: W
HStem: 0 50<0 250> 250 50<0 100 150 250>
VStem: 100 50<100 250 300 450>
LayerCount: 2
Fore
SplineSet
100 450 m 1
 150 450 l 1
 150 300 l 1
 250 300 l 1
 250 250 l 1
 150 250 l 1
 150 100 l 1
 100 100 l 1
 100 250 l 1
 0 250 l 1
 0 300 l 1
 100 300 l 1
 100 450 l 1
0 50 m 1
 250 50 l 1
 250 0 l 1
 0 0 l 1
 0 50 l 1
EndSplineSet
EndChar

StartChar: germandbls
Encoding: 157 223 157
Width: 500
VWidth: 0
Flags: W
HStem: 0 50<0 360.545> 750 50<73.0164 236.412>
VStem: 0 50<150 725.842> 150 50<317.467 422.333> 300 50<578.086 696.263> 400 50<86.3541 182.533>
LayerCount: 2
Fore
SplineSet
150 350 m 0
 150 525 300 525 300 650 c 0
 300 700 225 750 150 750 c 0
 75 750 50 725 50 650 c 2
 50 150 l 1
 0 150 l 1
 0 650 l 2
 0 750 50 800 150 800 c 0
 250 800 350 725 350 650 c 0
 350 500 200 475 200 350 c 0
 200 275 450 275 450 150 c 0
 450 25 350 0 250 0 c 2
 0 0 l 1
 0 50 l 1
 250 50 l 2
 300 50 400 50 400 150 c 0
 400 225 150 225 150 350 c 0
EndSplineSet
EndChar

StartChar: Acircumflex
Encoding: 158 194 158
Width: 350
VWidth: 0
Flags: W
HStem: 0 21G<0 50 250 300> 350 50<86.6365 213.363> 750 50<141.65 158.35> 900 50<120.186 179.814>
VStem: 0 50<0 203.813 750 812.891> 250 50<0 203.813 750 812.891>
LayerCount: 2
Fore
SplineSet
0 0 m 1
 0 150 75 800 150 800 c 0
 225 800 300 150 300 0 c 1
 250 0 l 1
 250 63.0951615324 236.730001971 205.810311241 219.49303557 350 c 1
 80.5069644302 350 l 1
 63.2699980293 205.810311241 50 63.0951615324 50 0 c 1
 0 0 l 1
150 900 m 0
 125 900 50 800 50 750 c 1
 0 750 l 1
 0 825 100 950 150 950 c 0
 200 950 300 825 300 750 c 1
 250 750 l 1
 250 800 175 900 150 900 c 0
213.36347598 400 m 1
 190.615570512 581.024107577 163.267123072 750 150 750 c 0
 136.732876928 750 109.384429488 581.024107577 86.6365240198 400 c 1
 213.36347598 400 l 1
EndSplineSet
EndChar

StartChar: Ntilde
Encoding: 159 209 159
Width: 650
VWidth: 0
Flags: W
HStem: 600 50<429.981 531.512> 700 50<142.033 253.07> 750 50<355.469 459.938> 800 50<100 159.547 490.453 550> 850 50<190.062 294.531>
VStem: 0 50<450 573.047> 300 50<-150 495.02> 550 50<-150 577.484>
LayerCount: 2
Fore
SplineSet
500 650 m 0xc7
 575 650 600 525 600 450 c 2
 600 -150 l 1
 550 -150 l 1
 550 450 l 2
 550 500 550 600 500 600 c 0
 400 600 350 500 350 350 c 6
 350 -150 l 5
 300 -150 l 1
 300 450 l 2
 300 550 300 700 200 700 c 0
 100 700 50 550 50 450 c 1
 0 450 l 1
 0 575 50 750 200 750 c 0
 310.158686965 750 339.417798504 655.617162003 347.189274651 555.969396059 c 1
 381.628197794 614.943429621 433.802784821 650 500 650 c 0xc7
400 750 m 0xa7
 350 750 300 850 250 850 c 0xaf
 200 850 175 800 100 800 c 1
 100 850 l 1x97
 150 850 175 900 250 900 c 0
 300 900 350 800 400 800 c 0xaf
 450 800 475 850 550 850 c 1
 550 800 l 1x97
 500 800 475 750 400 750 c 0xa7
EndSplineSet
EndChar

StartChar: Ocircumflex
Encoding: 160 212 160
Width: 600
VWidth: 0
Flags: W
HStem: 0 50<147.958 358.193> 200 50<243.668 339.629> 500 50<260.018 429.874> 650 50<173.092 500> 900 50<270.186 329.814>
VStem: 0 50<166.02 518.179> 150 50<293.668 439.982 750 812.891> 350 50<260.709 350> 400 50<750 812.891> 500 50<210.13 430.808>
LayerCount: 2
Fore
SplineSet
500 700 m 1xff40
 500 650 l 1
 300 650 l 2
 100 650 50 550 50 350 c 0
 50 175 75 50 250 50 c 0
 425 50 500 175 500 350 c 0
 500 450 425 500 350 500 c 0
 250 500 200 450 200 350 c 0
 200 300 250 250 300 250 c 0
 350 250 350 300 350 350 c 1
 400 350 l 1
 400 275 375 200 300 200 c 0
 225 200 150 275 150 350 c 0
 150 475 225 550 350 550 c 0
 475 550 550 475 550 350 c 0
 550 150 450 0 250 0 c 0
 50 0 0 150 0 350 c 0
 0 575 75 700 300 700 c 2
 500 700 l 1xff40
300 900 m 0
 275 900 200 800 200 750 c 1
 150 750 l 1
 150 825 250 950 300 950 c 0
 350 950 450 825 450 750 c 1
 400 750 l 1xfec0
 400 800 325 900 300 900 c 0
EndSplineSet
EndChar

StartChar: Otilde
Encoding: 161 213 161
Width: 600
VWidth: 0
Flags: W
HStem: 0 50<147.958 358.193> 200 50<243.668 339.629> 500 50<260.018 429.874> 650 50<173.092 500> 750 50<100 159.547 303.526 409.938> 800 50<190.062 296.474 440.453 500>
VStem: 0 50<166.02 518.179> 150 50<293.668 439.982> 350 50<260.709 350> 500 50<210.13 430.808>
LayerCount: 2
Fore
SplineSet
500 700 m 1xf3c0
 500 650 l 1
 300 650 l 2
 100 650 50 550 50 350 c 0
 50 175 75 50 250 50 c 0
 425 50 500 175 500 350 c 0
 500 450 425 500 350 500 c 0
 250 500 200 450 200 350 c 0
 200 300 250 250 300 250 c 0
 350 250 350 300 350 350 c 1
 400 350 l 1
 400 275 375 200 300 200 c 0
 225 200 150 275 150 350 c 0
 150 475 225 550 350 550 c 0
 475 550 550 475 550 350 c 0
 550 150 450 0 250 0 c 0
 50 0 0 150 0 350 c 0
 0 575 75 700 300 700 c 2
 500 700 l 1xf3c0
350 750 m 0xfbc0
 300 750 300 800 250 800 c 0xf7c0
 200 800 175 750 100 750 c 1
 100 800 l 1xfbc0
 150 800 175 850 250 850 c 0xf7c0
 300 850 300 800 350 800 c 0xfbc0
 400 800 425 850 500 850 c 1
 500 800 l 1xf7c0
 450 800 425 750 350 750 c 0xfbc0
EndSplineSet
EndChar

StartChar: Ucircumflex
Encoding: 162 219 162
Width: 450
VWidth: 0
Flags: W
HStem: 0 50<134.375 285.4> 650 50<0 50> 900 50<170.186 229.814>
VStem: 0 100<650 700> 50 50<86.4038 650 750 812.891> 300 50<750 812.891> 350 50<0 56.9508 126.904 700>
LayerCount: 2
Fore
SplineSet
350 700 m 1xea
 400 700 l 5
 400 0 l 5
 350 0 l 1
 350 56.95076244 l 1
 315.561517625 13.2801377221 264.420827674 -8.881784197e-15 200 0 c 0
 100 0 50 75 50 175 c 2
 50 650 l 1xea
 0 650 l 1
 0 700 l 1
 100 700 l 1xf0
 100 175 l 2
 100 100 125 50 200 50 c 0
 300 50 350 100 350 275 c 2
 350 700 l 1xea
200 900 m 0
 175 900 100 800 100 750 c 1
 50 750 l 1
 50 825 150 950 200 950 c 0
 250 950 350 825 350 750 c 1
 300 750 l 1xec
 300 800 225 900 200 900 c 0
EndSplineSet
EndChar

StartChar: Ecircumflex
Encoding: 163 202 163
Width: 600
VWidth: 0
Flags: W
HStem: 0 50<261.156 470.523> 400 50<61.9406 101.329 155.227 390.807> 650 50<259.069 478.771> 900 50<270.186 329.814>
VStem: 0 50<463.82 594.834> 100 50<184.443 400.203> 150 50<750 812.891> 400 50<750 812.891> 500 50<79.8304 200 511.376 627.987>
LayerCount: 2
Fore
SplineSet
300 900 m 0xfb80
 275 900 200 800 200 750 c 1
 150 750 l 1
 150 825 250 950 300 950 c 0
 350 950 450 825 450 750 c 1
 400 750 l 1
 400 800 325 900 300 900 c 0xfb80
155.227250694 450.176820576 m 1
 168.497990153 450 183.36329973 450 200 450 c 0
 325 450 500 475 500 550 c 0
 500 600 500 650 400 650 c 0
 251.452498746 650 174.95841832 613.973289585 155.227250694 450.176820576 c 1
151.139508467 400.203407609 m 1
 150.376867837 384.438299486 150 367.721640193 150 350 c 0
 150 175 200 50 350 50 c 0
 400 50 500 50 500 125 c 2
 500 200 l 1
 550 200 l 1
 550 125 l 2
 550 25 425 0 350 0 c 0
 175 0 100 125 100 350 c 0
 100 368.302951174 100.442972591 385.719957168 101.328917772 402.287871187 c 1
 27.1189357457 408.681425652 3.5527136788e-15 432.942043144 0 525 c 0
 0 625 100 700 100 700 c 1xfd80
 150 700 l 1
 150 700 50 600 50 525 c 0
 50 474.940659654 61.1375002483 458.293820053 105.713937366 452.758044576 c 1
 129.506426809 644.272851424 227.60178102 700 400 700 c 0
 550 700 550 625 550 550 c 0
 550 425 350 400 200 400 c 0
 182.35681506 400 166.097105563 400.203407609 151.139508467 400.203407609 c 1
EndSplineSet
EndChar

StartChar: Atilde
Encoding: 164 195 164
Width: 350
VWidth: 0
Flags: W
HStem: 0 21G<0 50 250 300> 350 50<86.6365 213.363> 750 50<141.65 158.35> 850 50<0 36.6951 153.526 237.374> 900 50<62.6261 146.474 263.305 300>
VStem: 0 50<0 203.813> 250 50<0 203.813>
LayerCount: 2
Fore
SplineSet
0 0 m 1xe6
 0 150 75 800 150 800 c 0
 225 800 300 150 300 0 c 1
 250 0 l 1
 250 63.0951615324 236.730001971 205.810311241 219.49303557 350 c 1
 80.5069644302 350 l 1
 63.2699980293 205.810311241 50 63.0951615324 50 0 c 1
 0 0 l 1xe6
200 850 m 0xf6
 150 850 150 900 100 900 c 0xee
 50 900 75 850 0 850 c 1
 0 900 l 1xf6
 50 900 25 950 100 950 c 0xee
 150 950 150 900 200 900 c 0xf6
 250 900 225 950 300 950 c 1
 300 900 l 1xee
 250 900 275 850 200 850 c 0xf6
213.36347598 400 m 1
 190.615570512 581.024107577 163.267123072 750 150 750 c 0
 136.732876928 750 109.384429488 581.024107577 86.6365240198 400 c 1
 213.36347598 400 l 1
EndSplineSet
EndChar

StartChar: Oslash
Encoding: 165 216 165
Width: 400
VWidth: 0
Flags: W
HStem: -50 50<0 83.538> 0 50<150.188 242.837> 750 50<107.163 199.812> 800 50<266.462 350>
VStem: 0 50<216.074 614.216> 150 50<187.682 612.318> 300 50<185.784 583.926>
CounterMasks: 1 0e
LayerCount: 2
Fore
SplineSet
350 850 m 1x1e
 350 800 l 1
 300 800 l 2
 286.106292446 800 273.928452533 790.562727975 263.307548505 774.390023755 c 1
 335.629514591 721.602289229 350 589.542115432 350 400 c 0
 350 150 325 0 175 0 c 0x5e
 157.752261297 0 142.157214207 1.98322993581 128.062831034 5.87367595922 c 1
 107.838553222 -28.3709655855 82.246820367 -50.0000000001 50 -50 c 2
 0 -50 l 1
 0 0 l 1
 50 0 l 2
 63.8937075542 0 76.0715474675 9.43727202495 86.6924514946 25.609976245 c 1
 14.370485409 78.3977107714 1.95399252334e-14 210.457884568 0 400 c 0
 0 650 25 800 175 800 c 0xae
 192.247738703 800 207.842785793 798.016770064 221.937168966 794.126324041 c 1
 242.161446778 828.370965586 267.753179633 850 300 850 c 2
 350 850 l 1x1e
200.339752935 748.025740572 m 1
 192.522395706 749.338706925 184.09184439 750 175 750 c 0x2e
 50 750 50 625 50 400 c 0
 50 226.718031634 107.098220904 112.747945857 107.098220904 69.50938685 c 1
 138.35024835 159.442827483 150 314.670668692 150 400 c 0
 150 479.972724349 160.233018624 641.809597689 200.339752935 748.025740572 c 1
149.660247065 51.9742594281 m 1
 157.477604294 50.6612930754 165.90815561 50 175 50 c 0x4e
 300 50 300 175 300 400 c 0
 300 573.281968366 242.901779096 687.252054143 242.901779096 730.49061315 c 1
 211.64975165 640.557172517 200 485.329331308 200 400 c 0
 200 320.027275651 189.766981376 158.190402311 149.660247065 51.9742594281 c 1
EndSplineSet
EndChar

StartChar: Icircumflex
Encoding: 166 206 166
Width: 750
VWidth: 0
Flags: W
HStem: -200 50<109.302 200> 0 50<59.7546 250 300 551.776> 250 50<462.178 550> 400 50<472.013 611.525> 600 50<50 250 300 487.822> 850 50<270.186 329.814>
VStem: 0 50<-101.474 -9.96881> 150 50<700 762.891> 250 50<50 600> 400 50<314.882 378.294 700 762.891> 500 50<666.992 700> 650 50<147.94 358.161>
LayerCount: 2
Fore
SplineSet
550 700 m 1
 550 600 450 600 400 600 c 2
 300 600 l 1
 300 50 l 1
 450 50 l 2
 575 50 650 125 650 250 c 0
 650 375 600 400 550 400 c 0
 500 400 450 375 450 350 c 0
 450 300 525 300 550 300 c 1
 550 250 l 1
 500 250 400 275 400 350 c 0
 400 400 475 450 550 450 c 0
 625 450 700 400 700 250 c 0
 700 100 600 0 450 0 c 2
 125 0 l 2
 100 0 50 0 50 -50 c 0
 50 -125 150 -150 200 -150 c 1
 200 -200 l 1
 100 -200 0 -150 0 -50 c 0
 0 25 55 50 125 50 c 2
 250 50 l 1
 250 600 l 1
 50 600 l 1
 50 650 l 1
 400 650 l 2
 425 650 500 650 500 700 c 1
 550 700 l 1
300 850 m 0
 275 850 200 750 200 700 c 1
 150 700 l 1
 150 775 250 900 300 900 c 0
 350 900 450 775 450 700 c 1
 400 700 l 1
 400 750 325 850 300 850 c 0
EndSplineSet
EndChar

StartChar: ocircumflex
Encoding: 167 244 167
Width: 500
VWidth: 0
Flags: W
HStem: 0 50<147.94 339.982> 100 50<210.898 278.294> 300 50<233.024 376.984> 450 50<189.844 400> 550 21G<100 150 350 400> 700 50<220.186 279.814>
VStem: 0 50<147.94 334.391> 100 50<550 612.891> 150 50<160.898 268.387> 300 50<172.622 250> 350 50<550 612.891> 400 50<110.018 276.984>
LayerCount: 2
Fore
SplineSet
400 500 m 1xfed0
 400 450 l 1
 300 450 l 2
 175 450 50 375 50 250 c 0
 50 125 125 50 250 50 c 0
 350 50 400 100 400 200 c 0
 400 275 375 300 300 300 c 0
 225 300 200 250 200 200 c 0
 200 175 225 150 250 150 c 0
 275 150 300 200 300 250 c 1
 350 250 l 1
 350 175 300 100 250 100 c 0
 200 100 150 150 150 200 c 0
 150 275 200 350 300 350 c 0
 400 350 450 300 450 200 c 0
 450 75 375 0 250 0 c 0
 100 0 0 100 0 250 c 0
 0 400 150 500 300 500 c 2
 400 500 l 1xfed0
250 700 m 0
 225 700 150 600 150 550 c 1
 100 550 l 1
 100 625 200 750 250 750 c 0
 300 750 400 625 400 550 c 1
 350 550 l 1xff20
 350 600 275 700 250 700 c 0
EndSplineSet
EndChar

StartChar: otilde
Encoding: 168 245 168
Width: 500
VWidth: 0
Flags: W
HStem: 0 50<147.94 339.982> 100 50<210.898 278.294> 300 50<233.024 376.984> 450 50<189.844 400> 600 50<100 136.695 253.526 337.374> 650 50<162.626 246.474 363.305 400>
VStem: 0 50<147.94 334.391> 150 50<160.898 268.387> 300 50<172.622 250> 400 50<110.018 276.984>
LayerCount: 2
Fore
SplineSet
400 500 m 1xf3c0
 400 450 l 1
 300 450 l 2
 175 450 50 375 50 250 c 0
 50 125 125 50 250 50 c 0
 350 50 400 100 400 200 c 0
 400 275 375 300 300 300 c 0
 225 300 200 250 200 200 c 0
 200 175 225 150 250 150 c 0
 275 150 300 200 300 250 c 1
 350 250 l 1
 350 175 300 100 250 100 c 0
 200 100 150 150 150 200 c 0
 150 275 200 350 300 350 c 0
 400 350 450 300 450 200 c 0
 450 75 375 0 250 0 c 0
 100 0 0 100 0 250 c 0
 0 400 150 500 300 500 c 2
 400 500 l 1xf3c0
300 600 m 0xfbc0
 250 600 250 650 200 650 c 0xf7c0
 150 650 175 600 100 600 c 1
 100 650 l 1xfbc0
 150 650 125 700 200 700 c 0xf7c0
 250 700 250 650 300 650 c 0xfbc0
 350 650 325 700 400 700 c 1
 400 650 l 1xf7c0
 350 650 375 600 300 600 c 0xfbc0
EndSplineSet
EndChar

StartChar: copyright
Encoding: 169 169 169
Width: 600
VWidth: 0
Flags: W
HStem: 0 50<147.958 389.529> 150 50<270.671 400> 600 50<248.064 358.504> 750 50<212.759 371.695>
VStem: 0 50<166.02 523.986> 150 50<270.126 534.62> 400 50<450 553.125> 500 50<135.422 200 600 651.055>
LayerCount: 2
Fore
SplineSet
550 200 m 1
 550 100 450 0 250 0 c 0
 50 0 0 150 0 350 c 0
 0 575 100 800 300 800 c 0
 375 800 550 700 550 600 c 1
 500 600 l 1
 500 675 350 750 300 750 c 0
 125 750 50 550 50 350 c 0
 50 175 75 50 250 50 c 0
 425 50 500 125 500 200 c 1
 550 200 l 1
450 450 m 1
 400 450 l 1
 400 525 375 600 300 600 c 0
 200 600 200 450 200 350 c 0
 200 275 250 200 350 200 c 2
 400 200 l 1
 400 150 l 1
 350 150 l 2
 225 150 150 225 150 350 c 0
 150 500 175 650 300 650 c 0
 400 650 450 550 450 450 c 1
EndSplineSet
EndChar

StartChar: registered
Encoding: 170 174 170
Width: 600
VWidth: 0
Flags: W
HStem: 0 50<147.958 389.529> 600 50<233.024 386.412> 750 50<203.946 371.695>
VStem: 0 50<166.02 542.156> 150 50<200 568.024> 300 50<360.676 425.011> 450 50<489.251 546.263> 500 50<135.294 239.324 600 651.055>
LayerCount: 2
Fore
SplineSet
150 200 m 1xfe
 150 500 l 2
 150 575 200 650 300 650 c 0
 400 650 500 575 500 500 c 0xfe
 500 425 350 450 350 400 c 0
 350 325 550 300 550 200 c 0
 550 100 450 0 250 0 c 0
 50 0 0 150 0 350 c 0
 0 575 75 800 300 800 c 0
 375 800 550 700 550 600 c 1
 500 600 l 1
 500 675 350 750 300 750 c 0
 100 750 50 550 50 350 c 0
 50 175 75 50 250 50 c 0
 425 50 500 125 500 200 c 0xfd
 500 275 300 300 300 400 c 0
 300 500 450 475 450 500 c 0
 450 550 375 600 300 600 c 0
 225 600 200 550 200 500 c 2
 200 200 l 1
 150 200 l 1xfe
EndSplineSet
EndChar

StartChar: multiply
Encoding: 171 215 171
Width: 400
VWidth: 0
Flags: W
HStem: 100 50<0 80.1935 269.807 350> 450 50<0 91.4062 258.594 350>
VStem: 150 50<219.58 391.406>
LayerCount: 2
Fore
SplineSet
175 190.87280063 m 1
 143.254938429 132.688802068 82.5237365707 100 0 100 c 1
 0 150 l 1
 100 150 150 225 150 300 c 0
 150 400 100 450 0 450 c 1
 0 500 l 1
 82.5237365707 500 143.254938429 478.207465288 175 420.235184713 c 1
 206.745061571 478.207465288 267.476263429 500 350 500 c 1
 350 450 l 1
 250 450 200 400 200 300 c 0
 200 225 250 150 350 150 c 1
 350 100 l 1
 267.476263429 100 206.745061571 132.688802068 175 190.87280063 c 1
EndSplineSet
EndChar

StartChar: paragraph
Encoding: 172 182 172
Width: 400
VWidth: 0
Flags: W
HStem: -200 21G<200 250 300 350> 300 50<130.975 200 250 293.208> 600 50<74.1577 200 250 283.008> 780 20G<200 250 300 350>
VStem: 0 50<429.898 576.984> 200 50<-200 300 350 600 650 800> 300 50<-200 294.299 662.891 800>
LayerCount: 2
Fore
SplineSet
200 600 m 1
 150 600 l 2
 75 600 50 575 50 500 c 0
 50 425 125 350 200 350 c 1
 200 600 l 1
200 800 m 1
 250 800 l 1
 250 650 l 1
 300 650 300 725 300 800 c 1
 350 800 l 1
 350 700 350 600 250 600 c 1
 250 350 l 1
 350 350 350 300 350 200 c 2
 350 -200 l 1
 300 -200 l 1
 300 200 l 2
 300 275 300 300 250 300 c 1
 250 -200 l 1
 200 -200 l 1
 200 300 l 1
 100 300 0 400 0 500 c 0
 0 600 50 650 150 650 c 2
 200 650 l 1
 200 800 l 1
EndSplineSet
EndChar

StartChar: logicalnot
Encoding: 173 172 173
Width: 450
VWidth: 0
Flags: W
HStem: 350 50<0 350>
VStem: 350 50<200 350>
LayerCount: 2
Fore
SplineSet
0 400 m 1
 400 400 l 1
 400 200 l 1
 350 200 l 1
 350 350 l 1
 0 350 l 1
 0 400 l 1
EndSplineSet
EndChar

StartChar: Igrave
Encoding: 174 204 174
Width: 750
VWidth: 0
Flags: W
HStem: -200 50<109.302 200> 0 50<59.7546 250 300 551.776> 250 50<462.178 550> 400 50<472.013 611.525> 600 50<50 250 300 487.822> 850 50<150 179.451>
VStem: 0 50<-101.474 -9.96881> 250 50<50 600 700 762.891> 400 50<314.882 378.294> 500 50<666.992 700> 650 50<147.94 358.161>
LayerCount: 2
Fore
SplineSet
550 700 m 1
 550 600 450 600 400 600 c 2
 300 600 l 1
 300 50 l 1
 450 50 l 2
 575 50 650 125 650 250 c 0
 650 375 600 400 550 400 c 0
 500 400 450 375 450 350 c 0
 450 300 525 300 550 300 c 1
 550 250 l 1
 500 250 400 275 400 350 c 0
 400 400 475 450 550 450 c 0
 625 450 700 400 700 250 c 0
 700 100 600 0 450 0 c 2
 125 0 l 2
 100 0 50 0 50 -50 c 0
 50 -125 150 -150 200 -150 c 1
 200 -200 l 1
 100 -200 0 -150 0 -50 c 0
 0 25 55 50 125 50 c 2
 250 50 l 1
 250 600 l 1
 50 600 l 1
 50 650 l 1
 400 650 l 2
 425 650 500 650 500 700 c 1
 550 700 l 1
150 900 m 1
 200 900 300 775 300 700 c 1
 250 700 l 1
 250 750 175 850 150 850 c 1
 150 900 l 1
EndSplineSet
EndChar

StartChar: Iacute
Encoding: 175 205 175
Width: 750
VWidth: 0
Flags: W
HStem: -200 50<109.302 200> 0 50<59.7546 250 300 551.776> 250 50<462.178 550> 400 50<472.013 611.525> 600 50<50 250 300 487.822> 850 50<370.549 400>
VStem: 0 50<-101.474 -9.96881> 250 50<50 600 700 762.891> 400 50<314.882 378.294> 500 50<666.992 700> 650 50<147.94 358.161>
LayerCount: 2
Fore
SplineSet
550 700 m 1
 550 600 450 600 400 600 c 2
 300 600 l 1
 300 50 l 1
 450 50 l 2
 575 50 650 125 650 250 c 0
 650 375 600 400 550 400 c 0
 500 400 450 375 450 350 c 0
 450 300 525 300 550 300 c 1
 550 250 l 1
 500 250 400 275 400 350 c 0
 400 400 475 450 550 450 c 0
 625 450 700 400 700 250 c 0
 700 100 600 0 450 0 c 2
 125 0 l 2
 100 0 50 0 50 -50 c 0
 50 -125 150 -150 200 -150 c 1
 200 -200 l 1
 100 -200 0 -150 0 -50 c 0
 0 25 55 50 125 50 c 2
 250 50 l 1
 250 600 l 1
 50 600 l 1
 50 650 l 1
 400 650 l 2
 425 650 500 650 500 700 c 1
 550 700 l 1
400 850 m 1
 375 850 300 750 300 700 c 1
 250 700 l 1
 250 775 350 900 400 900 c 1
 400 850 l 1
EndSplineSet
EndChar

StartChar: Agrave
Encoding: 176 192 176
Width: 350
VWidth: 0
Flags: W
HStem: 0 21G<0 50 250 300> 350 50<93.5126 206.487> 650 50<139.283 160.717> 900 50<50 79.4508>
VStem: 0 50<0 214.499> 150 50<750 812.891> 250 50<0 214.499>
LayerCount: 2
Fore
SplineSet
0 0 m 1
 0 150 75 700 150 700 c 0
 225 700 300 150 300 0 c 1
 250 0 l 1
 250 69.6089004719 233.848669917 214.590674665 214.037968954 350 c 1
 85.9620310464 350 l 1
 66.151330083 214.590674665 50 69.6089004719 50 0 c 1
 0 0 l 1
50 950 m 1
 100 950 200 825 200 750 c 1
 150 750 l 1
 150 800 75 900 50 900 c 1
 50 950 l 1
206.48736763 400 m 1
 185.336497476 535.697891732 161.953143324 650 150 650 c 0
 138.046856676 650 114.663502524 535.697891732 93.5126323703 400 c 1
 206.48736763 400 l 1
EndSplineSet
EndChar

StartChar: Aacute
Encoding: 177 193 177
Width: 350
VWidth: 0
Flags: W
HStem: 0 21G<0 50 250 300> 350 50<93.5126 206.487> 650 50<139.283 160.717> 900 50<220.549 250>
VStem: 0 50<0 214.499> 100 50<750 812.891> 250 50<0 214.499>
LayerCount: 2
Fore
SplineSet
0 0 m 1
 0 150 75 700 150 700 c 0
 225 700 300 150 300 0 c 1
 250 0 l 1
 250 69.6089004719 233.848669917 214.590674665 214.037968954 350 c 1
 85.9620310464 350 l 1
 66.151330083 214.590674665 50 69.6089004719 50 0 c 1
 0 0 l 1
250 900 m 1
 225 900 150 800 150 750 c 1
 100 750 l 1
 100 825 200 950 250 950 c 1
 250 900 l 1
206.48736763 400 m 1
 185.336497476 535.697891732 161.953143324 650 150 650 c 0
 138.046856676 650 114.663502524 535.697891732 93.5126323703 400 c 1
 206.48736763 400 l 1
EndSplineSet
EndChar

StartChar: Egrave
Encoding: 178 200 178
Width: 600
VWidth: 0
Flags: W
HStem: 0 50<261.156 470.523> 400 50<61.9406 101.329 155.227 390.807> 650 50<259.069 478.771> 900 50<200 229.451>
VStem: 0 50<463.82 594.834> 100 50<184.443 400.203> 300 50<750 812.891> 500 50<79.8304 200 511.376 627.987>
LayerCount: 2
Fore
SplineSet
200 950 m 1
 250 950 350 825 350 750 c 1
 300 750 l 1
 300 800 225 900 200 900 c 1
 200 950 l 1
155.227250694 450.176820576 m 1
 168.497990153 450 183.36329973 450 200 450 c 0
 325 450 500 475 500 550 c 0
 500 600 500 650 400 650 c 0
 251.452498746 650 174.95841832 613.973289585 155.227250694 450.176820576 c 1
151.139508467 400.203407609 m 1
 150.376867837 384.438299486 150 367.721640193 150 350 c 0
 150 175 200 50 350 50 c 0
 400 50 500 50 500 125 c 2
 500 200 l 1
 550 200 l 1
 550 125 l 2
 550 25 425 0 350 0 c 0
 175 0 100 125 100 350 c 0
 100 368.302951174 100.442972591 385.719957168 101.328917772 402.287871187 c 1
 27.1189357457 408.681425652 3.5527136788e-15 432.942043144 0 525 c 0
 0 625 100 700 100 700 c 1
 150 700 l 1
 150 700 50 600 50 525 c 0
 50 474.940659654 61.1375002483 458.293820053 105.713937366 452.758044576 c 1
 129.506426809 644.272851424 227.60178102 700 400 700 c 0
 550 700 550 625 550 550 c 0
 550 425 350 400 200 400 c 0
 182.35681506 400 166.097105563 400.203407609 151.139508467 400.203407609 c 1
EndSplineSet
EndChar

StartChar: Eacute
Encoding: 179 201 179
Width: 600
VWidth: 0
Flags: W
HStem: 0 50<261.156 470.523> 400 50<61.9406 101.329 155.227 390.807> 650 50<259.069 478.771> 900 50<370.549 400>
VStem: 0 50<463.82 594.834> 100 50<184.443 400.203> 250 50<750 812.891> 500 50<79.8304 200 511.376 627.987>
LayerCount: 2
Fore
SplineSet
400 900 m 1
 375 900 300 800 300 750 c 1
 250 750 l 1
 250 825 350 950 400 950 c 1
 400 900 l 1
155.227250694 450.176820576 m 1
 168.497990153 450 183.36329973 450 200 450 c 0
 325 450 500 475 500 550 c 0
 500 600 500 650 400 650 c 0
 251.452498746 650 174.95841832 613.973289585 155.227250694 450.176820576 c 1
151.139508467 400.203407609 m 1
 150.376867837 384.438299486 150 367.721640193 150 350 c 0
 150 175 200 50 350 50 c 0
 400 50 500 50 500 125 c 2
 500 200 l 1
 550 200 l 1
 550 125 l 2
 550 25 425 0 350 0 c 0
 175 0 100 125 100 350 c 0
 100 368.302951174 100.442972591 385.719957168 101.328917772 402.287871187 c 1
 27.1189357457 408.681425652 3.5527136788e-15 432.942043144 0 525 c 0
 0 625 100 700 100 700 c 1
 150 700 l 1
 150 700 50 600 50 525 c 0
 50 474.940659654 61.1375002483 458.293820053 105.713937366 452.758044576 c 1
 129.506426809 644.272851424 227.60178102 700 400 700 c 0
 550 700 550 625 550 550 c 0
 550 425 350 400 200 400 c 0
 182.35681506 400 166.097105563 400.203407609 151.139508467 400.203407609 c 1
EndSplineSet
EndChar

StartChar: Ograve
Encoding: 180 210 180
Width: 600
VWidth: 0
Flags: W
HStem: 0 50<147.958 358.193> 200 50<243.668 339.629> 500 50<260.018 429.874> 650 50<173.092 500> 900 50<200 229.451>
VStem: 0 50<166.02 518.179> 150 50<293.668 439.982> 300 50<750 812.891> 350 50<260.709 350> 500 50<210.13 430.808>
LayerCount: 2
Fore
SplineSet
500 700 m 1xff40
 500 650 l 1
 300 650 l 2xff40
 100 650 50 550 50 350 c 0
 50 175 75 50 250 50 c 0
 425 50 500 175 500 350 c 0
 500 450 425 500 350 500 c 0xfec0
 250 500 200 450 200 350 c 0
 200 300 250 250 300 250 c 0xff40
 350 250 350 300 350 350 c 1
 400 350 l 1xfec0
 400 275 375 200 300 200 c 0xff40
 225 200 150 275 150 350 c 0
 150 475 225 550 350 550 c 0xfec0
 475 550 550 475 550 350 c 0
 550 150 450 0 250 0 c 0
 50 0 0 150 0 350 c 0
 0 575 75 700 300 700 c 2
 500 700 l 1xff40
200 950 m 1
 250 950 350 825 350 750 c 1
 300 750 l 1
 300 800 225 900 200 900 c 1
 200 950 l 1
EndSplineSet
EndChar

StartChar: Oacute
Encoding: 181 211 181
Width: 600
VWidth: 0
Flags: W
HStem: 0 50<147.958 358.193> 200 50<243.668 339.629> 500 50<260.018 429.874> 650 50<173.092 500> 900 50<370.549 400>
VStem: 0 50<166.02 518.179> 150 50<293.668 439.982> 250 50<750 812.891> 350 50<260.709 350> 500 50<210.13 430.808>
LayerCount: 2
Fore
SplineSet
500 700 m 1
 500 650 l 1
 300 650 l 2
 100 650 50 550 50 350 c 0
 50 175 75 50 250 50 c 0
 425 50 500 175 500 350 c 0
 500 450 425 500 350 500 c 0
 250 500 200 450 200 350 c 0
 200 300 250 250 300 250 c 0
 350 250 350 300 350 350 c 1
 400 350 l 1
 400 275 375 200 300 200 c 0
 225 200 150 275 150 350 c 0
 150 475 225 550 350 550 c 0
 475 550 550 475 550 350 c 0
 550 150 450 0 250 0 c 0
 50 0 0 150 0 350 c 0
 0 575 75 700 300 700 c 2
 500 700 l 1
400 900 m 1
 375 900 300 800 300 750 c 1
 250 750 l 1
 250 825 350 950 400 950 c 1
 400 900 l 1
EndSplineSet
EndChar

StartChar: Ugrave
Encoding: 182 217 182
Width: 450
VWidth: 0
Flags: W
HStem: 0 50<134.375 285.4> 650 50<0 50> 900 50<100 129.451>
VStem: 0 100<650 700> 50 50<86.4038 650> 200 50<750 812.891> 350 50<0 56.9508 126.904 700>
LayerCount: 2
Fore
SplineSet
350 700 m 1xee
 400 700 l 5
 400 0 l 5
 350 0 l 1
 350 56.95076244 l 1
 315.561517625 13.2801377221 264.420827674 -8.881784197e-15 200 0 c 0
 100 0 50 75 50 175 c 2
 50 650 l 1xee
 0 650 l 1
 0 700 l 1
 100 700 l 1xf6
 100 175 l 2
 100 100 125 50 200 50 c 0
 300 50 350 100 350 275 c 2
 350 700 l 1xee
100 950 m 1
 150 950 250 825 250 750 c 1
 200 750 l 1
 200 800 125 900 100 900 c 1
 100 950 l 1
EndSplineSet
EndChar

StartChar: Uacute
Encoding: 183 218 183
Width: 450
VWidth: 0
Flags: W
HStem: 0 50<134.375 285.4> 650 50<0 50> 900 50<270.549 300>
VStem: 0 100<650 700> 50 50<86.4038 650> 150 50<750 812.891> 350 50<0 56.9508 126.904 700>
LayerCount: 2
Fore
SplineSet
350 700 m 1xee
 400 700 l 5
 400 0 l 5
 350 0 l 1
 350 56.95076244 l 1
 315.561517625 13.2801377221 264.420827674 -8.881784197e-15 200 0 c 0
 100 0 50 75 50 175 c 2
 50 650 l 1xee
 0 650 l 1
 0 700 l 1
 100 700 l 1xf6
 100 175 l 2
 100 100 125 50 200 50 c 0
 300 50 350 100 350 275 c 2
 350 700 l 1xee
300 900 m 1
 275 900 200 800 200 750 c 1
 150 750 l 1
 150 825 250 950 300 950 c 1
 300 900 l 1
EndSplineSet
EndChar

StartChar: Yacute
Encoding: 184 221 184
Width: 800
VWidth: 0
Flags: W
HStem: -200 50<417.366 550> 150 50<406.546 652.888> 300 50<110.018 263.646 550 700> 480 20G<300 350> 750 50<216.927 406.452> 900 50<670.549 700>
VStem: 0 50<410.018 580.863> 250 50<-63.8008 68.5981> 300 50<391.521 500> 500 50<350 676.147> 550 50<750 812.891> 700 50<50 108.561 153.316 300 350 750>
LayerCount: 2
Fore
SplineSet
700 750 m 1xfed0
 750 750 l 1
 750 50 l 1
 700 50 l 1
 700 125 625 150 550 150 c 0
 450 150 300 125 300 0 c 0
 300 -125 475 -150 550 -150 c 1
 550 -200 l 1
 450 -200 250 -150 250 0 c 0
 250 150 425 200 550 200 c 0xff30
 605.787469833 200 661.574939666 184.438791048 700 153.316373144 c 1
 700 300 l 1
 500 300 l 1
 500 625 l 2
 500 675 425 750 300 750 c 0
 175 750 50 600 50 500 c 0
 50 400 100 350 200 350 c 0
 300 350 300 450 300 500 c 1
 350 500 l 1
 350 425 325 300 200 300 c 0
 75 300 0 375 0 500 c 0
 0 625 125 800 300 800 c 0
 475 800 550 700 550 625 c 2
 550 350 l 1
 700 350 l 1
 700 750 l 1xfed0
700 900 m 1
 675 900 600 800 600 750 c 1
 550 750 l 1
 550 825 650 950 700 950 c 1
 700 900 l 1
EndSplineSet
EndChar

StartChar: uni00B9
Encoding: 185 185 185
Width: 150
VWidth: 0
Flags: W
HStem: 500 21G<50 100> 700 50<0 48.7349> 780 20G<50 100>
VStem: 0 100<701.924 750> 50 50<500 701.924 750.781 800>
LayerCount: 2
Fore
SplineSet
100 500 m 1xe8
 50 500 l 1
 50 701.923788647 l 1xe8
 36.6025403784 700 20.0961894323 700 0 700 c 1
 0 750 l 1xf0
 50 750 50 750 50 800 c 1
 100 800 l 1
 100 500 l 1xe8
EndSplineSet
EndChar

StartChar: uni00B2
Encoding: 186 178 186
Width: 350
VWidth: 0
Flags: W
HStem: 500 50<50.3153 127.371 182.73 239.102> 600 50<50.3153 118.547> 750 50<60.8975 135.118>
VStem: 0 50<552.535 597.465 700 738.907> 150 50<621.687 737.822> 250 50<561.093 600>
LayerCount: 2
Fore
SplineSet
50 700 m 1
 0 700 l 1
 0 750 50 800 100 800 c 0
 175 800 200 700 200 650 c 0
 200 616.264164518 194.941748464 582.528329036 182.549987502 555.61826722 c 1
 187.160858004 552.071522214 192.803608172 550 200 550 c 0
 225 550 250 575 250 600 c 1
 300 600 l 1
 300 550 250 500 200 500 c 0
 179.92209368 500 165.219151656 507.166619061 153.97263118 517.662771686 c 1
 139.906814494 506.529836861 122.130019534 500 100 500 c 0
 50 500 0 525 0 575 c 0
 0 625 50 650 100 650 c 0
 126.386385598 650 140.395147286 637.62237609 149.646969401 621.576481798 c 1
 150 630.815634133 150 640.407817066 150 650 c 0
 150 675 150 750 100 750 c 0
 75 750 50 725 50 700 c 1
127.604911212 557.627606658 m 1
 117.409207185 579.842402573 111.224303271 600 100 600 c 0
 75 600 50 600 50 575 c 0
 50 550 75 550 100 550 c 0
 111.744172623 550 120.729833435 552.758511812 127.604911212 557.627606658 c 1
EndSplineSet
EndChar

StartChar: yacute
Encoding: 187 253 187
Width: 500
VWidth: 0
Flags: W
HStem: -200 50<226.953 350> 0 21G<400 450> 50 50<207.07 391.694> 200 50<250 400> 480 20G<400 450> 500 50<85.4896 160.168> 550 21G<250 300> 700 50<370.549 400>
VStem: 0 50<350 457.227> 100 50<-97.1985 1.47438> 200 50<250 449.063> 250 50<550 612.891> 400 50<0 39.534 79.8029 200 250 500>
LayerCount: 2
Fore
SplineSet
400 500 m 1xf9e8
 450 500 l 1
 450 0 l 1
 400 0 l 1
 400 50 350 50 300 50 c 0
 250 50 150 25 150 -50 c 0
 150 -125 275 -150 350 -150 c 1
 350 -200 l 1
 250 -200 100 -150 100 -50 c 0
 100 50 225 100 300 100 c 0xf9d8
 336.127647788 100 372.255295577 94.1990802901 400 79.8029264154 c 1
 400 200 l 1
 200 200 l 1
 200 350 l 2
 200 400 175 500 125 500 c 0
 75 500 50 425 50 350 c 1
 0 350 l 1
 0 450 25 550 125 550 c 0xf5e8
 225 550 250 450 250 350 c 2
 250 250 l 1
 400 250 l 1
 400 500 l 1xf9e8
400 700 m 1
 375 700 300 600 300 550 c 1
 250 550 l 1xf3d8
 250 625 350 750 400 750 c 1
 400 700 l 1
EndSplineSet
EndChar

StartChar: degree
Encoding: 188 176 188
Width: 250
VWidth: 0
Flags: W
HStem: 550 50<60.8975 128.294> 750 50<60.3712 145.732>
VStem: 0 50<610.898 740.348> 150 50<622.013 745.526>
LayerCount: 2
Fore
SplineSet
200 700 m 0
 200 625 150 550 100 550 c 0
 50 550 0 600 0 650 c 0
 0 725 25 800 100 800 c 0
 175 800 200 750 200 700 c 0
100 750 m 0
 50 750 50 700 50 650 c 0
 50 625 75 600 100 600 c 0
 125 600 150 650 150 700 c 0
 150 725 150 750 100 750 c 0
EndSplineSet
EndChar

StartChar: Aring
Encoding: 189 197 189
Width: 350
VWidth: 0
Flags: W
HStem: 0 21G<0 50 250 300> 350 50<93.5126 206.487> 650 50<139.523 160.477> 850 50<110.371 195.732>
VStem: 0 50<0 205.171> 50 50<710.702 839.291> 200 50<721.222 845.526> 250 50<0 207.393>
LayerCount: 2
Fore
SplineSet
150 850 m 0xf6
 100 850 100 800 100 750 c 0
 100 725 125 700 150 700 c 0
 175 700 200 750 200 800 c 0
 200 825 200 850 150 850 c 0xf6
214.037968954 350 m 1
 85.9620310464 350 l 1
 66.151330083 214.590674665 50 69.6089004719 50 0 c 1
 0 0 l 1xf9
 0 125.06086131 52.1340634388 528.170060961 112.935984468 658.755658205 c 1
 77.9410390689 675.245683645 50 712.622841822 50 750 c 0
 50 825 75 900 150 900 c 0
 225 900 250 850 250 800 c 0xf6
 250 743.101144169 221.222401823 686.202288338 185.499370934 662.051680704 c 1
 246.968791578 535.097754583 300 126.132321499 300 0 c 1
 250 0 l 1xf1
 250 69.6089004719 233.848669917 214.590674665 214.037968954 350 c 1
206.48736763 400 m 1
 185.336497476 535.697891732 161.953143324 650 150 650 c 0
 138.046856676 650 114.663502524 535.697891732 93.5126323703 400 c 1
 206.48736763 400 l 1
EndSplineSet
EndChar

StartChar: dieresis
Encoding: 190 168 190
Width: 500
VWidth: 0
Flags: W
HStem: 600 200
VStem: 0 100<750 789.298> 100 100<750 789.298> 250 100<750 789.298> 350 100<750 789.298>
LayerCount: 2
Fore
SplineSet
100 750 m 1xc0
 100 775 125 800 150 800 c 0
 175 800 200 775 200 750 c 0
 200 700 153.033203125 653.033203125 100 600 c 1xa0
 46.966796875 653.033203125 0 700 0 750 c 0
 0 775 25 800 50 800 c 0
 75 800 100 775 100 750 c 1xc0
350 750 m 1x90
 350 775 375 800 400 800 c 0
 425 800 450 775 450 750 c 0
 450 700 403.033203125 653.033203125 350 600 c 1x88
 296.966796875 653.033203125 250 700 250 750 c 0
 250 775 275 800 300 800 c 0
 325 800 350 775 350 750 c 1x90
EndSplineSet
EndChar

StartChar: Adieresis
Encoding: 191 196 191
Width: 350
VWidth: 0
Flags: W
HStem: 0 21G<0 50 250 300> 350 50<86.6365 213.363> 750 50<141.65 158.35> 800 100<50 100 200 250>
VStem: 0 50<0 203.813> 50 50<800 900> 200 50<800 900> 250 50<0 203.813>
LayerCount: 2
Fore
SplineSet
0 0 m 1xe9
 0 150 75 800 150 800 c 0
 225 800 300 150 300 0 c 1
 250 0 l 1
 250 63.0951615324 236.730001971 205.810311241 219.49303557 350 c 1
 80.5069644302 350 l 1
 63.2699980293 205.810311241 50 63.0951615324 50 0 c 1
 0 0 l 1xe9
50 900 m 1xd4
 100 900 l 1
 100 800 l 1
 50 800 l 1
 50 900 l 1xd4
200 900 m 1xd2
 250 900 l 1
 250 800 l 1
 200 800 l 1
 200 900 l 1xd2
213.36347598 400 m 1
 190.615570512 581.024107577 163.267123072 750 150 750 c 0xe0
 136.732876928 750 109.384429488 581.024107577 86.6365240198 400 c 1
 213.36347598 400 l 1
EndSplineSet
EndChar

StartChar: agrave.n.l
Encoding: 192 57568 192
Width: 450
VWidth: 0
Flags: W
HStem: 0 50<93.6684 215.263 418.381 450> 250 50<113.588 240.905> 450 50<138.271 251.474> 550 21G<150 200> 700 50<50 79.4508>
VStem: 0 50<93.6684 196.263 300 360.069 423.995 500> 150 50<550 612.891> 300 50<233.553 384.932>
CounterMasks: 1 07
LayerCount: 2
Fore
SplineSet
0 500 m 1
 50 500 l 1
 50 423.995155788 l 1
 88.4250603337 468.877582096 144.212530167 500 200 500 c 0
 300 500 350 400 350 250 c 0
 350 222.435537117 347.625626206 197.720322786 343.335016986 175.592563655 c 1
 387.262848901 112.89566799 424.92099125 50 450 50 c 1
 450 0 l 1
 403.205958965 0 361.886123621 54.7420569099 323.47889191 112.994129582 c 1
 282.665338472 25.5141645882 203.575586942 3.5527136788e-15 150 0 c 0
 75 0 0 75 0 150 c 0
 0 225 100 300 200 300 c 0
 233.840280227 300 267.680560455 271.370885853 299.583206192 233.489002467 c 1
 299.858404674 238.852849023 300 244.355626849 300 250 c 0
 300 350 275 450 200 450 c 0
 125 450 50 350 50 300 c 1
 0 300 l 1
 0 500 l 1
50 750 m 1
 100 750 200 625 200 550 c 1
 150 550 l 1
 150 600 75 700 50 700 c 1
 50 750 l 1
287.927832432 167.550794445 m 1
 257.671326377 213.04464571 228.835663189 250 200 250 c 0
 125 250 50 200 50 150 c 0
 50 100 100 50 150 50 c 0
 189.391502302 50 259.816813675 81.0338090718 287.927832432 167.550794445 c 1
EndSplineSet
EndChar

StartChar: Edieresis
Encoding: 193 203 193
Width: 600
VWidth: 0
Flags: W
HStem: 0 50<261.156 470.523> 400 50<61.9406 101.329 155.227 390.807> 650 50<259.069 478.771> 750 150<250 300 350 400>
VStem: 0 50<463.82 594.834> 100 50<184.443 400.203> 250 50<750 900> 350 50<750 900> 500 50<79.8304 200 511.376 627.987>
LayerCount: 2
Fore
SplineSet
250 900 m 1
 300 900 l 1
 300 750 l 1
 250 750 l 1
 250 900 l 1
350 900 m 1
 400 900 l 1
 400 750 l 1
 350 750 l 1
 350 900 l 1
155.227250694 450.176820576 m 1
 168.497990153 450 183.36329973 450 200 450 c 0
 325 450 500 475 500 550 c 0
 500 600 500 650 400 650 c 0
 251.452498746 650 174.95841832 613.973289585 155.227250694 450.176820576 c 1
151.139508467 400.203407609 m 1
 150.376867837 384.438299486 150 367.721640193 150 350 c 0
 150 175 200 50 350 50 c 0
 400 50 500 50 500 125 c 2
 500 200 l 1
 550 200 l 1
 550 125 l 2
 550 25 425 0 350 0 c 0
 175 0 100 125 100 350 c 0
 100 368.302951174 100.442972591 385.719957168 101.328917772 402.287871187 c 1
 27.1189357457 408.681425652 3.5527136788e-15 432.942043144 0 525 c 0
 0 625 100 700 100 700 c 1
 150 700 l 1
 150 700 50 600 50 525 c 0
 50 474.940659654 61.1375002483 458.293820053 105.713937366 452.758044576 c 1
 129.506426809 644.272851424 227.60178102 700 400 700 c 0
 550 700 550 625 550 550 c 0
 550 425 350 400 200 400 c 0
 182.35681506 400 166.097105563 400.203407609 151.139508467 400.203407609 c 1
EndSplineSet
EndChar

StartChar: edieresis
Encoding: 194 235 194
Width: 400
VWidth: 0
Flags: W
HStem: 0 50<128.977 271.894> 450 50<124.835 259.541> 550 150<100 150 200 250>
VStem: 0 50<169.286 359.546> 100 50<550 700> 200 50<550 700> 300 50<76.7532 100 300.677 408.16>
LayerCount: 2
Fore
SplineSet
100 700 m 1
 150 700 l 1
 150 550 l 1
 100 550 l 1
 100 700 l 1
200 700 m 1
 250 700 l 1
 250 550 l 1
 200 550 l 1
 200 700 l 1
64.4510259553 151.675225619 m 1
 85.8557220651 97.5565904769 131.038713413 50 200 50 c 0
 225 50 300 75 300 100 c 1
 350 100 l 1
 350 50 250 0 200 0 c 0
 75 0 0 100 0 225 c 0
 0 375 50 500 200 500 c 0
 300 500 350 400 350 350 c 0
 350 235.838209407 204.031358369 163.381744995 64.4510259553 151.675225619 c 1
51.6025492224 201.080355933 m 1
 170.297838499 210.517656225 300 280.258828112 300 350 c 0
 300 375 275 450 200 450 c 0
 75 450 50 325 50 225 c 0
 50 217.247865078 50.5341830741 209.22863862 51.6025492224 201.080355933 c 1
EndSplineSet
Substitution2: "'aalt' - low.low-1" edieresis.l.l
Substitution2: "'aalt' - low.none-1" edieresis.l.n
Substitution2: "'aalt' - none.low-1" edieresis.n.l
EndChar

StartChar: Idieresis
Encoding: 195 207 195
Width: 750
VWidth: 0
Flags: W
HStem: -200 50<109.302 200> 0 50<59.7546 250 300 551.776> 250 50<462.178 550> 400 50<472.013 611.525> 600 50<50 250 300 487.822> 700 150<200 250 300 350>
VStem: 0 50<-101.474 -9.96881> 200 50<700 850> 250 50<50 600> 300 50<700 850> 400 50<314.882 378.294> 500 50<666.992 700> 650 50<147.94 358.161>
LayerCount: 2
Fore
SplineSet
550 700 m 1xfeb8
 550 600 450 600 400 600 c 2
 300 600 l 1
 300 50 l 1xfeb8
 450 50 l 2
 575 50 650 125 650 250 c 0
 650 375 600 400 550 400 c 0
 500 400 450 375 450 350 c 0
 450 300 525 300 550 300 c 1
 550 250 l 1
 500 250 400 275 400 350 c 0
 400 400 475 450 550 450 c 0
 625 450 700 400 700 250 c 0
 700 100 600 0 450 0 c 2
 125 0 l 2
 100 0 50 0 50 -50 c 0
 50 -125 150 -150 200 -150 c 1
 200 -200 l 1xff38
 100 -200 0 -150 0 -50 c 0
 0 25 55 50 125 50 c 2
 250 50 l 1
 250 600 l 1
 50 600 l 1
 50 650 l 1
 400 650 l 2
 425 650 500 650 500 700 c 1
 550 700 l 1xfeb8
200 850 m 1xff38
 250 850 l 1
 250 700 l 1
 200 700 l 1
 200 850 l 1xff38
300 850 m 1xfe78
 350 850 l 1
 350 700 l 1
 300 700 l 1
 300 850 l 1xfe78
EndSplineSet
EndChar

StartChar: Odieresis
Encoding: 196 214 196
Width: 600
VWidth: 0
Flags: W
HStem: 0 50<147.958 358.193> 200 50<243.668 339.629> 500 50<260.018 429.874> 650 50<173.092 500> 750 150<200 250 300 350>
VStem: 0 50<166.02 518.179> 150 50<293.668 439.982> 200 50<750 900> 300 50<750 900> 350 50<260.709 350> 500 50<210.13 430.808>
LayerCount: 2
Fore
SplineSet
500 700 m 1xfda0
 500 650 l 1
 300 650 l 2xfda0
 100 650 50 550 50 350 c 0
 50 175 75 50 250 50 c 0
 425 50 500 175 500 350 c 0
 500 450 425 500 350 500 c 0xfd60
 250 500 200 450 200 350 c 0
 200 300 250 250 300 250 c 0xfea0
 350 250 350 300 350 350 c 1
 400 350 l 1xfc60
 400 275 375 200 300 200 c 0xfca0
 225 200 150 275 150 350 c 0
 150 475 225 550 350 550 c 0xfe60
 475 550 550 475 550 350 c 0
 550 150 450 0 250 0 c 0
 50 0 0 150 0 350 c 0
 0 575 75 700 300 700 c 2
 500 700 l 1xfda0
200 900 m 1
 250 900 l 1
 250 750 l 1
 200 750 l 1
 200 900 l 1
300 900 m 1
 350 900 l 1
 350 750 l 1
 300 750 l 1
 300 900 l 1
EndSplineSet
EndChar

StartChar: Udieresis
Encoding: 197 220 197
Width: 450
VWidth: 0
Flags: W
HStem: 0 50<134.375 285.4> 650 50<0 50> 750 150<150 200 250 300>
VStem: 0 100<650 700> 50 50<86.4038 650> 150 50<750 900> 250 50<750 900> 350 50<0 56.9508 126.904 700>
LayerCount: 2
Fore
SplineSet
350 700 m 1xef
 400 700 l 5
 400 0 l 5
 350 0 l 1
 350 56.95076244 l 1
 315.561517625 13.2801377221 264.420827674 -8.881784197e-15 200 0 c 0
 100 0 50 75 50 175 c 2
 50 650 l 1xef
 0 650 l 1
 0 700 l 1
 100 700 l 1xf7
 100 175 l 2
 100 100 125 50 200 50 c 0
 300 50 350 100 350 275 c 2
 350 700 l 1xef
150 900 m 1
 200 900 l 1
 200 750 l 1
 150 750 l 1
 150 900 l 1
250 900 m 1
 300 900 l 1
 300 750 l 1
 250 750 l 1
 250 900 l 1
EndSplineSet
EndChar

StartChar: onehalf
Encoding: 198 189 198
Width: 600
VWidth: 0
Flags: W
HStem: 0 50<300.315 377.371 432.73 489.102> 100 50<300.315 368.547> 250 50<310.898 385.118> 650 50<50 98.7349>
VStem: 0 50<0 79.3945> 50 100<651.924 700> 100 50<450 651.924 700.781 750> 250 50<52.5349 97.4651 200 238.907> 400 50<121.687 237.822> 450 50<670.605 750> 500 50<61.0933 100>
LayerCount: 2
Fore
SplineSet
450 750 m 1xf940
 500 750 l 1
 500 500 50 200 50 0 c 1
 0 0 l 1
 0 250 450 550 450 750 c 1xf940
150 450 m 1xf3
 100 450 l 1
 100 651.923788647 l 1xf3
 86.6025403784 650 70.0961894323 650 50 650 c 1
 50 700 l 1xf5
 100 700 100 700 100 750 c 1
 150 750 l 1
 150 450 l 1xf3
300 200 m 1
 250 200 l 1
 250 250 300 300 350 300 c 0
 425 300 450 200 450 150 c 0xf180
 450 116.264164518 444.941748464 82.5283290362 432.549987502 55.6182672204 c 1
 437.160858004 52.0715222139 442.803608172 50 450 50 c 0xf140
 475 50 500 75 500 100 c 1
 550 100 l 1xf120
 550 50 500 0 450 0 c 0xf140
 429.92209368 0 415.219151656 7.16661906109 403.97263118 17.6627716862 c 1
 389.906814494 6.52983686116 372.130019534 9.7699626167e-15 350 0 c 0
 300 0 250 25 250 75 c 0
 250 125 300 150 350 150 c 0
 376.386385598 150 390.395147286 137.62237609 399.646969401 121.576481798 c 1
 400 130.815634133 400 140.407817066 400 150 c 0xf180
 400 175 400 250 350 250 c 0
 325 250 300 225 300 200 c 1
377.604911212 57.6276066584 m 1
 367.409207185 79.8424025733 361.224303271 100 350 100 c 0
 325 100 300 100 300 75 c 0
 300 50 325 50 350 50 c 0
 361.744172623 50 370.729833435 52.7585118122 377.604911212 57.6276066584 c 1
EndSplineSet
EndChar

StartChar: uni00B3
Encoding: 199 179 199
Width: 350
VWidth: 0
Flags: W
HStem: 500 50<54.9177 194.611> 650 50<100 191.406> 750 50<54.4739 199.849>
VStem: 0 50<555.416 600 700 746.362> 200 50<556.521 639.565 705.319 745.527>
LayerCount: 2
Fore
SplineSet
100 650 m 1
 100 700 l 1
 150 700 200 700 200 725 c 0
 200 750 175 750 100 750 c 0
 75 750 50 750 50 700 c 1
 0 700 l 1
 0 800 50 800 100 800 c 0
 200 800 250 800 250 725 c 0
 250 699.397531701 241.26018156 682.534881842 226.764023673 671.428571429 c 1
 241.26018156 656.620157545 250 634.136624399 250 600 c 0
 250 500 200 500 100 500 c 0
 25 500 0 556.455078125 0 600 c 1
 50 600 l 1
 50 582.41015625 50 550 100 550 c 0
 175 550 200 550 200 600 c 0
 200 650 150 650 100 650 c 1
EndSplineSet
EndChar

StartChar: onequarter
Encoding: 200 188 200
Width: 550
VWidth: 0
Flags: W
HStem: 0 21G<0 50 350 400> 50 50<311.093 350 400 449.651> 150 50<400.718 449.282> 250 50<339.834 450> 650 50<50 98.7349>
VStem: 0 50<0 79.3945> 50 100<651.924 700> 100 50<450 651.924 700.781 750> 250 50<110.898 213.336> 350 50<0 50 100 148.566> 450 50<100.912 149.282 670.605 750>
LayerCount: 2
Fore
SplineSet
450 750 m 1xfce0
 500 750 l 1
 500 500 50 200 50 0 c 1
 0 0 l 1
 0 250 450 550 450 750 c 1xfce0
150 450 m 1xf9e0
 100 450 l 1
 100 651.923788647 l 1xf9e0
 86.6025403784 650 70.0961894323 650 50 650 c 1
 50 700 l 1xfae0
 100 700 100 700 100 750 c 1
 150 750 l 1
 150 450 l 1xf9e0
450 125 m 0
 450 150 450 150 425 150 c 0
 400 150 400 150 400 125 c 2
 400 100 l 1
 450 100 450 100 450 125 c 0
350 50 m 1
 300 50 250 100 250 150 c 0
 250 250 325 300 450 300 c 1
 450 250 l 1
 350 250 300 225 300 150 c 0
 300 125 325 100 350 100 c 1
 350 125 l 2
 350 175 375 200 425 200 c 0
 475 200 500 175 500 125 c 0
 500 75 475 50 400 50 c 1
 400 0 l 1
 350 0 l 1
 350 50 l 1
EndSplineSet
EndChar

StartChar: superscript_four
Encoding: 201 8308 201
Width: 300
VWidth: 0
Flags: W
HStem: 500 21G<100 150> 550 50<61.0933 100 150 199.651> 650 50<150.718 199.282> 750 50<89.8338 200>
VStem: 0 50<610.898 713.336> 100 50<500 550 600 648.566> 200 50<600.912 649.282>
CounterMasks: 1 0e
LayerCount: 2
Fore
SplineSet
200 625 m 0
 200 650 200 650 175 650 c 0
 150 650 150 650 150 625 c 2
 150 600 l 1
 200 600 200 600 200 625 c 0
100 550 m 1
 50 550 0 600 0 650 c 0
 0 750 75 800 200 800 c 1
 200 750 l 1
 100 750 50 725 50 650 c 0
 50 625 75 600 100 600 c 1
 100 625 l 2
 100 675 125 700 175 700 c 0
 225 700 250 675 250 625 c 0
 250 575 225 550 150 550 c 1
 150 500 l 1
 100 500 l 1
 100 550 l 1
EndSplineSet
EndChar

StartChar: threequarters
Encoding: 202 190 202
Width: 550
VWidth: 0
Flags: W
HStem: 0 21G<0 50 350 400> 50 50<311.093 350 400 449.651> 150 50<400.718 449.282> 250 50<339.834 450> 450 50<54.9177 194.611> 530 20G<0 50> 600 50<100 191.406> 700 50<54.4739 199.849>
VStem: 0 50<0 79.3945 505.416 550 650 696.362> 200 50<506.521 589.565 655.319 695.527> 250 50<110.898 213.336> 350 50<0 50 100 148.566> 450 50<100.912 149.282 670.605 750>
LayerCount: 2
Fore
SplineSet
450 750 m 1xff98
 500 750 l 1
 500 500 50 200 50 0 c 1
 0 0 l 1
 0 250 450 550 450 750 c 1xff98
450 125 m 0
 450 150 450 150 425 150 c 0
 400 150 400 150 400 125 c 2
 400 100 l 1
 450 100 450 100 450 125 c 0
350 50 m 1
 300 50 250 100 250 150 c 0
 250 250 325 300 450 300 c 1
 450 250 l 1
 350 250 300 225 300 150 c 0xffb8
 300 125 325 100 350 100 c 1
 350 125 l 2
 350 175 375 200 425 200 c 0
 475 200 500 175 500 125 c 0
 500 75 475 50 400 50 c 1
 400 0 l 1
 350 0 l 1
 350 50 l 1
100 600 m 1
 100 650 l 1
 150 650 200 650 200 675 c 0
 200 700 175 700 100 700 c 0
 75 700 50 700 50 650 c 1
 0 650 l 1
 0 750 50 750 100 750 c 0
 200 750 250 750 250 675 c 0
 250 649.397531701 241.26018156 632.534881842 226.764023673 621.428571429 c 1
 241.26018156 606.620157545 250 584.136624399 250 550 c 0
 250 450 200 450 100 450 c 0
 25 450 0 506.455078125 0 550 c 1
 50 550 l 1
 50 532.41015625 50 500 100 500 c 0
 175 500 200 500 200 550 c 0xffd8
 200 600 150 600 100 600 c 1
EndSplineSet
EndChar

StartChar: oslash
Encoding: 203 248 203
Width: 300
VWidth: 0
Flags: W
HStem: -50 50<0 64.6815> 0 50.0239<127.296 173.669> 449.976 50.0239<76.3306 122.704> 500 50<185.318 250>
VStem: 0 50<107.087 423.131> 100 50<67.7827 432.217> 200 50<76.8694 392.913>
CounterMasks: 1 0e
LayerCount: 2
Fore
SplineSet
250 550 m 1x9e
 250 500 l 1
 200 500 l 2
 194.938413254 500 189.876826509 493.851281508 185.022721576 483.213699031 c 1
 235.615235243 448.79398497 250 363.781757242 250 250 c 0
 250 100 225 0 125 0 c 0x5e
 119.678454047 0 114.569299479 0.283188513291 109.665001352 0.842030507933 c 1
 94.8000211318 -30.1978832572 75.2288843525 -49.9999999715 50 -50 c 2
 0 -50 l 1
 0 0 l 1
 50 0 l 2
 55.0615867457 0 60.1231734914 6.14871849219 64.9772784236 16.7863009687 c 1
 14.3847647567 51.2060150301 2.6645352591e-14 136.218242758 0 250 c 0
 0 400 25 500 125 500 c 0
 130.321545953 500 135.430700521 499.716811487 140.334998648 499.157969492 c 1
 155.199978868 530.197883257 174.771115648 549.999999971 200 550 c 2
 250 550 l 1x9e
122.703513299 449.976098773 m 1x2e
 49.999999993 448.447793801 50 373.710926065 50 250 c 0
 50 158.088740928 79.8151755443 93.2100563981 79.8151755443 65.302338257 c 1
 91.6685051202 117.879694285 100 192.271342022 100 250 c 0
 100 313.593189486 106.470549998 390.127478969 122.703513299 449.976098773 c 1x2e
127.296486701 50.0239012269 m 1x4e
 200.000000007 51.552206199 200 126.289073935 200 250 c 0
 200 341.911259072 170.184824456 406.789943602 170.184824456 434.697661743 c 1
 158.33149488 382.120305715 150 307.728657978 150 250 c 0
 150 186.406810514 143.529450002 109.872521031 127.296486701 50.0239012269 c 1x4e
EndSplineSet
EndChar

StartChar: ograve
Encoding: 204 242 204
Width: 500
VWidth: 0
Flags: W
HStem: 0 50<147.94 339.982> 100 50<210.898 278.294> 300 50<233.024 376.984> 450 50<189.844 400> 550 21G<250 300> 700 50<150 179.451>
VStem: 0 50<147.94 334.391> 150 50<160.898 268.387> 250 50<550 612.891> 300 50<172.622 250> 400 50<110.018 276.984>
LayerCount: 2
Fore
SplineSet
400 500 m 1xff60
 400 450 l 1
 300 450 l 2xff60
 175 450 50 375 50 250 c 0
 50 125 125 50 250 50 c 0xffa0
 350 50 400 100 400 200 c 0
 400 275 375 300 300 300 c 0xff60
 225 300 200 250 200 200 c 0
 200 175 225 150 250 150 c 0xffa0
 275 150 300 200 300 250 c 1
 350 250 l 1xff60
 350 175 300 100 250 100 c 0xffa0
 200 100 150 150 150 200 c 0
 150 275 200 350 300 350 c 0xff60
 400 350 450 300 450 200 c 0
 450 75 375 0 250 0 c 0xffa0
 100 0 0 100 0 250 c 0
 0 400 150 500 300 500 c 2
 400 500 l 1xff60
150 750 m 1
 200 750 300 625 300 550 c 1
 250 550 l 1xffa0
 250 600 175 700 150 700 c 1
 150 750 l 1
EndSplineSet
EndChar

StartChar: oacute
Encoding: 205 243 205
Width: 500
VWidth: 0
Flags: W
HStem: 0 50<147.94 339.982> 100 50<210.898 278.294> 300 50<233.024 376.984> 450 50<189.844 400> 550 21G<200 250> 700 50<320.549 350>
VStem: 0 50<147.94 334.391> 150 50<160.898 268.387> 200 50<550 612.891> 300 50<172.622 250> 400 50<110.018 276.984>
LayerCount: 2
Fore
SplineSet
400 500 m 1xfee0
 400 450 l 1
 300 450 l 2
 175 450 50 375 50 250 c 0
 50 125 125 50 250 50 c 0xfee0
 350 50 400 100 400 200 c 0
 400 275 375 300 300 300 c 0
 225 300 200 250 200 200 c 0xff60
 200 175 225 150 250 150 c 0
 275 150 300 200 300 250 c 1
 350 250 l 1
 350 175 300 100 250 100 c 0xfee0
 200 100 150 150 150 200 c 0xff60
 150 275 200 350 300 350 c 0
 400 350 450 300 450 200 c 0
 450 75 375 0 250 0 c 0
 100 0 0 100 0 250 c 0
 0 400 150 500 300 500 c 2
 400 500 l 1xfee0
350 700 m 1
 325 700 250 600 250 550 c 1
 200 550 l 1
 200 625 300 750 350 750 c 1
 350 700 l 1
EndSplineSet
EndChar

StartChar: odieresis
Encoding: 206 246 206
Width: 500
VWidth: 0
Flags: W
HStem: 0 50<147.94 339.982> 100 50<210.898 278.294> 300 50<233.024 376.984> 450 50<189.844 400> 550 150<150 200 250 300>
VStem: 0 50<147.94 334.391> 150 50<160.898 268.387 550 700> 250 50<550 700> 300 50<172.622 250> 400 50<110.018 276.984>
LayerCount: 2
Fore
SplineSet
400 500 m 1xfec0
 400 450 l 1
 300 450 l 2xfec0
 175 450 50 375 50 250 c 0
 50 125 125 50 250 50 c 0xff40
 350 50 400 100 400 200 c 0
 400 275 375 300 300 300 c 0xfec0
 225 300 200 250 200 200 c 0
 200 175 225 150 250 150 c 0xff40
 275 150 300 200 300 250 c 1
 350 250 l 1xfec0
 350 175 300 100 250 100 c 0xff40
 200 100 150 150 150 200 c 0
 150 275 200 350 300 350 c 0xfec0
 400 350 450 300 450 200 c 0
 450 75 375 0 250 0 c 0xff40
 100 0 0 100 0 250 c 0
 0 400 150 500 300 500 c 2
 400 500 l 1xfec0
150 700 m 1
 200 700 l 1
 200 550 l 1
 150 550 l 1
 150 700 l 1
250 700 m 1xff40
 300 700 l 1
 300 550 l 1
 250 550 l 1
 250 700 l 1xff40
EndSplineSet
EndChar

StartChar: ydieresis
Encoding: 207 255 207
Width: 500
VWidth: 0
Flags: W
HStem: -200 50<226.953 350> 0 21G<400 450> 50 50<207.07 391.694> 200 50<250 400> 480 20G<400 450> 500 50<85.4896 160.168> 550 150<250 300 350 400>
VStem: 0 50<350 457.227> 100 50<-97.1985 1.47438> 200 50<250 449.063> 250 50<550 700> 350 50<550 700> 400 50<0 39.534 79.8029 200 250 500>
LayerCount: 2
Fore
SplineSet
400 500 m 1xf9c8
 450 500 l 1
 450 0 l 1
 400 0 l 1xf9c8
 400 50 350 50 300 50 c 0
 250 50 150 25 150 -50 c 0
 150 -125 275 -150 350 -150 c 1
 350 -200 l 1
 250 -200 100 -150 100 -50 c 0
 100 50 225 100 300 100 c 0xf9b0
 336.127647788 100 372.255295577 94.1990802901 400 79.8029264154 c 1
 400 200 l 1
 200 200 l 1
 200 350 l 2
 200 400 175 500 125 500 c 0
 75 500 50 425 50 350 c 1
 0 350 l 1
 0 450 25 550 125 550 c 0xf5c8
 225 550 250 450 250 350 c 2
 250 250 l 1
 400 250 l 1
 400 500 l 1xf9c8
250 700 m 1xf3a0
 300 700 l 1
 300 550 l 1
 250 550 l 1
 250 700 l 1xf3a0
350 700 m 1xf390
 400 700 l 1
 400 550 l 1
 350 550 l 1
 350 700 l 1xf390
EndSplineSet
EndChar

StartChar: thorn
Encoding: 208 254 208
Width: 350
VWidth: 0
Flags: W
HStem: -200 21G<0 50> 0 50<50 110.205> 450 50<92.257 201.281> 780 20G<0 50>
VStem: 0 50<-200 0 50 407.585 456.175 800> 250 50<188.452 386.091>
LayerCount: 2
Fore
SplineSet
50 350 m 2
 50 50 l 1
 125 50 250 175 250 250 c 0
 250 400 200 450 150 450 c 0
 100 450 50 400 50 350 c 2
50 0 m 1
 50 -200 l 1
 0 -200 l 1
 -0 133.333333333 0 466.666666667 0 800 c 1
 50 800 l 1
 50 456.174665976 l 1
 77.7447044233 482.59724087 113.872352212 500 150 500 c 0
 250 500 300 425 300 250 c 0
 300 150 150 0 50 0 c 1
EndSplineSet
EndChar

StartChar: Thorn
Encoding: 209 222 209
Width: 450
VWidth: 0
Flags: W
HStem: 0 21G<100 150> 150 50<0 100 150 241.797> 600 50<0 100 150 224.592> 780 20G<100 150>
VStem: 100 50<0 150 200 600 650 800> 350 50<289.246 452.916>
LayerCount: 2
Fore
SplineSet
150 600 m 1
 150 200 l 1
 250 200 350 275 350 350 c 0
 350 450 275 600 150 600 c 1
100 200 m 1
 100 600 l 1
 0 600 l 1
 0 650 l 1
 100 650 l 1
 100 800 l 1
 150 800 l 1
 150 650 l 1
 300 650 400 500 400 350 c 0
 400 225 275 150 150 150 c 1
 150 0 l 1
 100 0 l 1
 100 150 l 1
 0 150 l 1
 0 200 l 1
 100 200 l 1
EndSplineSet
EndChar

StartChar: yen
Encoding: 210 165 210
Width: 650
VWidth: 0
Flags: W
HStem: -200 50<167.366 300> 150 50<156.546 402.888> 300 50<150 250 300 450 500 600> 450 50<150 250 300 450 500 600> 750 50<0 139.034>
VStem: 0 50<-63.8008 68.5981> 250 50<350 450 500 674.093> 450 50<50 108.561 153.316 300 350 450 500 800>
LayerCount: 2
Fore
SplineSet
0 800 m 1
 175 800 300 725 300 625 c 2
 300 500 l 1
 450 500 l 1
 450 800 l 1
 500 800 l 1
 500 500 l 1
 600 500 l 1
 600 450 l 1
 500 450 l 1
 500 350 l 1
 600 350 l 1
 600 300 l 1
 500 300 l 1
 500 50 l 1
 450 50 l 1
 450 125 375 150 300 150 c 0
 200 150 50 125 50 0 c 0
 50 -125 225 -150 300 -150 c 1
 300 -200 l 1
 200 -200 0 -150 0 0 c 0
 0 150 175 200 300 200 c 0
 355.787469833 200 411.574939666 184.438791048 450 153.316373144 c 1
 450 300 l 5
 150 300 l 5
 150 350 l 1
 250 350 l 1
 250 450 l 1
 150 450 l 1
 150 500 l 1
 250 500 l 1
 250 625 l 2
 250 700 125 750 0 750 c 1
 0 800 l 1
450 350 m 1
 450 450 l 1
 300 450 l 1
 300 350 l 1
 450 350 l 1
EndSplineSet
EndChar

StartChar: cedilla
Encoding: 211 184 211
Width: 300
VWidth: 0
Flags: W
HStem: -200 50<60.8975 168.387> 0 50<100 185.4>
VStem: 0 50<-138.907 -100> 200 50<-116.976 -16.6679>
LayerCount: 2
Fore
SplineSet
50 -100 m 1
 50 -125 75 -150 100 -150 c 0
 150 -150 200 -125 200 -50 c 0
 200 -25 175 0 100 0 c 1
 100 50 l 1
 200 50 250 0 250 -50 c 0
 250 -150 175 -200 100 -200 c 0
 50 -200 0 -150 0 -100 c 1
 50 -100 l 1
EndSplineSet
EndChar

StartChar: Ccedilla
Encoding: 212 199 212
Width: 450
VWidth: 0
Flags: W
HStem: -200 50<210.898 318.387> 0 50<161.945 335.4> 500 21G<350 400> 750 50<129.467 269.991>
VStem: 0 50<184.312 565.486> 150 50<-138.907 -100> 350 50<-116.976 -16.6679 500 643.213>
LayerCount: 2
Fore
SplineSet
400 500 m 1
 350 500 l 1
 350 600 325 750 200 750 c 0
 50 750 50 550 50 350 c 0
 50 175 100 50 250 50 c 0
 350 50 400 0 400 -50 c 0
 400 -150 325 -200 250 -200 c 0
 200 -200 150 -150 150 -100 c 1
 200 -100 l 1
 200 -125 225 -150 250 -150 c 0
 300 -150 350 -125 350 -50 c 0
 350 -25 325 0 250 0 c 0
 75 0 0 125 0 350 c 0
 0 625 25 800 200 800 c 0
 375 800 400 625 400 500 c 1
EndSplineSet
EndChar

StartChar: mu
Encoding: 213 181 213
Width: 450
VWidth: 0
Flags: WO
HStem: -200 21G<0 50> 0 50<72.7084 227.572 322.428 400> 480 20G<0 50 250 300>
VStem: 0 50<-200 26.7949 71.875 500> 250 50<71.875 500>
LayerCount: 2
Fore
SplineSet
400 50 m 1
 400 0 l 1
 340.824829046 0 299.15816238 17.5085042869 275 52.5255128608 c 1
 250.84183762 17.5085042869 209.175170954 -1.06581410364e-14 150 0 c 0
 107.735026919 0 74.4016935856 8.9316397477 50 26.7949192431 c 1
 50 -200 l 1
 0 -200 l 5
 0 500 l 5
 50 500 l 1
 50 150 l 2
 50 75 75 50 150 50 c 0
 225 50 250 75 250 150 c 2
 250 500 l 1
 300 500 l 1
 300 150 l 2
 300 75 325 50 400 50 c 1
EndSplineSet
EndChar

StartChar: ecircumflex
Encoding: 214 234 214
Width: 400
VWidth: 0
Flags: W
HStem: 0 50<128.977 271.894> 450 50<124.835 259.541> 550 21G<50 100 300 350> 700 50<170.186 229.814>
VStem: 0 50<169.286 359.546> 50 50<550 612.891> 300 50<76.7532 100 300.677 408.16 550 612.891>
LayerCount: 2
Fore
SplineSet
200 700 m 0xf6
 175 700 100 600 100 550 c 1
 50 550 l 1
 50 625 150 750 200 750 c 0
 250 750 350 625 350 550 c 1
 300 550 l 1
 300 600 225 700 200 700 c 0xf6
64.4510259553 151.675225619 m 1
 85.8557220651 97.5565904769 131.038713413 50 200 50 c 0
 225 50 300 75 300 100 c 1
 350 100 l 1
 350 50 250 0 200 0 c 0
 75 0 0 100 0 225 c 0xfa
 0 375 50 500 200 500 c 0
 300 500 350 400 350 350 c 0
 350 235.838209407 204.031358369 163.381744995 64.4510259553 151.675225619 c 1
51.6025492224 201.080355933 m 1
 170.297838499 210.517656225 300 280.258828112 300 350 c 0
 300 375 275 450 200 450 c 0
 75 450 50 325 50 225 c 0
 50 217.247865078 50.5341830741 209.22863862 51.6025492224 201.080355933 c 1
EndSplineSet
Substitution2: "'aalt' - low.low-1" ecircumflex.l.l
Substitution2: "'aalt' - low.none-1" ecircumflex.l.n
Substitution2: "'aalt' - none.low-1" ecircumflex.n.l
EndChar

StartChar: eth
Encoding: 215 240 215
Width: 400
VWidth: 0
Flags: W
HStem: 0 50<93.6684 214.604> 250 49.9902<133.958 296.55> 780 20G<100 150>
VStem: 0 50<93.6684 200.221 592.001 650> 100 50<680.335 800> 300 50<146.056 250 299.99 369.552 597.006 700>
LayerCount: 2
Fore
SplineSet
300 700 m 1
 350 700 l 1
 350 623.47758007 320.72159624 546.95516014 262.164788721 515.241826358 c 1
 307.797454448 442.753381184 350 364.840304271 350 250 c 0
 350 50 225 0 150 0 c 0
 75 0 0 75 0 150 c 0
 0 273.578557218 195.477245493 299.41849169 296.550184875 299.990191316 c 1
 285.364159301 379.280989074 248.571353423 439.661953816 209.795098125 500.327041885 c 0
 206.585182386 500.110233939 203.320149678 500 200 500 c 0
 100 500 0 550 0 650 c 1
 50 650 l 1
 50 582.390835313 110.946655329 555.412774179 177.899266556 550.75225012 c 1
 136.258724199 618.833440511 100 693.553528419 100 800 c 1
 150 800 l 1
 150 698.287880163 190.870539542 627.228664984 235.660247821 556.79936568 c 1
 283.160322441 576.891471446 300 638.445735723 300 700 c 1
300 250 m 1
 225 250 50 250 50 150 c 0
 50 100 100 50 150 50 c 0
 200 50 300 100 300 250 c 1
EndSplineSet
EndChar

StartChar: divide
Encoding: 216 247 216
Width: 500
VWidth: 0
Flags: W
HStem: 50 50<260.898 368.387> 200 50<272.622 350> 350 50<100 177.378> 480 20G<400 450> 500 50<81.6132 189.102>
VStem: 0 50<100 162.856 400 465.625> 200 50<110.898 178.294 421.706 489.102> 400 50<134.375 200 437.144 500>
CounterMasks: 1 07
LayerCount: 2
Fore
SplineSet
450 200 m 1xe7
 450 100 375 50 300 50 c 0
 250 50 200 100 200 150 c 0
 200 200 275 250 350 250 c 1
 350 200 l 1
 300 200 250 175 250 150 c 0
 250 125 275 100 300 100 c 0
 350 100 400 125 400 200 c 1
 450 200 l 1xe7
0 400 m 1
 0 500 75 550 150 550 c 0
 200 550 250 500 250 450 c 0
 250 400 175 350 100 350 c 1
 100 400 l 1
 150 400 200 425 200 450 c 0
 200 475 175 500 150 500 c 0xef
 100 500 50 475 50 400 c 1
 0 400 l 1
400 500 m 1xf7
 450 500 l 1
 450 250 50 300 50 100 c 1
 0 100 l 1
 0 350 400 300 400 500 c 1xf7
EndSplineSet
EndChar

StartChar: currency
Encoding: 217 164 217
Width: 400
VWidth: 0
Flags: W
HStem: 100 50<0 80.1935 269.807 350> 450 50<0 92.1881 258.758 350>
VStem: 50 50<250 317.481> 150 50<261.709 337.966> 250 50<271.381 338.359>
CounterMasks: 1 38
LayerCount: 2
Fore
SplineSet
175 190.87280063 m 1
 143.254938429 132.688802068 82.5237365707 100 0 100 c 1
 0 150 l 1
 100 150 150 225 150 300 c 0
 150 313.792466721 149.048839309 326.633772751 147.146517926 338.52391809 c 1
 119.900427973 324.731451369 100 297.315939671 100 250 c 1
 50 250 l 1
 50 318.8787537 85.5821203343 364.036093843 132.237839977 385.472020431 c 1
 109.667886507 428.490673477 65.5886065153 450 0 450 c 1
 0 500 l 1
 82.5237365707 500 143.254938429 478.207465288 175 420.235184713 c 1
 206.745061571 478.207465288 267.476263429 500 350 500 c 1
 350 450 l 1
 290.139769523 450 248.19577501 432.083764036 224.16801646 396.251292109 c 1
 264.93402704 383.744818299 300 341.87240915 300 300 c 0
 300 267.016805977 267.363267361 234.033611954 223.619075782 215.403267063 c 1
 247.554318739 177.287597673 289.681293478 150 350 150 c 1
 350 100 l 1
 267.476263429 100 206.745061571 132.688802068 175 190.87280063 c 1
200 300 m 0
 200 286.417691497 201.63981426 272.835382994 204.919442781 259.698523754 c 1
 231.099711524 269.2589131 250 284.62945655 250 300 c 0
 250 323.338049781 228.213417296 346.676099563 204.978505957 349.675895276 c 1
 201.659501986 334.776765503 200 318.218133744 200 300 c 0
EndSplineSet
EndChar

StartChar: ccedilla
Encoding: 218 231 218
Width: 400
VWidth: 0
Flags: W
HStem: -200 50<160.898 268.387> 0 50<120.671 285.4> 450 50<131.402 258.504>
VStem: 0 50<120.126 342.785> 100 50<-138.907 -100> 300 50<-116.976 -16.6679 300 403.125>
LayerCount: 2
Fore
SplineSet
350 300 m 1
 300 300 l 1
 300 375 275 450 200 450 c 0
 75 450 50 300 50 200 c 0
 50 125 100 50 200 50 c 0
 300 50 350 0 350 -50 c 0
 350 -150 275 -200 200 -200 c 0
 150 -200 100 -150 100 -100 c 1
 150 -100 l 1
 150 -125 175 -150 200 -150 c 0
 250 -150 300 -125 300 -50 c 0
 300 -25 275 0 200 0 c 0
 75 0 0 75 0 200 c 0
 0 350 50 500 200 500 c 0
 300 500 350 400 350 300 c 1
EndSplineSet
Substitution2: "'aalt' - low.none-1" ccedilla.l.n
EndChar

StartChar: ccedilla.l.n
Encoding: 219 57575 219
Width: 450
VWidth: 0
Flags: W
HStem: -200 50<210.898 318.387> 0 50<0 31.4346 168.404 335.4> 450 50<181.402 308.504>
VStem: 50 50<119.58 342.357> 150 50<-138.907 -100> 350 50<-116.976 -16.6679 300 403.125>
LayerCount: 2
Fore
SplineSet
400 300 m 1
 350 300 l 1
 350 375 325 450 250 450 c 0
 125 450 100 300 100 200 c 0
 100 125 150 50 250 50 c 0
 350 50 400 0 400 -50 c 0
 400 -150 325 -200 250 -200 c 0
 200 -200 150 -150 150 -100 c 1
 200 -100 l 1
 200 -125 225 -150 250 -150 c 0
 300 -150 350 -125 350 -50 c 0
 350 -25 325 0 250 0 c 0
 172.576046454 0 114.334392373 28.773449197 81.2157156064 80.3796697403 c 1
 65.8783938061 35.6945466493 40.0781062329 -2.13162820728e-14 0 0 c 1
 0 50 l 1
 50 50 50 150 50 200 c 0
 50 350 100 500 250 500 c 0
 350 500 400 400 400 300 c 1
EndSplineSet
EndChar

StartChar: ntilde
Encoding: 220 241 220
Width: 500
VWidth: 0
Flags: W
HStem: 0 21G<200 250 400 450> 450 50<298.322 388.033> 500 50<85.4896 161.38> 600 50<100 136.695 253.526 337.374> 650 50<162.626 246.474 363.305 400>
VStem: 0 50<350 457.227> 200 50<0 386.653> 400 50<0 439.291>
CounterMasks: 1 07
LayerCount: 2
Fore
SplineSet
350 500 m 0xc7
 450 500 450 425 450 350 c 2
 450 0 l 1
 400 0 l 1
 400 350 l 2
 400 400 400 450 350 450 c 0xc7
 300 450 250 400 250 250 c 2
 250 0 l 1
 200 0 l 5
 200 350 l 6
 200 400 175 500 125 500 c 0
 75 500 50 425 50 350 c 1
 0 350 l 1
 0 450 25 550 125 550 c 0xa7
 196.962359794 550 230.085360385 498.214187729 243.002148046 431.908855735 c 1
 276.266947361 483.577501768 321.344722797 500 350 500 c 0xc7
300 600 m 0x97
 250 600 250 650 200 650 c 0x8f
 150 650 175 600 100 600 c 1
 100 650 l 1x97
 150 650 125 700 200 700 c 0x8f
 250 700 250 650 300 650 c 0x97
 350 650 325 700 400 700 c 1
 400 650 l 1x8f
 350 650 375 600 300 600 c 0x97
EndSplineSet
Substitution2: "'aalt' - none.low-1" ntilde.n.l
EndChar

StartChar: ntilde.n.l
Encoding: 221 57585 221
Width: 500
VWidth: 0
Flags: W
HStem: 0 50<461.093 500> 450 50<298.322 388.033> 500 50<85.4896 161.38> 600 50<100 136.695 253.526 337.374> 650 50<162.626 246.474 363.305 400>
VStem: 0 50<350 457.227> 200 50<0 386.653> 400 50<60.7018 439.291>
CounterMasks: 1 07
LayerCount: 2
Fore
SplineSet
350 500 m 0xc7
 450 500 450 425 450 350 c 2
 450 100 l 2
 450 75 475 50 500 50 c 1
 500 0 l 1
 450 0 400 25 400 100 c 2
 400 350 l 2
 400 400 400 450 350 450 c 0xc7
 300 450 250 400 250 250 c 2
 250 0 l 1
 200 0 l 5
 200 350 l 6
 200 400 175 500 125 500 c 0
 75 500 50 425 50 350 c 1
 0 350 l 1
 0 450 25 550 125 550 c 0xa7
 196.962359794 550 230.085360385 498.214187729 243.002148046 431.908855735 c 1
 276.266947361 483.577501768 321.344722797 500 350 500 c 0xc7
300 600 m 0x97
 250 600 250 650 200 650 c 0x8f
 150 650 175 600 100 600 c 1
 100 650 l 1x97
 150 650 125 700 200 700 c 0x8f
 250 700 250 650 300 650 c 0x97
 350 650 325 700 400 700 c 1
 400 650 l 1x8f
 350 650 375 600 300 600 c 0x97
EndSplineSet
EndChar

StartChar: aacute.n.l
Encoding: 222 57569 222
Width: 450
VWidth: 0
Flags: W
HStem: 0 50<93.6684 215.263 418.381 450> 250 50<113.588 240.905> 450 50<138.271 251.474> 550 21G<100 150> 700 50<220.549 250>
VStem: 0 50<93.6684 196.263 300 360.069 423.995 500> 100 50<550 612.891> 300 50<233.553 384.932>
LayerCount: 2
Fore
SplineSet
0 500 m 1
 50 500 l 1
 50 423.995155788 l 1
 88.4250603337 468.877582096 144.212530167 500 200 500 c 0
 300 500 350 400 350 250 c 0
 350 222.435537117 347.625626206 197.720322786 343.335016986 175.592563655 c 1
 387.262848901 112.89566799 424.92099125 50 450 50 c 1
 450 0 l 1
 403.205958965 0 361.886123621 54.7420569099 323.47889191 112.994129582 c 1
 282.665338472 25.5141645882 203.575586942 3.5527136788e-15 150 0 c 0
 75 0 0 75 0 150 c 0
 0 225 100 300 200 300 c 0
 233.840280227 300 267.680560455 271.370885853 299.583206192 233.489002467 c 1
 299.858404674 238.852849023 300 244.355626849 300 250 c 0
 300 350 275 450 200 450 c 0
 125 450 50 350 50 300 c 1
 0 300 l 1
 0 500 l 1
250 700 m 1
 225 700 150 600 150 550 c 1
 100 550 l 1
 100 625 200 750 250 750 c 1
 250 700 l 1
287.927832432 167.550794445 m 1
 257.671326377 213.04464571 228.835663189 250 200 250 c 0
 125 250 50 200 50 150 c 0
 50 100 100 50 150 50 c 0
 189.391502302 50 259.816813675 81.0338090718 287.927832432 167.550794445 c 1
EndSplineSet
EndChar

StartChar: agrave
Encoding: 223 224 223
Width: 450
VWidth: 0
Flags: W
HStem: 0 50<94.9219 215.84> 250 50<113.622 234.535> 450 50<138.271 251.474> 550 21G<150 200> 700 50<50 79.4508>
VStem: 0 50<93.6684 196.263 300 360.069 423.995 500> 150 50<550 612.891> 300 50<230.016 386.216> 350 50<0 72.489>
LayerCount: 2
Fore
SplineSet
0 500 m 1xff
 50 500 l 1
 50 423.995155788 l 1
 88.4250603337 468.877582096 144.212530167 500 200 500 c 0
 300 500 350 400 350 250 c 0xff
 350 217.072562479 346.611824557 188.21093549 340.616421218 162.968863291 c 1
 376.378680755 95.8444072276 400 24.3008843691 400 0 c 1
 350 0 l 1xfe80
 350 18.4965289841 336.315136622 57.5203530356 316.539084029 99.3528991062 c 1
 274.194321567 22.8318777946 200.681221886 -3.19744231092e-14 150 0 c 0
 75 0 0 75 0 150 c 0
 0 225 100 300 200 300 c 0
 234.479106287 300 268.958212574 270.279780741 299.338412466 229.284421001 c 1
 299.774102518 235.967295388 300 242.870698953 300 250 c 0
 300 350 275 450 200 450 c 0
 125 450 50 350 50 300 c 1
 0 300 l 1
 0 500 l 1xff
50 750 m 1
 100 750 200 625 200 550 c 1
 150 550 l 1
 150 600 75 700 50 700 c 1
 50 750 l 1
284.979162323 159.085182773 m 1
 255.704493627 208.778431607 222.699550765 250 200 250 c 0
 125 250 50 200 50 150 c 0
 50 100 100 50 150 50 c 0
 188.078776895 50 255.157418786 78.9998649964 284.979162323 159.085182773 c 1
EndSplineSet
Substitution2: "'aalt' - none.low-1" agrave.n.l
EndChar

StartChar: aacute
Encoding: 224 225 224
Width: 450
VWidth: 0
Flags: W
HStem: 0 50<94.9219 215.84> 250 50<113.622 234.535> 450 50<138.271 251.474> 550 21G<100 150> 700 50<220.549 250>
VStem: 0 50<93.6684 196.263 300 360.069 423.995 500> 100 50<550 612.891> 300 50<230.016 386.216> 350 50<0 72.489>
LayerCount: 2
Fore
SplineSet
0 500 m 1xff
 50 500 l 1
 50 423.995155788 l 1
 88.4250603337 468.877582096 144.212530167 500 200 500 c 0
 300 500 350 400 350 250 c 0xff
 350 217.072562479 346.611824557 188.21093549 340.616421218 162.968863291 c 1
 376.378680755 95.8444072276 400 24.3008843691 400 0 c 1
 350 0 l 1xfe80
 350 18.4965289841 336.315136622 57.5203530356 316.539084029 99.3528991062 c 1
 274.194321567 22.8318777946 200.681221886 -3.19744231092e-14 150 0 c 0
 75 0 0 75 0 150 c 0
 0 225 100 300 200 300 c 0
 234.479106287 300 268.958212574 270.279780741 299.338412466 229.284421001 c 1
 299.774102518 235.967295388 300 242.870698953 300 250 c 0
 300 350 275 450 200 450 c 0
 125 450 50 350 50 300 c 1
 0 300 l 1
 0 500 l 1xff
250 700 m 1
 225 700 150 600 150 550 c 1
 100 550 l 1
 100 625 200 750 250 750 c 1
 250 700 l 1
284.979162323 159.085182773 m 1
 255.704493627 208.778431607 222.699550765 250 200 250 c 0
 125 250 50 200 50 150 c 0
 50 100 100 50 150 50 c 0
 188.078776895 50 255.157418786 78.9998649964 284.979162323 159.085182773 c 1
EndSplineSet
Substitution2: "'aalt' - none.low-1" aacute.n.l
EndChar

StartChar: acircumflex
Encoding: 225 226 225
Width: 450
VWidth: 0
Flags: W
HStem: 0 50<94.9219 215.84> 250 50<113.622 234.535> 450 50<138.271 251.474> 550 21G<0 50 250 300> 700 50<120.186 179.814>
VStem: 0 50<93.6684 196.263 300 360.069 423.995 500 550 612.891> 250 50<550 612.891> 300 50<230.016 386.216> 350 50<0 72.489>
LayerCount: 2
Fore
SplineSet
0 500 m 1xfd
 50 500 l 1
 50 423.995155788 l 1
 88.4250603337 468.877582096 144.212530167 500 200 500 c 0
 300 500 350 400 350 250 c 0xfd
 350 217.072562479 346.611824557 188.21093549 340.616421218 162.968863291 c 1
 376.378680755 95.8444072276 400 24.3008843691 400 0 c 1
 350 0 l 1xfc80
 350 18.4965289841 336.315136622 57.5203530356 316.539084029 99.3528991062 c 1
 274.194321567 22.8318777946 200.681221886 -3.19744231092e-14 150 0 c 0
 75 0 0 75 0 150 c 0
 0 225 100 300 200 300 c 0
 234.479106287 300 268.958212574 270.279780741 299.338412466 229.284421001 c 1
 299.774102518 235.967295388 300 242.870698953 300 250 c 0
 300 350 275 450 200 450 c 0
 125 450 50 350 50 300 c 1
 0 300 l 1
 0 500 l 1xfd
150 700 m 0
 125 700 50 600 50 550 c 1
 0 550 l 1
 0 625 100 750 150 750 c 0
 200 750 300 625 300 550 c 1
 250 550 l 1xfe
 250 600 175 700 150 700 c 0
284.979162323 159.085182773 m 1
 255.704493627 208.778431607 222.699550765 250 200 250 c 0
 125 250 50 200 50 150 c 0
 50 100 100 50 150 50 c 0
 188.078776895 50 255.157418786 78.9998649964 284.979162323 159.085182773 c 1
EndSplineSet
Substitution2: "'aalt' - none.low-1" acircumflex.n.l
EndChar

StartChar: atilde
Encoding: 226 227 226
Width: 450
VWidth: 0
Flags: W
HStem: 0 50<94.9219 215.84> 250 50<113.622 234.535> 450 50<138.271 251.474> 600 50<0 36.6951 153.526 237.374> 650 50<62.6261 146.474 263.305 300>
VStem: 0 50<93.6684 196.263 300 360.069 423.995 500> 300 50<230.016 386.216> 350 50<0 72.489>
LayerCount: 2
Fore
SplineSet
0 500 m 1xe6
 50 500 l 1
 50 423.995155788 l 1
 88.4250603337 468.877582096 144.212530167 500 200 500 c 0
 300 500 350 400 350 250 c 0xe6
 350 217.072562479 346.611824557 188.21093549 340.616421218 162.968863291 c 1
 376.378680755 95.8444072276 400 24.3008843691 400 0 c 1
 350 0 l 1xe5
 350 18.4965289841 336.315136622 57.5203530356 316.539084029 99.3528991062 c 1
 274.194321567 22.8318777946 200.681221886 -3.19744231092e-14 150 0 c 0
 75 0 0 75 0 150 c 0
 0 225 100 300 200 300 c 0
 234.479106287 300 268.958212574 270.279780741 299.338412466 229.284421001 c 1
 299.774102518 235.967295388 300 242.870698953 300 250 c 0
 300 350 275 450 200 450 c 0
 125 450 50 350 50 300 c 1
 0 300 l 1
 0 500 l 1xe6
200 600 m 0xf6
 150 600 150 650 100 650 c 0xee
 50 650 75 600 0 600 c 1
 0 650 l 1xf6
 50 650 25 700 100 700 c 0xee
 150 700 150 650 200 650 c 0xf6
 250 650 225 700 300 700 c 1
 300 650 l 1xee
 250 650 275 600 200 600 c 0xf6
284.979162323 159.085182773 m 1
 255.704493627 208.778431607 222.699550765 250 200 250 c 0
 125 250 50 200 50 150 c 0
 50 100 100 50 150 50 c 0
 188.078776895 50 255.157418786 78.9998649964 284.979162323 159.085182773 c 1
EndSplineSet
Substitution2: "'aalt' - none.low-1" atilde.n.l
EndChar

StartChar: adieresis
Encoding: 227 228 227
Width: 450
VWidth: 0
Flags: W
HStem: 0 50<94.9219 215.84> 250 50<113.622 234.535> 450 50<138.271 251.474> 550 150<100 150 200 250>
VStem: 0 50<93.6684 196.263 300 360.069 423.995 500> 100 50<550 700> 200 50<550 700> 300 50<230.016 386.216> 350 50<0 72.489>
LayerCount: 2
Fore
SplineSet
0 500 m 1xff
 50 500 l 1
 50 423.995155788 l 1
 88.4250603337 468.877582096 144.212530167 500 200 500 c 0
 300 500 350 400 350 250 c 0xff
 350 217.072562479 346.611824557 188.21093549 340.616421218 162.968863291 c 1
 376.378680755 95.8444072276 400 24.3008843691 400 0 c 1
 350 0 l 1xfe80
 350 18.4965289841 336.315136622 57.5203530356 316.539084029 99.3528991062 c 1
 274.194321567 22.8318777946 200.681221886 -3.19744231092e-14 150 0 c 0
 75 0 0 75 0 150 c 0
 0 225 100 300 200 300 c 0
 234.479106287 300 268.958212574 270.279780741 299.338412466 229.284421001 c 1
 299.774102518 235.967295388 300 242.870698953 300 250 c 0
 300 350 275 450 200 450 c 0
 125 450 50 350 50 300 c 1
 0 300 l 1
 0 500 l 1xff
100 700 m 1
 150 700 l 1
 150 550 l 1
 100 550 l 1
 100 700 l 1
200 700 m 1
 250 700 l 1
 250 550 l 1
 200 550 l 1
 200 700 l 1
284.979162323 159.085182773 m 1
 255.704493627 208.778431607 222.699550765 250 200 250 c 0
 125 250 50 200 50 150 c 0
 50 100 100 50 150 50 c 0
 188.078776895 50 255.157418786 78.9998649964 284.979162323 159.085182773 c 1
EndSplineSet
Substitution2: "'aalt' - none.low-1" adieresis.n.l
EndChar

StartChar: aring
Encoding: 228 229 228
Width: 450
VWidth: 0
Flags: W
HStem: 0 50<94.9219 215.84> 250 50<113.622 234.535> 450 50<138.271 251.474> 550 50<110.898 178.294> 750 50<110.371 195.732>
VStem: 0 50<93.6684 196.263 300 360.069 423.995 500> 50 50<610.898 740.348> 200 50<622.013 745.526> 300 50<230.016 386.216> 350 50<0 72.489>
LayerCount: 2
Fore
SplineSet
0 500 m 1xfd80
 50 500 l 1
 50 423.995155788 l 1
 88.4250603337 468.877582096 144.212530167 500 200 500 c 0
 300 500 350 400 350 250 c 0xfd80
 350 217.072562479 346.611824557 188.21093549 340.616421218 162.968863291 c 1
 376.378680755 95.8444072276 400 24.3008843691 400 0 c 1
 350 0 l 1xf940
 350 18.4965289841 336.315136622 57.5203530356 316.539084029 99.3528991062 c 1
 274.194321567 22.8318777946 200.681221886 -3.19744231092e-14 150 0 c 0
 75 0 0 75 0 150 c 0
 0 225 100 300 200 300 c 0
 234.479106287 300 268.958212574 270.279780741 299.338412466 229.284421001 c 1
 299.774102518 235.967295388 300 242.870698953 300 250 c 0
 300 350 275 450 200 450 c 0
 125 450 50 350 50 300 c 1
 0 300 l 1
 0 500 l 1xfd80
250 700 m 0
 250 625 200 550 150 550 c 0
 100 550 50 600 50 650 c 0xfb
 50 725 75 800 150 800 c 0
 225 800 250 750 250 700 c 0
150 750 m 0
 100 750 100 700 100 650 c 0
 100 625 125 600 150 600 c 0
 175 600 200 650 200 700 c 0
 200 725 200 750 150 750 c 0
284.979162323 159.085182773 m 1
 255.704493627 208.778431607 222.699550765 250 200 250 c 0
 125 250 50 200 50 150 c 0xfd
 50 100 100 50 150 50 c 0
 188.078776895 50 255.157418786 78.9998649964 284.979162323 159.085182773 c 1
EndSplineSet
Substitution2: "'aalt' - none.low-1" aring.n.l
EndChar

StartChar: acircumflex.n.l
Encoding: 229 57570 229
Width: 450
VWidth: 0
Flags: W
HStem: 0 50<93.6684 215.263 418.381 450> 250 50<113.588 240.905> 450 50<138.271 251.474> 550 21G<0 50 250 300> 700 50<120.186 179.814>
VStem: 0 50<93.6684 196.263 300 360.069 423.995 500 550 612.891> 250 50<550 612.891> 300 50<233.553 384.932>
LayerCount: 2
Fore
SplineSet
0 500 m 1xfd
 50 500 l 1
 50 423.995155788 l 1
 88.4250603337 468.877582096 144.212530167 500 200 500 c 0
 300 500 350 400 350 250 c 0
 350 222.435537117 347.625626206 197.720322786 343.335016986 175.592563655 c 1
 387.262848901 112.89566799 424.92099125 50 450 50 c 1
 450 0 l 1
 403.205958965 0 361.886123621 54.7420569099 323.47889191 112.994129582 c 1
 282.665338472 25.5141645882 203.575586942 3.5527136788e-15 150 0 c 0
 75 0 0 75 0 150 c 0
 0 225 100 300 200 300 c 0
 233.840280227 300 267.680560455 271.370885853 299.583206192 233.489002467 c 1
 299.858404674 238.852849023 300 244.355626849 300 250 c 0
 300 350 275 450 200 450 c 0
 125 450 50 350 50 300 c 1
 0 300 l 1
 0 500 l 1xfd
150 700 m 0
 125 700 50 600 50 550 c 1
 0 550 l 1
 0 625 100 750 150 750 c 0
 200 750 300 625 300 550 c 1
 250 550 l 1xfe
 250 600 175 700 150 700 c 0
287.927832432 167.550794445 m 1
 257.671326377 213.04464571 228.835663189 250 200 250 c 0
 125 250 50 200 50 150 c 0
 50 100 100 50 150 50 c 0
 189.391502302 50 259.816813675 81.0338090718 287.927832432 167.550794445 c 1
EndSplineSet
EndChar

StartChar: atilde.n.l
Encoding: 230 57571 230
Width: 450
VWidth: 0
Flags: W
HStem: 0 50<93.6684 215.263 418.381 450> 250 50<113.588 240.905> 450 50<138.271 251.474> 600 50<0 36.6951 153.526 237.374> 650 50<62.6261 146.474 263.305 300>
VStem: 0 50<93.6684 196.263 300 360.069 423.995 500> 300 50<233.553 384.932>
LayerCount: 2
Fore
SplineSet
0 500 m 1xe6
 50 500 l 1
 50 423.995155788 l 1
 88.4250603337 468.877582096 144.212530167 500 200 500 c 0
 300 500 350 400 350 250 c 0
 350 222.435537117 347.625626206 197.720322786 343.335016986 175.592563655 c 1
 387.262848901 112.89566799 424.92099125 50 450 50 c 1
 450 0 l 1
 403.205958965 0 361.886123621 54.7420569099 323.47889191 112.994129582 c 1
 282.665338472 25.5141645882 203.575586942 3.5527136788e-15 150 0 c 0
 75 0 0 75 0 150 c 0
 0 225 100 300 200 300 c 0
 233.840280227 300 267.680560455 271.370885853 299.583206192 233.489002467 c 1
 299.858404674 238.852849023 300 244.355626849 300 250 c 0
 300 350 275 450 200 450 c 0
 125 450 50 350 50 300 c 1
 0 300 l 1
 0 500 l 1xe6
200 600 m 0xf6
 150 600 150 650 100 650 c 0xee
 50 650 75 600 0 600 c 1
 0 650 l 1xf6
 50 650 25 700 100 700 c 0xee
 150 700 150 650 200 650 c 0xf6
 250 650 225 700 300 700 c 1
 300 650 l 1xee
 250 650 275 600 200 600 c 0xf6
287.927832432 167.550794445 m 1
 257.671326377 213.04464571 228.835663189 250 200 250 c 0
 125 250 50 200 50 150 c 0
 50 100 100 50 150 50 c 0
 189.391502302 50 259.816813675 81.0338090718 287.927832432 167.550794445 c 1
EndSplineSet
EndChar

StartChar: adieresis.n.l
Encoding: 231 57572 231
Width: 450
VWidth: 0
Flags: W
HStem: 0 50<93.6684 215.263 418.381 450> 250 50<113.588 240.905> 450 50<138.271 251.474> 550 150<100 150 200 250>
VStem: 0 50<93.6684 196.263 300 360.069 423.995 500> 100 50<550 700> 200 50<550 700> 300 50<233.553 384.932>
LayerCount: 2
Fore
SplineSet
0 500 m 1
 50 500 l 1
 50 423.995155788 l 1
 88.4250603337 468.877582096 144.212530167 500 200 500 c 0
 300 500 350 400 350 250 c 0
 350 222.435537117 347.625626206 197.720322786 343.335016986 175.592563655 c 1
 387.262848901 112.89566799 424.92099125 50 450 50 c 1
 450 0 l 1
 403.205958965 0 361.886123621 54.7420569099 323.47889191 112.994129582 c 1
 282.665338472 25.5141645882 203.575586942 3.5527136788e-15 150 0 c 0
 75 0 0 75 0 150 c 0
 0 225 100 300 200 300 c 0
 233.840280227 300 267.680560455 271.370885853 299.583206192 233.489002467 c 1
 299.858404674 238.852849023 300 244.355626849 300 250 c 0
 300 350 275 450 200 450 c 0
 125 450 50 350 50 300 c 1
 0 300 l 1
 0 500 l 1
100 700 m 1
 150 700 l 1
 150 550 l 1
 100 550 l 1
 100 700 l 1
200 700 m 1
 250 700 l 1
 250 550 l 1
 200 550 l 1
 200 700 l 1
287.927832432 167.550794445 m 1
 257.671326377 213.04464571 228.835663189 250 200 250 c 0
 125 250 50 200 50 150 c 0
 50 100 100 50 150 50 c 0
 189.391502302 50 259.816813675 81.0338090718 287.927832432 167.550794445 c 1
EndSplineSet
EndChar

